<svg width="34" height="24" viewBox="0 0 34 24" fill="none" xmlns="http://www.w3.org/2000/svg">
    <path d="M25.6797 15.2725C23.3165 15.2725 21.394 17.2299 21.394 19.6361C21.394 22.0422 23.3165 23.9997 25.6797 23.9997C28.0432 23.9997 29.9653 22.0422 29.9653 19.6361C29.9653 17.2299 28.0428 15.2725 25.6797 15.2725ZM25.6797 21.8179C24.4979 21.8179 23.5369 20.8393 23.5369 19.6361C23.5369 18.4328 24.4979 17.4543 25.6797 17.4543C26.8614 17.4543 27.8225 18.4328 27.8225 19.6361C27.8225 20.8394 26.8614 21.8179 25.6797 21.8179Z" fill="#07689A"/>
    <path d="M11.0332 15.2725C8.67004 15.2725 6.74756 17.2299 6.74756 19.6361C6.74756 22.0422 8.67004 23.9997 11.0332 23.9997C13.3963 23.9997 15.3188 22.0422 15.3188 19.6361C15.3188 17.2299 13.3963 15.2725 11.0332 15.2725ZM11.0332 21.8179C9.85144 21.8179 8.89037 20.8393 8.89037 19.6361C8.89037 18.4328 9.85144 17.4543 11.0332 17.4543C12.2146 17.4543 13.176 18.4328 13.176 19.6361C13.176 20.8394 12.2149 21.8179 11.0332 21.8179Z" fill="#07689A"/>
    <path d="M28.5626 2.78141C28.3805 2.41305 28.0101 2.18066 27.6051 2.18066H21.9624V4.36247H26.9444L29.8618 10.2708L31.7768 9.29038L28.5626 2.78141Z" fill="#07689A"/>
    <path d="M22.4619 18.5811H14.355V20.7629H22.4619V18.5811Z" fill="#07689A"/>
    <path d="M7.82213 18.5811H4.10799C3.51619 18.5811 3.03662 19.0694 3.03662 19.6719C3.03662 20.2745 3.51626 20.7628 4.10799 20.7628H7.8222C8.414 20.7628 8.89357 20.2744 8.89357 19.6719C8.89357 19.0694 8.41393 18.5811 7.82213 18.5811Z" fill="#07689A"/>
    <path d="M33.7752 11.9126L31.6677 9.149C31.4653 8.88281 31.1528 8.72716 30.8217 8.72716H23.0361V1.09087C23.0361 0.488302 22.5565 0 21.9647 0H4.10799C3.5162 0 3.03662 0.488369 3.03662 1.09087C3.03662 1.69337 3.51626 2.18174 4.10799 2.18174H20.8933V9.81803C20.8933 10.4206 21.373 10.9089 21.9647 10.9089H30.297L31.8573 12.9554V18.5816H28.8931C28.3013 18.5816 27.8217 19.0699 27.8217 19.6724C27.8217 20.275 28.3014 20.7633 28.8931 20.7633H32.9287C33.5205 20.7633 34.0001 20.2749 34.0001 19.6724V12.5817C34.0001 12.3395 33.9208 12.1039 33.7752 11.9126Z" fill="#07689A"/>
    <path d="M7.74888 13.0547H2.82039C2.2286 13.0547 1.74902 13.5431 1.74902 14.1456C1.74902 14.7481 2.22866 15.2364 2.82039 15.2364H7.74881C8.34061 15.2364 8.82018 14.7481 8.82018 14.1456C8.82025 13.5431 8.34061 13.0547 7.74888 13.0547Z" fill="#07689A"/>
    <path d="M10.214 8.76465H1.07137C0.47964 8.76465 0 9.25302 0 9.85559C0 10.4582 0.47964 10.9465 1.07137 10.9465H10.214C10.8058 10.9465 11.2854 10.4581 11.2854 9.85559C11.2854 9.25309 10.8058 8.76465 10.214 8.76465Z" fill="#07689A"/>
    <path d="M11.963 4.47168H2.82039C2.2286 4.47168 1.74902 4.96005 1.74902 5.56255C1.74902 6.16512 2.22866 6.65342 2.82039 6.65342H11.963C12.5548 6.65342 13.0344 6.16505 13.0344 5.56255C13.0345 4.96005 12.5548 4.47168 11.963 4.47168Z" fill="#07689A"/>
</svg>
