<svg width="32" height="33" viewBox="0 0 32 33" fill="none" xmlns="http://www.w3.org/2000/svg">
    <path d="M30.6304 24.0046L23.9158 17.2902C23.2351 16.6107 22.3119 16.1285 21.3065 15.9752L24.2665 13.0151C26.3636 13.3881 28.5415 12.7159 30.0608 11.1965C32.0231 9.23411 32.5382 6.23399 31.3424 3.73095C31.0637 3.14768 30.2909 3.01567 29.8344 3.47231L27.685 5.62184H26.3599V4.29678L28.5094 2.14726C28.9664 1.6903 28.8335 0.917648 28.2508 0.639324C25.7478 -0.556411 22.7475 -0.0413279 20.7851 1.92113C19.2658 3.44044 18.5936 5.61815 18.9666 7.71536L15.3285 11.3534L10.2123 6.2373L10.8749 5.57471C11.306 5.14363 11.2162 4.42179 10.6944 4.10871L4.06922 0.133554C3.70058 -0.0877048 3.22862 -0.0295149 2.92461 0.274497L0.274444 2.9246C-0.0295686 3.22862 -0.0876335 3.70051 0.1335 4.06921L4.10872 10.6945C4.42467 11.2213 5.14701 11.3027 5.57472 10.875L6.23731 10.2124L11.3535 15.3285L7.71537 18.9666C5.61828 18.5936 3.44045 19.2659 1.92113 20.7852C-0.0413192 22.7476 -0.556465 25.7478 0.639333 28.2507C0.918032 28.834 1.69088 28.966 2.14733 28.5094L4.29679 26.3599H5.62185V27.6849L3.47232 29.8344C3.0153 30.2914 3.14825 31.0641 3.73096 31.3424C4.63062 31.7722 5.59428 31.981 6.55113 31.9809C8.25633 31.9808 9.93946 31.3176 11.1965 30.0606C12.7158 28.5413 13.3881 26.3636 13.0151 24.2664L15.9753 21.3062C16.1286 22.3118 16.611 23.2352 17.2909 23.9164L24.0046 30.6302C25.8285 32.454 28.796 32.4622 30.6305 30.63C32.4566 28.803 32.4565 25.8308 30.6304 24.0046ZM5.0982 8.7014L2.11677 3.73239L3.73233 2.11688L8.70128 5.09825C8.35546 5.44408 5.56516 8.23444 5.0982 8.7014ZM7.56224 8.88741C8.42533 8.02425 8.16457 8.28507 8.88735 7.56229L14.0034 12.6784L12.6784 14.0034L7.56224 8.88741ZM11.3271 23.3043C11.0906 23.5408 10.9981 23.8854 11.0844 24.2086C11.5153 25.8218 11.0505 27.5565 9.87139 28.7357C8.8116 29.7954 7.32841 30.2644 5.89561 30.0614L7.22128 28.7357C7.39698 28.56 7.49573 28.3217 7.49573 28.0732V25.423C7.49573 24.9056 7.07622 24.486 6.55876 24.486H3.90859C3.66002 24.486 3.42176 24.5848 3.24606 24.7605L1.92038 26.0862C1.71744 24.6532 2.1864 23.17 3.24606 22.1104C4.42517 20.9313 6.15987 20.4664 7.77312 20.8974C8.09632 20.9836 8.4409 20.8912 8.67747 20.6547C8.88554 20.4466 20.2391 9.0931 20.6546 8.67752C20.8911 8.44101 20.9837 8.09637 20.8974 7.77317C20.4665 6.15998 20.9313 4.42535 22.1104 3.24612C23.1701 2.18639 24.6531 1.71724 26.0862 1.92044L24.7605 3.24612C24.5848 3.42181 24.486 3.66013 24.486 3.90858V6.55869C24.486 7.07615 24.9056 7.49566 25.423 7.49566H28.0732C28.3218 7.49566 28.56 7.39691 28.7357 7.22121L30.0614 5.89554C30.2643 7.32853 29.7954 8.81165 28.7357 9.87132C27.5566 11.0504 25.8218 11.5151 24.2087 11.0843C23.8855 10.998 23.5409 11.0905 23.3043 11.327L11.3271 23.3043ZM29.3057 29.3049C28.2073 30.4019 26.4241 30.3997 25.3298 29.3054L18.6166 22.5921C17.6676 21.6413 17.377 19.9847 18.6521 18.6521C19.9845 17.3771 21.6412 17.6677 22.5915 18.6159L29.3052 25.3297C30.401 26.4255 30.4009 28.2089 29.3057 29.3049Z" fill="#07689A"/>
    <path d="M27.9599 26.634L21.3387 20.0127C20.9729 19.6468 20.3796 19.6468 20.0137 20.0127C19.6478 20.3786 19.6478 20.9719 20.0137 21.3378L26.6349 27.959C27.0007 28.3248 27.5941 28.3248 27.9599 27.959C28.3258 27.5931 28.3258 26.9999 27.9599 26.634Z" fill="#07689A"/>
</svg>
