<svg width="34" height="28" viewBox="0 0 34 28" fill="none" xmlns="http://www.w3.org/2000/svg">
    <path d="M29.1843 9.23334V2.17884H23.2619V4.74534L16.9999 0L0 12.8826L3.56163 17.4433L5.30553 16.1217V28H15.3673V19.2969H19.0297V28H28.6947V16.1217L30.4386 17.4433L34 12.8827L29.1843 9.23334ZM26.7001 26.0353H21.0242V17.3321H13.3728V26.0353H7.29997V14.6103L17 7.25996L26.7 14.6103V26.0353H26.7001ZM30.0737 14.688L17 4.78066L3.92627 14.688L2.79696 13.242L17 2.47884L25.2565 8.73566V4.14359H27.1898V10.2008L31.203 13.242L30.0737 14.688Z" fill="#07689A"/>
</svg>
