<svg width="19" height="12" viewBox="0 0 19 12" fill="none" xmlns="http://www.w3.org/2000/svg">
    <path d="M0.26626 6.66891L5.62834 11.723C5.95549 12.0923 6.48607 12.0923 6.81322 11.723C7.14045 11.3535 7.14045 10.7546 6.81322 10.3852L2.88141 6.94596L17.2018 6.94596C17.6645 6.94596 18.0396 6.5224 18.0396 6.00001C18.0396 5.4777 17.6645 5.05406 17.2018 5.05406L2.88141 5.05406L6.81309 1.61485C7.14031 1.2454 7.14031 0.646501 6.81309 0.277052C6.64955 0.0924788 6.43506 2.92079e-06 6.22065 2.93952e-06C6.00623 2.95824e-06 5.79181 0.0924789 5.6282 0.277052L0.26626 5.33111C-0.0609613 5.70056 -0.0609613 6.29946 0.26626 6.66891Z" fill="#666575"/>
</svg>
