<svg width="32" height="20" viewBox="0 0 32 20" fill="none" xmlns="http://www.w3.org/2000/svg">
    <path fill-rule="evenodd" clip-rule="evenodd" d="M31.0444 3.41829C30.6483 2.95136 30.0473 2.69146 29.4235 2.69146H15.8871C15.5001 2.69146 15.1313 2.79718 14.8125 2.9866L14.1205 0.647537C14.0066 0.264301 13.6469 0 13.2372 0H12.1854H10.1775C9.795 0 9.48083 0.299541 9.48083 0.673967V0.744447C9.48083 1.11447 9.79045 1.41841 10.1775 1.41841H12.8092L14.1523 6.01284L16.0009 12.3517C14.9491 12.6072 14.1705 13.5278 14.1705 14.6202C14.1705 15.8581 15.1677 16.8756 16.4289 16.9549C16.3242 17.2456 16.2741 17.5672 16.3014 17.8976C16.3925 19.0164 17.335 19.9195 18.4915 19.9944C19.8711 20.0869 21.023 19.0253 21.023 17.7126C21.023 17.4483 20.9775 17.1972 20.891 16.9593H23.6593C23.5454 17.2721 23.4999 17.6201 23.5409 17.9769C23.6684 19.0605 24.5926 19.9151 25.7218 19.9944C27.1014 20.0869 28.2579 19.0297 28.2579 17.7126C28.2579 16.4395 27.1652 15.422 25.8539 15.422H16.6065C16.1557 15.422 15.7732 15.0828 15.755 14.6511C15.7368 14.193 16.1147 13.8185 16.5837 13.8185H17.9724H25.4987H27.6159C28.5539 13.8185 29.3734 13.1974 29.6011 12.3164L31.4405 5.15387C31.5999 4.53716 31.4542 3.90725 31.0444 3.41829ZM25.894 16.9548C26.3215 16.9548 26.6718 17.294 26.6718 17.7081C26.6718 18.1222 26.3215 18.4613 25.894 18.4613C25.4664 18.4613 25.1162 18.1222 25.1162 17.7081C25.1162 17.294 25.4619 16.9548 25.894 16.9548ZM19.4369 17.7081C19.4369 17.294 19.0866 16.9548 18.6591 16.9548C18.227 16.9548 17.8813 17.294 17.8813 17.7081C17.8813 18.1222 18.2315 18.4613 18.6591 18.4613C19.0866 18.4613 19.4369 18.1222 19.4369 17.7081ZM15.8006 6.00414L15.4455 4.79265C15.3908 4.60763 15.4682 4.47106 15.5229 4.40498C15.5729 4.33889 15.6913 4.22876 15.8871 4.22876H17.3714L17.7766 6.00854H15.8006V6.00414ZM18.1226 7.53687H16.2468L16.7248 9.18457H18.496L18.1226 7.53687ZM17.9724 12.2769C17.7676 12.2769 17.5854 12.1447 17.5308 11.9509L17.1711 10.7175H18.8421L19.1972 12.2725H17.9724V12.2769ZM20.8177 12.2766H21.9321V10.7217H20.463L20.8177 12.2766ZM21.9382 9.18457H20.117L19.7436 7.53687H21.9382V9.18457ZM19.3975 6.00415H21.9382V4.22437H18.9923L19.3975 6.00415ZM24.7781 12.2766H23.5273V10.7217H25.1146L24.7781 12.2766ZM23.5273 9.18457H25.4532L25.8129 7.53687H23.5273V9.18457ZM23.5273 6.00415V4.22437H26.5323L26.1453 6.00415H23.5273ZM27.6205 12.2812C27.8345 12.2812 28.0166 12.1403 28.0667 11.942L28.3808 10.7261H26.7417L26.4002 12.2812H27.6205ZM28.7724 9.18457H27.0741L27.4338 7.53687H29.1959L28.7724 9.18457ZM29.5874 5.99951L29.9016 4.77498C29.9517 4.59438 29.8697 4.45783 29.8151 4.39176C29.765 4.32569 29.6512 4.21997 29.4554 4.21997H28.1532L27.7662 5.99951H29.5874Z" fill="white"/>
    <path d="M5.39331 11.6748V14.8315H3.92114V11.6748H1.0061V10.2246H3.92114V7.20703H5.39331V10.2246H8.31567V11.6748H5.39331Z" fill="white"/>
</svg>
