<svg width="19" height="18" viewBox="0 0 19 18" fill="none" xmlns="http://www.w3.org/2000/svg">
    <path d="M13.258 10.6812C15.4642 7.63009 14.7264 3.40521 11.611 1.24502C8.49563 -0.915172 4.18176 -0.193044 1.97607 2.85858C-0.229613 5.90968 0.507724 10.1341 3.62362 12.2942C5.84723 13.8361 8.78709 13.9548 11.1324 12.5983L16.2285 17.5592C16.7787 18.1265 17.6942 18.1492 18.2734 17.6103C18.8526 17.072 18.8758 16.1754 18.3261 15.6081C18.3087 15.59 18.2918 15.5735 18.2734 15.5565L13.258 10.6812ZM7.61283 11.1437C5.151 11.1442 3.15508 9.191 3.1535 6.77995C3.15297 4.3689 5.14731 2.41415 7.60967 2.41312C10.0683 2.41209 12.0632 4.36219 12.068 6.77015C12.0722 9.18171 10.0789 11.1396 7.61599 11.1437C7.61494 11.1437 7.61441 11.1437 7.61283 11.1437Z" fill="#BDBDBD"/>
</svg>
