<svg width="120" height="120" viewBox="0 0 120 120" fill="none" xmlns="http://www.w3.org/2000/svg">
    <path d="M36.3331 49.2965C34.6748 47.4875 31.8105 47.3367 30.0015 48.995C28.1924 50.6533 28.0417 53.5176 29.6999 55.3267L52.4638 80.0503C53.3683 80.9548 54.4236 81.5578 55.6296 81.5578C55.6296 81.5578 55.6296 81.5578 55.7803 81.5578C56.9864 81.5578 58.1924 81.1056 58.9462 80.201L116.534 22.7639C118.343 20.9548 118.343 18.0905 116.534 16.4322C114.725 14.7739 111.861 14.6232 110.202 16.4322L55.9311 70.5528L36.3331 49.2965Z" fill="url(#paint0_linear)"/>
    <path d="M115.477 55.4774C112.915 55.4774 110.955 57.4372 110.955 60C110.955 88.0402 88.0402 110.955 60 110.955C31.9598 110.955 9.04523 88.0402 9.04523 60C9.04523 31.9598 31.9598 9.04523 60 9.04523C62.5628 9.04523 64.5226 7.08543 64.5226 4.52261C64.5226 1.9598 62.5628 0 60 0C26.9849 0 0 26.9849 0 60C0 93.0151 26.9849 120 60 120C93.0151 120 120 93.0151 120 60C120 57.4372 118.04 55.4774 115.477 55.4774Z" fill="url(#paint1_linear)"/>
    <defs>
        <linearGradient id="paint0_linear" x1="28.5449" y1="48.3446" x2="117.891" y2="48.3446" gradientUnits="userSpaceOnUse">
            <stop stop-color="#289FDD"/>
            <stop offset="1" stop-color="#07689A"/>
        </linearGradient>
        <linearGradient id="paint1_linear" x1="0" y1="60" x2="120" y2="60" gradientUnits="userSpaceOnUse">
            <stop stop-color="#289FDD"/>
            <stop offset="1" stop-color="#07689A"/>
        </linearGradient>
    </defs>
</svg>
