<svg width="51" height="50" viewBox="0 0 51 50" fill="none" xmlns="http://www.w3.org/2000/svg">
    <path d="M35.2719 33.5714H34.5568V15.7143C34.5568 15.32 34.2365 15 33.8418 15H30.9817C30.587 15 30.2667 15.32 30.2667 15.7143V33.5714H27.4065V21.4286C27.4065 21.0343 27.0862 20.7143 26.6915 20.7143H23.8314C23.4367 20.7143 23.1164 21.0343 23.1164 21.4286V33.5714H20.2562V27.1429C20.2562 26.7486 19.9359 26.4286 19.5412 26.4286H16.6811C16.2864 26.4286 15.9661 26.7486 15.9661 27.1429V33.5714H15.251C14.8563 33.5714 14.536 33.8914 14.536 34.2857C14.536 34.68 14.8563 35 15.251 35H35.2719C35.6666 35 35.9869 34.68 35.9869 34.2857C35.9869 33.8914 35.6666 33.5714 35.2719 33.5714Z" fill="white"/>
</svg>
