<svg width="24" height="24" viewBox="0 0 24 24" fill="none" xmlns="http://www.w3.org/2000/svg">
    <path d="M21.1666 5.75004H16.5833V4.83334C16.5833 3.82225 15.7611 3 14.75 3H9.24998C8.23889 3 7.41664 3.82221 7.41664 4.83334V5.74999H2.83334C1.82221 5.75004 1 6.57224 1 7.58334V10.3333C1 11.3445 1.82221 12.1667 2.83334 12.1667H10.1667V11.7083C10.1667 11.455 10.3717 11.25 10.625 11.25H13.375C13.6284 11.25 13.8334 11.455 13.8334 11.7083V12.1667H21.1667C22.1778 12.1667 23 11.3445 23 10.3333V7.58334C23 6.57224 22.1778 5.75004 21.1666 5.75004ZM14.75 5.75004H9.24998V4.83334H14.75V5.75004Z" fill="#07689A"/>
    <path d="M22.7457 12.6613C22.5895 12.5838 22.4029 12.6017 22.265 12.7065C21.9391 12.9531 21.5596 13.0833 21.1666 13.0833H13.8333V14.4583C13.8333 14.7117 13.6283 14.9167 13.375 14.9167H10.625C10.3716 14.9167 10.1666 14.7117 10.1666 14.4583V13.0833H2.83334C2.44035 13.0833 2.06081 12.9531 1.73494 12.7065C1.59662 12.6008 1.41044 12.5829 1.2542 12.6613C1.09848 12.7387 1 12.8976 1 13.0717V19.5C1 20.5111 1.82221 21.3334 2.83334 21.3334H21.1667C22.1778 21.3334 23 20.5112 23 19.5V13.0717C23 12.8976 22.9015 12.7387 22.7457 12.6613Z" fill="#07689A"/>
</svg>
