<svg width="24" height="24" viewBox="0 0 24 24" fill="none" xmlns="http://www.w3.org/2000/svg">
    <path d="M21.5516 17.819L18.4629 14.723C17.8477 14.1089 16.8289 14.1275 16.1923 14.7659L14.6362 16.3251C14.5379 16.2708 14.4361 16.2141 14.3291 16.1539C13.3465 15.6082 12.0015 14.8602 10.5863 13.4407C9.16682 12.0182 8.41986 10.6682 7.87372 9.68266C7.81609 9.57825 7.76087 9.47759 7.70634 9.38199L8.75071 8.33681L9.26416 7.82156C9.90178 7.18233 9.91936 6.16151 9.30559 5.54559L6.2169 2.44922C5.60313 1.83417 4.58387 1.85283 3.94626 2.49206L3.07576 3.36954L3.09955 3.39321C2.80766 3.7665 2.56375 4.19704 2.38223 4.66132C2.21491 5.10325 2.11074 5.52498 2.06311 5.94756C1.65527 9.33632 3.20033 12.4334 7.39342 16.636C13.1896 22.4449 17.8605 22.0061 18.062 21.9847C18.5008 21.9321 18.9214 21.827 19.3489 21.6606C19.8081 21.4808 20.2374 21.2367 20.6096 20.9448L20.6286 20.9617L21.5105 20.0962C22.1468 19.4571 22.1651 18.4359 21.5516 17.819Z" fill="#07689A"/>
</svg>
