<svg width="21" height="18" viewBox="0 0 21 18" fill="none" xmlns="http://www.w3.org/2000/svg">
    <path d="M0 1.69697C0 0.760242 0.760242 0 1.69697 0H19.303C20.2398 0 21 0.760242 21 1.69697C21 2.6337 20.2398 3.39394 19.303 3.39394H1.69697C0.760242 3.39394 0 2.6337 0 1.69697ZM19.303 7.21212H1.69697C0.760242 7.21212 0 7.97236 0 8.90909C0 9.84582 0.760242 10.6061 1.69697 10.6061H19.303C20.2398 10.6061 21 9.84582 21 8.90909C21 7.97236 20.2406 7.21212 19.303 7.21212ZM19.303 14.4242H1.69697C0.760242 14.4242 0 15.1845 0 16.1212C0 17.0579 0.760242 17.8182 1.69697 17.8182H19.303C20.2398 17.8182 21 17.0579 21 16.1212C21 15.1845 20.2406 14.4242 19.303 14.4242Z" fill="#07689A"/>
</svg>
