<svg width="16" height="15" viewBox="0 0 16 15" fill="none" xmlns="http://www.w3.org/2000/svg">
    <path d="M15.4485 11.8643L13.1296 9.54225C12.6677 9.08166 11.9028 9.09565 11.4248 9.57439L10.2566 10.7438C10.1827 10.7031 10.1063 10.6606 10.026 10.6154C9.28826 10.2062 8.27851 9.64518 7.21596 8.58055C6.15026 7.51367 5.58945 6.50113 5.17942 5.76199C5.13615 5.68369 5.09469 5.60819 5.05375 5.53649L5.83784 4.75261L6.22333 4.36617C6.70204 3.88674 6.71524 3.12113 6.25444 2.6592L3.93551 0.336912C3.4747 -0.124374 2.70946 -0.11038 2.23075 0.369047L1.57719 1.02716L1.59505 1.04491C1.37591 1.32488 1.19278 1.64778 1.05651 1.99599C0.930886 2.32744 0.852675 2.64373 0.816913 2.96067C0.510713 5.50224 1.67072 7.82504 4.81882 10.977C9.17045 15.3337 12.6773 15.0046 12.8286 14.9885C13.1581 14.9491 13.4739 14.8702 13.7948 14.7455C14.1395 14.6106 14.4618 14.4275 14.7413 14.2086L14.7556 14.2213L15.4176 13.5722C15.8954 13.0928 15.9091 12.3269 15.4485 11.8643Z" fill="#07689A"/>
</svg>