<svg width="16" height="16" viewBox="0 0 16 16" fill="none" xmlns="http://www.w3.org/2000/svg">
    <path d="M7.99928 6.14551C6.81541 6.14551 5.85352 7.1074 5.85352 8.29127C5.85352 9.47514 6.81541 10.437 7.99928 10.437C9.18315 10.437 10.145 9.47514 10.145 8.29127C10.145 7.1074 9.18315 6.14551 7.99928 6.14551ZM7.8365 7.65494C7.57013 7.65494 7.34815 7.87692 7.34815 8.14329H6.63783C6.65263 7.47736 7.18537 6.94462 7.8365 6.94462V7.65494Z" fill="#07689A"/>
    <path d="M14.511 7.84758C13.7858 6.94488 11.1961 4 7.99967 4C4.80323 4 2.21351 6.94488 1.48839 7.84758C1.28121 8.09915 1.28121 8.46911 1.48839 8.73548C2.21351 9.63818 4.80323 12.5831 7.99967 12.5831C11.1961 12.5831 13.7858 9.63818 14.511 8.73548C14.7181 8.48391 14.7181 8.11395 14.511 7.84758ZM7.99967 11.3992C6.28306 11.3992 4.89202 10.0081 4.89202 8.29153C4.89202 6.57492 6.28306 5.18387 7.99967 5.18387C9.71629 5.18387 11.1073 6.57492 11.1073 8.29153C11.1073 10.0081 9.71629 11.3992 7.99967 11.3992Z" fill="#07689A"/>
</svg>
