<svg width="16" height="16" viewBox="0 0 16 16" fill="none" xmlns="http://www.w3.org/2000/svg">
    <path d="M6.68169 6.62707C6.51888 6.36507 6.38844 6.08665 6.29102 5.79785V10.0384L7.6568 7.69712C7.27117 7.40473 6.94018 7.04298 6.68169 6.62707Z" fill="#07689A"/>
    <path d="M10.0532 1.33301C8.28888 1.33301 6.85352 2.76837 6.85352 4.53264C6.85352 4.77941 6.88255 5.02178 6.93716 5.25608C6.93839 5.26139 6.93964 5.26673 6.94089 5.27202C6.94695 5.29754 6.95336 5.32295 6.96005 5.34827C6.96138 5.35327 6.96273 5.35827 6.96411 5.36324C6.99393 5.47379 7.02958 5.58228 7.07081 5.68837C7.07263 5.69303 7.07438 5.69772 7.07622 5.70241C7.08542 5.72572 7.09492 5.74889 7.10464 5.77194C7.1075 5.77879 7.11042 5.78561 7.11336 5.79243C7.12307 5.81504 7.13294 5.83756 7.14318 5.85993C7.14581 5.86574 7.14857 5.87147 7.15125 5.87725C7.18523 5.95045 7.2219 6.0223 7.26122 6.09267C7.26409 6.09782 7.26687 6.10301 7.26977 6.10816C7.28083 6.12775 7.29229 6.14712 7.3038 6.16644C7.30927 6.17561 7.31469 6.1848 7.32023 6.19392C7.3313 6.21212 7.34255 6.23019 7.35398 6.24816C7.36023 6.25803 7.36661 6.26782 7.37302 6.27762C7.38445 6.29519 7.39594 6.31275 7.40771 6.33012C7.41406 6.33947 7.42062 6.34874 7.42708 6.35801C7.45128 6.3928 7.47607 6.42712 7.50159 6.46095C7.50685 6.46793 7.51198 6.47506 7.51729 6.48197C7.52865 6.49676 7.54034 6.51129 7.55198 6.52592C7.56128 6.53762 7.57055 6.54934 7.58003 6.56092C7.59135 6.57475 7.60284 6.58842 7.6144 6.60204C7.62474 6.61426 7.63516 6.62634 7.64565 6.6384C7.65695 6.65137 7.66833 6.66428 7.67984 6.67707C7.69146 6.68993 7.70328 6.70267 7.7151 6.71535C7.72599 6.72704 7.7368 6.73881 7.74786 6.75035C7.76516 6.76837 7.78279 6.78611 7.80049 6.80374C7.81302 6.81621 7.82573 6.82853 7.83846 6.84079C7.85492 6.85665 7.87143 6.87241 7.88823 6.88793C7.89867 6.89754 7.90927 6.90697 7.91984 6.91642C7.93477 6.9298 7.94974 6.94311 7.96492 6.95621C7.97583 6.96564 7.98685 6.97499 7.99789 6.98426C8.01362 6.99746 8.02948 7.01048 8.04544 7.02342C8.05599 7.03197 8.06651 7.04053 8.07719 7.04892C8.09617 7.06387 8.11542 7.0785 8.13474 7.09306C8.1426 7.09894 8.15034 7.10504 8.15826 7.11087C8.18534 7.13082 8.21276 7.15035 8.24055 7.16949C8.24854 7.17501 8.25669 7.1803 8.26474 7.18572C8.28529 7.1996 8.30591 7.21329 8.32682 7.22673C8.33734 7.23348 8.34797 7.24009 8.35857 7.24673C8.37768 7.25868 8.3969 7.27048 8.4163 7.28204C8.42721 7.28855 8.43818 7.29504 8.44917 7.30144C8.46971 7.31337 8.49044 7.32499 8.5113 7.33647C8.52102 7.34183 8.53065 7.34725 8.54044 7.35251C8.57102 7.36894 8.60182 7.38504 8.63305 7.40051L9.18797 8.25608L9.66854 8.99694L9.73049 9.09246C9.80141 9.20178 9.92287 9.26777 10.0532 9.26777C10.1835 9.26777 10.3049 9.20181 10.3758 9.09246L10.4378 8.99694L10.4745 8.94032L10.9139 8.2629L11.4733 7.40053C11.5046 7.38501 11.5355 7.36889 11.5661 7.35243C11.5759 7.34715 11.5856 7.34163 11.5954 7.33626C11.6162 7.3248 11.6368 7.31322 11.6573 7.30131C11.6685 7.29483 11.6797 7.28822 11.6908 7.28157C11.7099 7.27014 11.7289 7.25853 11.7478 7.2467C11.7587 7.23986 11.7697 7.23303 11.7805 7.22608C11.8004 7.21329 11.8201 7.20017 11.8396 7.18696C11.8488 7.18082 11.858 7.17478 11.8671 7.16853C11.8948 7.14939 11.9222 7.12993 11.9492 7.11001C11.9564 7.1047 11.9634 7.09918 11.9705 7.09387C11.9906 7.07879 12.0106 7.06361 12.0302 7.04808C12.0412 7.03941 12.052 7.03058 12.0629 7.02176C12.0785 7.00918 12.0939 6.9965 12.1092 6.98363C12.1209 6.97384 12.1324 6.96397 12.1439 6.95402C12.1581 6.9417 12.1722 6.92926 12.1862 6.91668C12.1978 6.90624 12.2094 6.89585 12.2209 6.88527C12.2347 6.87251 12.2483 6.85949 12.2618 6.84647C12.2728 6.83592 12.284 6.82553 12.2948 6.81486C12.317 6.79308 12.3388 6.771 12.3602 6.74863C12.3726 6.73571 12.3846 6.72249 12.3968 6.70936C12.4072 6.69811 12.4177 6.68686 12.428 6.67545C12.4407 6.66134 12.4532 6.64704 12.4656 6.63272C12.4747 6.62217 12.4839 6.61163 12.4929 6.60098C12.5057 6.58585 12.5184 6.57061 12.5309 6.55525C12.5388 6.54556 12.5465 6.53579 12.5543 6.526C12.5674 6.50949 12.5805 6.49298 12.5934 6.47624C12.5983 6.46975 12.6031 6.46314 12.608 6.45663C12.6555 6.3935 12.7006 6.32868 12.7433 6.26228C12.7469 6.25665 12.7505 6.25113 12.7541 6.24548C12.7673 6.22467 12.7802 6.20366 12.7929 6.18254C12.7967 6.17629 12.8004 6.17001 12.8041 6.16376C12.817 6.14196 12.8297 6.12006 12.8421 6.09798C12.8444 6.09392 12.8466 6.08983 12.8489 6.08577C12.9058 5.98337 12.9572 5.87785 13.0027 5.76954C13.0031 5.76863 13.0035 5.76769 13.0039 5.76678C13.0151 5.73993 13.026 5.71293 13.0365 5.68579C13.0372 5.68397 13.0379 5.68212 13.0386 5.6803C13.1037 5.51126 13.1547 5.33618 13.1906 5.1566C13.1906 5.15657 13.1906 5.15652 13.1906 5.1565C13.2312 4.95332 13.2527 4.74462 13.2527 4.53264C13.2528 2.76837 11.8175 1.33301 10.0532 1.33301ZM10.0532 6.26993C9.09523 6.26993 8.31586 5.49059 8.31586 4.53264C8.31586 3.5747 9.09521 2.79533 10.0532 2.79533C11.0111 2.79533 11.7904 3.57467 11.7904 4.53264C11.7904 5.49059 11.0111 6.26993 10.0532 6.26993Z" fill="#07689A"/>
    <path d="M14.3735 5.4468L13.9368 5.33984C13.8424 5.79336 13.6688 6.22914 13.4213 6.62742C13.0696 7.19328 12.5841 7.65945 12.0086 7.98607L11.4238 8.88763L12.7975 10.564H14.6667V5.82036C14.6667 5.64318 14.5456 5.48893 14.3735 5.4468Z" fill="#07689A"/>
    <path d="M1.81008 4.42121C1.69542 4.39311 1.57411 4.41925 1.48115 4.49217C1.38826 4.56511 1.33398 4.67667 1.33398 4.79477V8.51272H3.38526C3.48839 8.51272 3.58719 8.55412 3.65948 8.62766L5.52201 10.5218V5.33024L1.81008 4.42121Z" fill="#07689A"/>
    <path d="M9.0837 9.51081L8.26966 8.25586H8.22133L6.29102 11.565V14.3269L9.66711 13.5001V9.97068C9.43065 9.88732 9.22474 9.72826 9.0837 9.51081Z" fill="#07689A"/>
    <path d="M12.617 11.3333C12.5017 11.3333 12.3926 11.2816 12.3195 11.1924L10.9847 9.56348C10.8457 9.75423 10.6546 9.89465 10.4375 9.97111V13.4796L14.1922 14.3991C14.2224 14.4065 14.2531 14.4101 14.2836 14.4101C14.3689 14.4101 14.4527 14.3818 14.5211 14.3281C14.614 14.2552 14.6683 14.1437 14.6683 14.0255V11.3333H12.617Z" fill="#07689A"/>
    <path d="M3.22406 9.28125H1.33398V12.9992C1.33398 13.1764 1.455 13.3306 1.62711 13.3728L5.52201 14.3266V11.6182L3.22406 9.28125Z" fill="#07689A"/>
</svg>
