<svg width="61" height="50" viewBox="0 0 61 50" fill="none" xmlns="http://www.w3.org/2000/svg">
    <g opacity="0.5">
        <path opacity="0.3" d="M19.3101 22.6597C17.8355 22.2351 16.3609 22.0197 14.9265 22.0197C12.7115 22.0197 10.8632 22.5259 9.43007 23.1458C10.8117 18.0877 14.1308 9.36004 20.7426 8.37719C21.355 8.28613 21.8567 7.84337 22.0238 7.24738L23.4689 2.07875C23.5907 1.64165 23.5185 1.17377 23.2692 0.794448C23.0198 0.415123 22.6192 0.16203 22.1701 0.100484C21.6822 0.0339132 21.1848 0 20.6918 0C12.7554 0 4.89574 8.28362 1.57916 20.1444C-0.367712 27.1029 -0.938584 37.5645 3.85699 44.1493C6.54053 47.834 10.4556 49.8015 15.4936 49.9981C15.5143 49.9987 15.5344 49.9994 15.5552 49.9994C21.7713 49.9994 27.2835 45.813 28.9603 39.8198C29.962 36.2369 29.5092 32.4794 27.6842 29.237C25.8786 26.0309 22.9049 23.694 19.3101 22.6597Z" fill="#289FDD"/>
        <path opacity="0.3" d="M58.2216 29.2376C56.4161 26.0309 53.4424 23.694 49.8476 22.6597C48.373 22.2351 46.8984 22.0197 45.4646 22.0197C43.2496 22.0197 41.4007 22.5259 39.9675 23.1458C41.3492 18.0877 44.6683 9.36004 51.2807 8.37719C51.893 8.28613 52.3942 7.84337 52.5619 7.24738L54.007 2.07875C54.1288 1.64165 54.0566 1.17377 53.8073 0.794448C53.5586 0.415123 53.1579 0.16203 52.7082 0.100484C52.2209 0.0339132 51.7235 0 51.2298 0C43.2935 0 35.4338 8.28362 32.1166 20.1444C30.1704 27.1029 29.5995 37.5645 34.3957 44.1506C37.0786 47.8346 40.9943 49.8028 46.0317 49.9987C46.0524 49.9994 46.0725 50 46.0939 50C52.3094 50 57.8222 45.8136 59.499 39.8204C60.4995 36.2375 60.046 32.4794 58.2216 29.2376Z" fill="#289FDD"/>
    </g>
</svg>
