<svg width="20" height="18" viewBox="0 0 20 18" fill="none" xmlns="http://www.w3.org/2000/svg">
    <path d="M18.6429 16.7143H18V0.642857C18 0.288 17.712 0 17.3571 0H14.7857C14.4309 0 14.1429 0.288 14.1429 0.642857V16.7143H11.5714V5.78571C11.5714 5.43086 11.2834 5.14286 10.9286 5.14286H8.35714C8.00229 5.14286 7.71429 5.43086 7.71429 5.78571V16.7143H5.14286V10.9286C5.14286 10.5737 4.85486 10.2857 4.5 10.2857H1.92857C1.57371 10.2857 1.28571 10.5737 1.28571 10.9286V16.7143H0.642857C0.288 16.7143 0 17.0023 0 17.3571C0 17.712 0.288 18 0.642857 18H18.6429C18.9977 18 19.2857 17.712 19.2857 17.3571C19.2857 17.0023 18.9977 16.7143 18.6429 16.7143Z" fill="#07689A"/>
</svg>
