<svg width="100" height="100" viewBox="0 0 100 100" fill="none" xmlns="http://www.w3.org/2000/svg">
    <path d="M48.6311 16H20.9913C16.9532 16 13.6668 19.2887 13.6668 23.3244V50.4085H12.9513C11.3216 50.4085 10 51.729 10 53.3601V71.2594C10 72.8904 11.3216 74.2107 12.9513 74.2107H13.6668V77.4929C13.6668 81.5329 16.9532 84.8172 20.9912 84.8172H58.7043C62.7399 84.8172 66.0263 81.5328 66.0263 77.4929V33.3348L48.6311 16ZM14.8826 55.8187C15.9141 55.6545 17.258 55.5622 18.6766 55.5622C21.034 55.5622 22.5627 55.9853 23.7605 56.8872C25.0495 57.8455 25.8592 59.3753 25.8592 61.5664C25.8592 63.9418 24.9943 65.5816 23.7964 66.594C22.4894 67.6802 20.4999 68.1957 18.0693 68.1957C16.614 68.1957 15.5824 68.1034 14.8828 68.0112V55.8187H14.8826ZM58.7044 80.3317H20.9913C19.4277 80.3317 18.1545 79.0585 18.1545 77.4929V74.2107H53.3111C54.9408 74.2107 56.2627 72.8904 56.2627 71.2594V53.3601C56.2627 51.729 54.941 50.4085 53.3111 50.4085H18.1545V23.3244C18.1545 21.7631 19.4277 20.49 20.9913 20.49L46.953 20.4628V30.0592C46.953 32.8622 49.2273 35.1387 52.0322 35.1387L61.433 35.1117L61.5388 77.4927C61.5389 79.0585 60.2677 80.3317 58.7044 80.3317ZM27.1368 61.9531C27.1368 58.2326 29.5125 55.452 33.178 55.452C36.991 55.452 39.0717 58.3067 39.0717 61.7326C39.0717 65.802 36.604 68.2697 32.9755 68.2697C29.2921 68.2697 27.1368 65.4896 27.1368 61.9531ZM47.2746 65.9303C48.1216 65.9303 49.0606 65.7458 49.614 65.5253L50.0369 67.7165C49.5218 67.9753 48.3611 68.2519 46.8517 68.2519C42.5596 68.2519 40.3495 65.5816 40.3495 62.0456C40.3495 57.8095 43.3706 55.4521 47.127 55.4521C48.5826 55.4521 49.6871 55.7467 50.1842 56.0032L49.6139 58.2326C49.0425 57.9917 48.2506 57.7714 47.2565 57.7714C45.0271 57.7714 43.2964 59.1167 43.2964 61.879C43.2965 64.3647 44.7696 65.9303 47.2746 65.9303Z" fill="url(#paint0_linear)"/>
    <path d="M22.8754 61.6588C22.8934 59.0787 21.383 57.7178 18.9703 57.7178C18.3437 57.7178 17.9387 57.7717 17.6992 57.8278V65.9486C17.9387 66.005 18.3258 66.005 18.6757 66.005C21.2176 66.0228 22.8754 64.6236 22.8754 61.6588Z" fill="url(#paint1_linear)"/>
    <path d="M36.1068 61.8232C36.1068 59.5962 35.0383 57.6797 33.1047 57.6797C31.2073 57.6797 30.1016 59.4858 30.1016 61.8975C30.1016 64.3292 31.2443 66.041 33.1228 66.041C35.0203 66.041 36.1068 64.2367 36.1068 61.8232Z" fill="url(#paint2_linear)"/>
    <path d="M89.9998 80.2295V83.288C89.9998 83.6936 89.8386 84.0826 89.5519 84.3694C89.2651 84.6562 88.8761 84.8173 88.4705 84.8173H77.7656C77.36 84.8173 76.971 84.6562 76.6842 84.3694C76.3974 84.0826 76.2363 83.6936 76.2363 83.288V80.2295" stroke="#07689A" stroke-width="2" stroke-linecap="round" stroke-linejoin="round"/>
    <path d="M79.2949 76.4062L83.1181 80.2294L86.9413 76.4062" stroke="#07689A" stroke-width="2" stroke-linecap="round" stroke-linejoin="round"/>
    <path d="M83.1172 80.2293V71.0537" stroke="#07689A" stroke-width="2" stroke-linecap="round" stroke-linejoin="round"/>
    <defs>
        <linearGradient id="paint0_linear" x1="10" y1="50.4086" x2="66.0263" y2="50.4086" gradientUnits="userSpaceOnUse">
            <stop stop-color="#289FDD"/>
            <stop offset="1" stop-color="#07689A"/>
        </linearGradient>
        <linearGradient id="paint1_linear" x1="17.6992" y1="61.8615" x2="22.8756" y2="61.8615" gradientUnits="userSpaceOnUse">
            <stop stop-color="#289FDD"/>
            <stop offset="1" stop-color="#07689A"/>
        </linearGradient>
        <linearGradient id="paint2_linear" x1="30.1016" y1="61.8603" x2="36.1068" y2="61.8603" gradientUnits="userSpaceOnUse">
            <stop stop-color="#289FDD"/>
            <stop offset="1" stop-color="#07689A"/>
        </linearGradient>
    </defs>
</svg>
