<svg width="85" height="25" viewBox="0 0 85 25" fill="none" xmlns="http://www.w3.org/2000/svg">
<path fill-rule="evenodd" clip-rule="evenodd" d="M84.7675 0.0972705V0.0977214V0.0977773V0.0978331V0.0978889C84.7743 0.159641 84.7805 0.221114 84.7805 0.281796C84.781 1.82913 84.781 3.37647 84.781 4.92381C84.781 8.53321 84.7816 12.1426 84.7878 15.752C84.7878 15.9862 84.7034 16.1016 84.5058 16.1984C83.6845 16.6031 82.8131 16.7439 81.9074 16.7236C81.1131 16.7073 80.3577 16.5446 79.6399 16.1967C79.439 16.0999 79.3658 15.9772 79.3658 15.7464C79.3748 12.1946 79.3748 8.64276 79.3658 5.09083C79.3658 4.87861 79.4334 4.76332 79.6163 4.67911C80.8001 4.13196 82.0188 3.95813 83.291 4.32414C83.3085 4.32949 83.3259 4.33095 83.3484 4.33275C83.3569 4.33342 83.3653 4.33416 83.3749 4.33511V0C83.8365 0.00365894 84.2975 0.00365908 84.7585 0.00365908C84.7608 0.0349008 84.7642 0.0661414 84.7675 0.0972705ZM83.3749 10.4306C83.3749 10.0947 83.3749 9.7589 83.3749 9.42312C83.3743 8.24798 83.3732 7.07347 83.3805 5.89788C83.3822 5.69838 83.3146 5.61602 83.13 5.56846C82.4123 5.38179 81.7025 5.37634 80.987 5.58129C80.8221 5.62886 80.7658 5.70024 80.7658 5.87953C80.7731 8.91904 80.7731 11.9585 80.7658 14.996C80.7658 15.179 80.8277 15.2448 80.9926 15.291C81.7171 15.4886 82.4343 15.492 83.1593 15.2893C83.3276 15.2415 83.3805 15.1666 83.3788 14.9887C83.3732 13.8494 83.3738 12.7095 83.3749 11.5694V11.5692V11.5691C83.3749 11.1895 83.3749 10.81 83.3749 10.4306ZM47.4103 1.84371C47.3045 1.23047 47.1987 0.617123 47.0934 0.00360325C46.5479 0.00360325 46.0008 0.0036008 45.4553 0.00179948C45.4424 0.0708127 45.4294 0.139884 45.4165 0.208954C45.3782 0.416219 45.3393 0.623483 45.3033 0.830748C45.1699 1.61027 45.0359 2.3903 44.902 3.17033C44.768 3.95031 44.6335 4.73034 44.5 5.50986L44.4989 5.51566C44.2377 7.03074 43.9765 8.54582 43.717 10.0627L42.8715 15.0202L42.7848 15.5285L42.6227 16.4855H44.1488C44.1927 16.1877 44.2372 15.8916 44.2816 15.5961C44.3835 14.9167 44.4848 14.2428 44.5749 13.5668C44.6025 13.3641 44.674 13.318 44.8626 13.3219C45.3219 13.3287 45.7818 13.3276 46.2417 13.3264C46.414 13.3259 46.5862 13.3253 46.7585 13.3253H47.9186C47.9952 13.8421 48.0717 14.3537 48.1477 14.8626C48.2293 15.4075 48.3098 15.9496 48.3903 16.4911H49.913C49.9068 16.4506 49.9012 16.4106 49.8956 16.3712C49.877 16.244 49.859 16.123 49.8382 16.0025C49.7335 15.3957 49.6282 14.7883 49.5229 14.1815C49.3293 13.0619 49.1356 11.9424 48.9431 10.8221C48.7849 9.89529 48.6279 8.96846 48.4708 8.04156C48.3143 7.11473 48.1573 6.18783 47.9991 5.26099C47.8038 4.12211 47.6073 2.98401 47.4109 1.84568L47.4103 1.84371ZM46.1297 3.03416C46.137 2.90998 46.1449 2.7808 46.374 2.84547C46.5113 4.7269 46.8164 6.58176 47.1215 8.43954V8.43977C47.3169 9.62662 47.5122 10.8146 47.6642 12.0116H44.8552L44.956 11.3699L44.9566 11.367L44.9588 11.3513L44.9599 11.346C45.0821 10.5681 45.2042 9.79166 45.3253 9.01417C45.3827 8.64686 45.4412 8.27951 45.4992 7.9121V7.91192V7.91176V7.91159L45.4998 7.91142V7.91125V7.91108V7.91091V7.91074V7.91058V7.9104V7.91024V7.91007V7.91001V7.9099V7.90984V7.90979V7.90967V7.90962V7.90951V7.90945V7.90939V7.90928V7.90922V7.90917C45.6585 6.90847 45.8173 5.90727 45.9602 4.90416C46.0182 4.49599 46.0492 4.08366 46.0796 3.67104V3.67082C46.0942 3.47127 46.1089 3.27166 46.1269 3.07238C46.128 3.06 46.1286 3.04728 46.1297 3.0345V3.03416ZM6.20708 5.8502C5.90885 3.76409 5.28481 1.79508 4.15025 0.00354742H0V16.5041C0.320298 16.5041 0.640596 16.5035 0.960838 16.503C1.92128 16.5018 2.88128 16.5001 3.83919 16.5114C4.08073 16.5131 4.20334 16.427 4.31862 16.2333C5.47147 14.3042 6.06619 12.1982 6.28944 9.98401C6.42853 8.60785 6.40472 7.2263 6.20708 5.8502ZM1.56276 15.2156V1.29183C1.7009 1.29183 1.8378 1.29127 1.97375 1.29071H1.9738H1.97386H1.97391C2.37792 1.28896 2.77331 1.28727 3.16763 1.30101C3.25178 1.30281 3.36707 1.40897 3.40918 1.49499C3.89593 2.48313 4.22529 3.52801 4.45586 4.60216C4.8566 6.46687 4.94447 8.34801 4.72488 10.2439C4.53641 11.8853 4.13562 13.4666 3.44025 14.9707C3.35243 15.161 3.24993 15.2285 3.04131 15.2212C2.69613 15.2094 2.35 15.2116 1.99632 15.2139H1.99609H1.99581H1.99553H1.99525H1.99497H1.99469H1.9944H1.99412H1.99384H1.9935H1.99322H1.99294C1.85092 15.215 1.70766 15.2156 1.56276 15.2156ZM37.5118 0.00867099L37.5116 0.00354742H36.1282C36.1245 0.0456534 36.1208 0.0895607 36.1208 0.131667V16.2952C36.1208 16.3369 36.1262 16.3791 36.1315 16.4208H36.1315C36.1344 16.4433 36.1372 16.4658 36.1391 16.4878H37.5189V16.1928V0.259786C37.5189 0.175518 37.5154 0.0929946 37.5118 0.00878265V0.00867099ZM32.5489 9.17888V6.46146C32.5489 6.41289 32.5467 6.36391 32.5445 6.31499C32.5398 6.20917 32.535 6.10351 32.5526 6.00213C32.6056 5.69472 32.4519 5.59221 32.1811 5.52815C31.5772 5.38546 30.9862 5.39823 30.3932 5.58124C30.2377 5.6288 30.1828 5.70018 30.1865 5.86669C30.1943 6.23033 30.1929 6.59392 30.1913 6.96415C30.1907 7.11377 30.1901 7.26446 30.1901 7.41667H28.8085C28.8067 7.39342 28.8044 7.36995 28.802 7.34642C28.797 7.29762 28.792 7.24825 28.792 7.19888C28.7915 6.96043 28.7919 6.72192 28.7923 6.48353V6.48162V6.48156V6.48145V6.48139V6.48128V6.48122V6.48111V6.48105V6.481V6.48089C28.7931 6.00303 28.7939 5.52551 28.7866 5.04872C28.7847 4.87855 28.8415 4.78708 28.9879 4.70838C29.7254 4.3113 30.5158 4.14474 31.3448 4.13928C32.2012 4.13376 33.0155 4.30393 33.7768 4.71384C33.9195 4.79074 33.9781 4.87855 33.9781 5.04872C33.9726 8.6427 33.9726 12.2367 33.9763 15.8286C33.9763 15.9862 33.9305 16.0757 33.7896 16.1489C33.0741 16.5221 32.3128 16.6927 31.5095 16.7236C30.5982 16.7585 29.7345 16.6009 28.9165 16.1894C28.728 16.0943 28.653 15.9828 28.6548 15.761C28.6658 13.8578 28.664 11.9549 28.6548 10.0499C28.653 9.83765 28.7262 9.72969 28.9055 9.63636C29.8186 9.1679 30.7903 9.02334 31.8041 9.10018C31.97 9.11161 32.134 9.13086 32.3084 9.15135H32.3085H32.3087L32.3091 9.15141C32.3866 9.16053 32.4662 9.16987 32.5489 9.17888ZM30.0803 12.8902C30.0803 13.0832 30.0807 13.2763 30.0812 13.4694C30.0822 13.9845 30.0833 14.4995 30.0767 15.0146C30.0749 15.17 30.1242 15.2358 30.2706 15.2837C30.977 15.5105 31.6797 15.4886 32.3787 15.269C32.4519 15.2448 32.5434 15.1204 32.5434 15.0439C32.5492 14.1427 32.5499 13.2414 32.5505 12.3399C32.5508 11.8249 32.5512 11.3098 32.5526 10.7947C32.5526 10.652 32.5105 10.5788 32.3696 10.5385C31.6742 10.3336 30.9806 10.3189 30.2835 10.5294C30.1224 10.5769 30.0749 10.6538 30.0767 10.8185C30.0822 11.3358 30.0814 11.8532 30.0808 12.3713C30.0805 12.544 30.0803 12.7168 30.0803 12.8902ZM65.7033 4.37142H64.3056C64.3056 4.48305 64.3056 4.56906 64.3039 4.65327C64.3039 5.27118 64.3039 5.88909 64.3039 6.50701C64.3039 9.5947 64.3045 12.6825 64.2983 15.77C64.2966 15.9952 64.3771 16.1067 64.5674 16.1984C65.2845 16.5457 66.0405 16.709 66.8342 16.727C67.7512 16.7489 68.6294 16.6009 69.4585 16.1945C69.6527 16.0993 69.7203 15.9789 69.7203 15.7593C69.7141 12.6791 69.7146 9.60067 69.7146 6.52232V6.51421C69.7146 5.89878 69.7146 5.28334 69.7146 4.66791V4.3788H68.3096V15.2122C67.53 15.501 66.7537 15.4953 65.9673 15.309C65.7545 15.2595 65.6983 15.1553 65.6983 14.9392C65.7039 12.094 65.7039 9.24744 65.7039 6.40174V6.40163V6.40151V6.40146V6.40135V6.40123C65.7033 5.83196 65.7033 5.26274 65.7033 4.69352V4.37142ZM73.2334 16.4934H71.8374V16.2131C71.8374 15.5955 71.8374 14.9775 71.8374 14.3594C71.838 11.2712 71.838 8.18224 71.8318 5.09449C71.8318 4.88221 71.9016 4.77058 72.0828 4.68091C72.8765 4.28203 73.7243 4.13382 74.6041 4.13928C75.4496 4.14479 76.2602 4.30398 77.0196 4.69194C77.1806 4.77424 77.2538 4.87309 77.2538 5.06521C77.2498 8.04185 77.2498 11.0184 77.2504 13.994V14.0047V14.0053V14.0059C77.2504 14.7489 77.2504 15.492 77.2504 16.235V16.4838H75.8431V16.1804C75.8431 15.497 75.8431 14.8142 75.8431 14.1308C75.842 11.3974 75.8414 8.66443 75.8504 5.93261C75.8504 5.69472 75.7665 5.60139 75.5577 5.55382C74.7781 5.37082 74.0097 5.36902 73.2357 5.66179C73.2334 9.25943 73.2334 12.8496 73.2334 16.4602V16.4934ZM22.4642 5.66004H23.5072C23.5072 5.79728 23.5072 5.89973 23.5035 6.0059C23.5035 6.54967 23.5036 7.09339 23.5036 7.63717V7.64077C23.5039 10.3567 23.5041 13.0726 23.4981 15.7886C23.4981 15.9901 23.5639 16.0977 23.7396 16.1821C24.3947 16.4934 25.0882 16.6561 25.8056 16.7056C26.221 16.7349 26.6419 16.7219 27.0572 16.7017C27.167 16.6966 27.361 16.5992 27.3665 16.53C27.3895 16.2688 27.3865 16.0053 27.3833 15.7323C27.3823 15.6361 27.3812 15.5381 27.3812 15.439C27.3019 15.439 27.2256 15.4407 27.1514 15.4419C26.9907 15.4452 26.8396 15.448 26.6894 15.4357C26.3913 15.412 26.0931 15.3816 25.7949 15.3518C25.5862 15.331 25.3775 15.3096 25.1688 15.291C24.9547 15.2724 24.9016 15.17 24.9016 14.9578C24.9077 12.4522 24.9074 9.94793 24.9072 7.44381V7.44375C24.9071 6.9431 24.9071 6.44249 24.9071 5.94184V5.64907H27.2512V4.35532H24.8979V2.26916H23.4962V4.37362H22.4642V5.66004ZM55.5878 4.25462V5.41844C55.3057 5.43313 55.0226 5.43246 54.7389 5.43178C54.0358 5.43004 53.3305 5.42835 52.6375 5.66179V16.4878H51.2381V16.2187C51.2381 15.6012 51.2381 14.9831 51.2381 14.3656V14.365C51.2381 11.2767 51.2387 8.18775 51.2325 5.1C51.2325 4.87495 51.3113 4.76512 51.5033 4.67731C52.2187 4.34975 52.9781 4.20154 53.7538 4.16495C54.145 4.14648 54.5368 4.16686 54.9286 4.18724C55.0817 4.19523 55.2348 4.20317 55.3879 4.20885C55.4324 4.21009 55.4763 4.22298 55.5213 4.23632C55.5427 4.24274 55.5652 4.24921 55.5878 4.25462ZM9.78277 16.4838V4.38251H8.41033V16.4838H9.78277ZM20.9984 16.4951H19.6388V4.37896H20.9984V16.4951ZM9.7754 0.369554H8.41213V2.10248H9.7754V0.369554ZM19.6351 0.369554H20.9984V2.10434H19.6351V0.369554ZM62.5814 11.6227C62.5814 11.2278 62.5814 10.8329 62.5814 10.4378C62.5814 10.0433 62.5814 9.64874 62.5814 9.25402C62.5808 7.87297 62.5797 6.49102 62.587 5.10912C62.5887 4.88953 62.5178 4.76692 62.3253 4.67359C61.5698 4.30213 60.7683 4.14108 59.9301 4.13742C59.0514 4.13376 58.2042 4.28383 57.4105 4.68271C57.2236 4.77605 57.1667 4.89499 57.1667 5.09994C57.1741 8.65182 57.1741 12.2055 57.1667 15.7576C57.165 15.9772 57.2309 16.0999 57.4251 16.1928C58.1513 16.5424 58.9146 16.709 59.7179 16.7253C60.6343 16.7439 61.513 16.5975 62.3399 16.1838C62.5251 16.0926 62.5887 15.9749 62.587 15.7667C62.5797 14.3847 62.5808 13.0039 62.5814 11.6227ZM58.5706 6.00213V5.65807C59.3936 5.35613 60.2115 5.35247 61.0334 5.60685C61.0992 5.6288 61.1691 5.7679 61.1707 5.85206C61.1781 6.43698 61.1769 7.02083 61.1764 7.6053C61.1764 7.77232 61.1764 7.93934 61.1764 8.10653V14.8936V15.2139C60.3545 15.5088 59.5366 15.5122 58.717 15.2595C58.6511 15.2398 58.5887 15.1204 58.578 15.0399C58.5622 14.9212 58.565 14.7984 58.5678 14.6757C58.569 14.6268 58.5706 14.5783 58.5706 14.5294V6.00213Z" fill="white"/>
<path fill-rule="evenodd" clip-rule="evenodd" d="M17.1914 4.53534L17.1915 4.53528C17.3584 4.3972 17.5259 4.25861 17.6733 4.10088C17.8783 3.88314 18.1089 3.87943 18.3797 3.91056V5.64715H17.3238V5.96739C17.3238 6.4936 17.3235 7.01976 17.3232 7.5458V7.54597V7.54614V7.54625V7.54642V7.54659C17.3222 9.29967 17.3213 11.0522 17.3311 12.8057C17.333 13.0421 17.2561 13.1738 17.0567 13.2521C16.9409 13.2977 16.825 13.3433 16.7088 13.3888C16.6799 13.4007 16.6495 13.4131 16.6175 13.426C16.5342 13.4603 16.45 13.4919 16.3653 13.5223C16.1703 13.5983 15.9738 13.6742 15.7743 13.7514L15.7737 13.7519C15.6673 13.793 15.56 13.8347 15.4518 13.8763V15.4902C15.657 15.5448 15.8603 15.5955 16.0618 15.6461H16.0618C16.1344 15.6641 16.2068 15.6822 16.2789 15.7002C16.4794 15.7435 16.6769 15.7953 16.8714 15.8561C17.0283 15.9 17.184 15.9467 17.3384 15.9974C18.1474 16.2603 18.1474 16.2839 18.1473 17.1091V17.1317C18.1473 17.3647 18.147 17.5978 18.1466 17.8302V17.8308V17.8314C18.1456 18.5288 18.1445 19.2263 18.1528 19.9243C18.1546 20.1145 18.0906 20.2136 17.9258 20.2975C17.0201 20.7568 16.0575 20.9527 15.0456 20.9764C14.9287 20.9792 14.8122 20.9803 14.6961 20.9797C14.5799 20.9803 14.4634 20.9792 14.3466 20.9764C13.3346 20.9527 12.372 20.7568 11.4662 20.2975C11.3015 20.2136 11.2375 20.1145 11.2393 19.9243C11.2475 19.2257 11.2465 18.5283 11.2455 17.8302V17.8291C11.2451 17.5966 11.2448 17.3641 11.2448 17.1317V17.1148C11.2448 16.2845 11.2448 16.2608 12.0536 15.9974C12.208 15.9467 12.3637 15.9 12.5207 15.8561C12.7152 15.7953 12.9126 15.7435 13.1132 15.7002C13.1853 15.6822 13.2577 15.6641 13.3303 15.6461C13.5317 15.5955 13.7351 15.5448 13.9403 15.4902V13.8763C13.8321 13.8347 13.7248 13.793 13.6184 13.7519L13.6174 13.7514L13.6143 13.7502C13.4161 13.6737 13.2207 13.5977 13.0269 13.5223C12.9421 13.4919 12.8579 13.4603 12.7746 13.426L12.7317 13.4085C12.7234 13.4052 12.7152 13.4018 12.7071 13.3984C12.6991 13.395 12.6911 13.3922 12.6833 13.3888C12.5671 13.3433 12.4512 13.2977 12.3354 13.2521C12.136 13.1738 12.0591 13.0421 12.061 12.8057C12.0708 11.0522 12.0699 9.29961 12.0688 7.54647V7.54631V7.54619V7.54603V7.53871C12.0686 7.01497 12.0683 6.49124 12.0683 5.96739V5.64715H11.0124V3.91056C11.2832 3.87943 11.5138 3.88314 11.7188 4.10088C11.8662 4.25861 12.0337 4.3972 12.2006 4.53528L12.2007 4.53534L12.2007 4.53539L12.2008 4.53545H12.2008C12.2621 4.58617 12.3233 4.63677 12.3834 4.68822C12.6637 4.53595 12.9848 4.41054 13.3303 4.31811C13.7728 4.19241 14.2375 4.13578 14.6961 4.13769C15.1546 4.13578 15.6193 4.19241 16.0618 4.31811C16.4074 4.41054 16.7285 4.53595 17.0087 4.68822C17.0689 4.63672 17.1301 4.58605 17.1914 4.53534ZM13.5615 8.9447C13.5615 9.22615 13.5619 9.50761 13.5623 9.78907C13.5634 10.5397 13.5645 11.2903 13.5578 12.041C13.556 12.2166 13.6091 12.3008 13.7737 12.3502C14.0815 12.4426 14.3889 12.491 14.696 12.4949C15.0032 12.491 15.3105 12.4426 15.6184 12.3502C15.783 12.3008 15.8361 12.2166 15.8343 12.041C15.8276 11.2904 15.8287 10.5398 15.8298 9.78918V9.78631C15.8302 9.50575 15.8306 9.22525 15.8306 8.9447C15.8306 8.69077 15.8303 8.43689 15.8299 8.18296C15.8289 7.42129 15.8279 6.65955 15.8361 5.89787C15.8379 5.69657 15.7666 5.61788 15.5854 5.56479C15.2876 5.4776 14.9914 5.43189 14.6961 5.42784C14.4007 5.43189 14.1044 5.4776 13.8067 5.56479C13.6255 5.61788 13.5541 5.69657 13.556 5.89787C13.5654 6.64266 13.5639 7.3874 13.5625 8.13219C13.562 8.40301 13.5615 8.67388 13.5615 8.9447ZM12.9357 17.126C13.5227 16.9493 14.1092 16.8592 14.6961 16.8547C15.2829 16.8592 15.8694 16.9493 16.4564 17.126C16.6083 17.1722 16.6705 17.2487 16.6669 17.4171C16.6559 17.9901 16.6559 18.5609 16.6669 19.1339C16.6705 19.3056 16.601 19.3861 16.451 19.4171C16.3361 19.4413 16.2216 19.4666 16.1071 19.4925H16.107C15.8146 19.5584 15.5226 19.6237 15.2267 19.6552C15.0494 19.6743 14.8724 19.6856 14.6961 19.689C14.5197 19.6856 14.3427 19.6743 14.1654 19.6552C13.8695 19.6237 13.5774 19.5584 13.2851 19.4925H13.2851H13.285C13.1705 19.4666 13.056 19.4413 12.9411 19.4171C12.7911 19.3861 12.7215 19.3056 12.7252 19.1339C12.7362 18.5609 12.7362 17.9901 12.7252 17.4171C12.7215 17.2487 12.7837 17.1722 12.9357 17.126ZM0.0219727 18.1804H9.92549V19.1576H0.0219727V18.1804ZM85 18.1804H19.6753V19.1576H85V18.1804ZM13.5104 22.36C13.2579 22.217 13.0163 22.0797 12.7638 21.935C12.449 22.4844 12.1489 23.0113 11.8452 23.5472C11.9943 23.6311 12.1396 23.7138 12.2844 23.7966C12.3867 23.8551 12.4888 23.9136 12.5918 23.9716C12.7795 23.6429 12.964 23.3192 13.1479 22.9961C13.2687 22.7839 13.3893 22.5722 13.5104 22.36ZM16.7749 21.935C16.5223 22.0797 16.2808 22.217 16.0283 22.36C16.095 22.4771 16.1616 22.5936 16.2281 22.7107C16.2823 22.8058 16.3365 22.901 16.3908 22.9961C16.5747 23.3192 16.7592 23.6429 16.9469 23.9716C17.0499 23.9136 17.152 23.8551 17.2542 23.7966C17.3991 23.7138 17.5444 23.6311 17.6935 23.5472C17.3897 23.0113 17.0896 22.4844 16.7749 21.935ZM15.1847 24.2559H14.3265V22.4H15.1847V24.2559Z" fill="white"/>
</svg>
