<svg width="40" height="40" viewBox="0 0 40 40" fill="none" xmlns="http://www.w3.org/2000/svg">
    <rect y="0.810547" width="40" height="40" fill="url(#paint0_linear)"/>
    <g clip-path="url(#clip0)">
        <path d="M21.003 15.189C18.4508 15.189 16.3845 17.2575 16.3845 19.8075C16.3845 22.3597 18.453 24.426 21.003 24.426C23.5553 24.426 25.6215 22.3575 25.6215 19.8075C25.6215 17.2552 23.553 15.189 21.003 15.189ZM21.003 22.8052C19.3463 22.8052 18.0053 21.4635 18.0053 19.8075C18.0053 18.1515 19.347 16.8097 21.003 16.8097C22.659 16.8097 24.0008 18.1515 24.0008 19.8075C24.0015 21.4635 22.6598 22.8052 21.003 22.8052Z" fill="white"/>
        <path d="M24.7109 10.8676C23.0549 10.7903 18.9532 10.7941 17.2957 10.8676C15.8392 10.9358 14.5544 11.2876 13.5187 12.3233C11.7877 14.0543 12.0089 16.3868 12.0089 19.8076C12.0089 23.3086 11.8139 25.5871 13.5187 27.2918C15.2564 29.0288 17.6227 28.8016 21.0029 28.8016C24.4709 28.8016 25.6679 28.8038 26.8942 28.3291C28.5614 27.6818 29.8199 26.1916 29.9429 23.5148C30.0209 21.8581 30.0164 17.7571 29.9429 16.0996C29.7944 12.9398 28.0987 11.0236 24.7109 10.8676ZM27.3322 26.1466C26.1974 27.2813 24.6232 27.1801 20.9812 27.1801C17.2312 27.1801 15.7274 27.2356 14.6302 26.1353C13.3664 24.8776 13.5952 22.8578 13.5952 19.7956C13.5952 15.6518 13.1699 12.6676 17.3287 12.4546C18.2842 12.4208 18.5654 12.4096 20.9707 12.4096L21.0044 12.4321C25.0012 12.4321 28.1369 12.0136 28.3252 16.1716C28.3679 17.1203 28.3777 17.4053 28.3777 19.8068C28.3769 23.5133 28.4474 25.0261 27.3322 26.1466Z" fill="white"/>
        <path d="M25.8046 16.086C26.4006 16.086 26.8838 15.6028 26.8838 15.0067C26.8838 14.4107 26.4006 13.9275 25.8046 13.9275C25.2085 13.9275 24.7253 14.4107 24.7253 15.0067C24.7253 15.6028 25.2085 16.086 25.8046 16.086Z" fill="white"/>
    </g>
    <defs>
        <linearGradient id="paint0_linear" x1="20" y1="-19.1895" x2="-20" y2="20.8105" gradientUnits="userSpaceOnUse">
            <stop stop-color="#7029C1"/>
            <stop offset="0.511323" stop-color="#E63C7C"/>
            <stop offset="1" stop-color="#FC8023"/>
        </linearGradient>
        <clipPath id="clip0">
            <rect width="18" height="18" fill="white" transform="translate(12 10.8105)"/>
        </clipPath>
    </defs>
</svg>
