<svg width="16" height="16" viewBox="0 0 16 16" fill="none" xmlns="http://www.w3.org/2000/svg">
    <path d="M14.8323 12.6748L12.5133 10.3528C12.0514 9.89221 11.2865 9.9062 10.8086 10.3849L9.64028 11.5544C9.56647 11.5137 9.49008 11.4711 9.40975 11.426C8.67199 11.0167 7.66224 10.4557 6.59969 9.3911C5.53398 8.32422 4.97318 7.31168 4.56314 6.57254C4.51988 6.49423 4.47842 6.41874 4.43748 6.34704L5.22157 5.56315L5.60706 5.17672C6.08577 4.69729 6.09897 3.93168 5.63816 3.46974L3.31923 1.14746C2.85843 0.686173 2.09319 0.700167 1.61447 1.17959L0.96092 1.8377L0.978779 1.85546C0.759634 2.13542 0.57651 2.45832 0.440234 2.80654C0.314614 3.13799 0.236403 3.45428 0.200641 3.77122C-0.105559 6.31279 1.05444 8.63559 4.20255 11.7876C8.55418 16.1442 12.061 15.8151 12.2123 15.799C12.5418 15.7596 12.8576 15.6808 13.1785 15.556C13.5233 15.4212 13.8455 15.2381 14.125 15.0191L14.1393 15.0318L14.8014 14.3827C15.2791 13.9034 15.2929 13.1375 14.8323 12.6748Z" fill="white"/>
</svg>
