<svg width="40" height="40" viewBox="0 0 40 40" fill="none" xmlns="http://www.w3.org/2000/svg">
    <rect y="0.810547" width="40" height="40" fill="#289FDD"/>
    <g clip-path="url(#clip0)">
        <path d="M32.8728 25.3305C32.8437 25.2678 32.8166 25.2159 32.7915 25.1743C32.3751 24.4243 31.5793 23.5038 30.4047 22.4125L30.3799 22.3875L30.3675 22.3752L30.3549 22.3627H30.3423C29.8093 21.8545 29.4717 21.5128 29.3303 21.3379C29.0716 21.0046 29.0137 20.6673 29.1551 20.3255C29.2549 20.0673 29.6301 19.522 30.2797 18.6888C30.6214 18.2472 30.892 17.8933 31.0918 17.6267C32.5331 15.7106 33.158 14.4861 32.9663 13.9529L32.8919 13.8283C32.8418 13.7533 32.7127 13.6847 32.5047 13.6221C32.2962 13.5596 32.0297 13.5493 31.7047 13.5909L28.106 13.6158C28.0477 13.5951 27.9645 13.5971 27.856 13.6221C27.7477 13.6471 27.6935 13.6597 27.6935 13.6597L27.6309 13.691L27.5812 13.7286C27.5395 13.7534 27.4937 13.7972 27.4436 13.8597C27.3939 13.9219 27.3523 13.995 27.319 14.0783C26.9272 15.0863 26.4817 16.0235 25.9818 16.8898C25.6735 17.4064 25.3904 17.8541 25.1319 18.2332C24.8737 18.6121 24.6571 18.8913 24.4823 19.0703C24.3073 19.2494 24.1493 19.3929 24.0074 19.5013C23.8657 19.6098 23.7575 19.6556 23.6827 19.6388C23.6076 19.6221 23.5369 19.6054 23.47 19.5888C23.3534 19.5138 23.2597 19.4118 23.189 19.2827C23.118 19.1535 23.0702 18.991 23.0452 18.7953C23.0204 18.5994 23.0057 18.4309 23.0015 18.2892C22.9976 18.1477 22.9994 17.9475 23.0078 17.6893C23.0165 17.431 23.0204 17.2562 23.0204 17.1645C23.0204 16.8479 23.0265 16.5043 23.0389 16.1336C23.0515 15.7629 23.0617 15.4691 23.0703 15.2528C23.0788 15.0362 23.0827 14.807 23.0827 14.5654C23.0827 14.3238 23.068 14.1343 23.0389 13.9968C23.0102 13.8595 22.9661 13.7262 22.9081 13.5969C22.8496 13.4678 22.7641 13.3679 22.6519 13.297C22.5395 13.2262 22.3997 13.17 22.2333 13.1283C21.7917 13.0283 21.2295 12.9743 20.5462 12.9659C18.9968 12.9493 18.0013 13.0493 17.5597 13.2659C17.3848 13.3574 17.2265 13.4825 17.085 13.6406C16.935 13.824 16.914 13.924 17.0223 13.9405C17.5222 14.0154 17.8761 14.1945 18.0844 14.4777L18.1595 14.6278C18.2179 14.7361 18.2762 14.9278 18.3345 15.2026C18.3928 15.4775 18.4304 15.7816 18.4469 16.1146C18.4885 16.7229 18.4885 17.2435 18.4469 17.6766C18.4052 18.1099 18.3658 18.4472 18.3282 18.6888C18.2906 18.9304 18.2344 19.1262 18.1595 19.2761C18.0844 19.426 18.0345 19.5177 18.0094 19.5509C17.9845 19.5842 17.9636 19.6052 17.9471 19.6134C17.8388 19.6549 17.7262 19.676 17.6096 19.676C17.4929 19.676 17.3514 19.6176 17.1848 19.501C17.0183 19.3843 16.8454 19.224 16.6663 19.0199C16.4871 18.8157 16.2851 18.5304 16.0601 18.1639C15.8353 17.7974 15.602 17.3642 15.3604 16.8644L15.1605 16.5019C15.0356 16.2687 14.8649 15.9292 14.6483 15.4836C14.4315 15.0378 14.24 14.6066 14.0734 14.1901C14.0069 14.0152 13.9069 13.882 13.7736 13.7903L13.711 13.7527C13.6695 13.7195 13.6027 13.6841 13.5112 13.6465C13.4195 13.6089 13.3238 13.582 13.2237 13.5654L9.79989 13.5902C9.45001 13.5902 9.21262 13.6695 9.08762 13.8278L9.0376 13.9027C9.0126 13.9444 9 14.011 9 14.1027C9 14.1943 9.02499 14.3068 9.07502 14.44C9.57484 15.6147 10.1184 16.7476 10.7056 17.8389C11.2929 18.9302 11.8032 19.8093 12.2363 20.4753C12.6695 21.1418 13.111 21.7709 13.5609 22.3622C14.0108 22.9537 14.3085 23.3328 14.4542 23.4993C14.6001 23.6661 14.7147 23.7909 14.798 23.8742L15.1104 24.174C15.3104 24.374 15.604 24.6135 15.9913 24.8925C16.3788 25.1717 16.8078 25.4465 17.2784 25.7175C17.7492 25.988 18.2969 26.2088 18.9217 26.3795C19.5465 26.5504 20.1546 26.619 20.7461 26.5859H22.1832C22.4746 26.5608 22.6954 26.4691 22.8455 26.3109L22.8952 26.2483C22.9286 26.1986 22.9599 26.1213 22.9888 26.0174C23.0181 25.9133 23.0326 25.7986 23.0326 25.6738C23.0241 25.3156 23.0513 24.9929 23.1136 24.7055C23.1759 24.4182 23.2469 24.2016 23.3263 24.0557C23.4057 23.91 23.4952 23.787 23.5949 23.6873C23.6947 23.5874 23.7659 23.5268 23.8077 23.506C23.8491 23.485 23.8823 23.4708 23.9073 23.4623C24.1072 23.3957 24.3425 23.4602 24.6135 23.6561C24.8843 23.8519 25.1383 24.0936 25.3758 24.3809C25.6133 24.6684 25.8985 24.9911 26.2317 25.3492C26.5651 25.7075 26.8566 25.9738 27.1064 26.149L27.3562 26.2989C27.523 26.399 27.7396 26.4906 28.0063 26.5739C28.2724 26.6572 28.5056 26.678 28.7058 26.6364L31.9046 26.5865C32.221 26.5865 32.4672 26.5341 32.6419 26.4302C32.8168 26.326 32.9208 26.2113 32.9543 26.0865C32.9877 25.9616 32.9895 25.8199 32.9607 25.6615C32.931 25.5034 32.9018 25.3929 32.8728 25.3305Z" fill="white"/>
    </g>
    <defs>
        <clipPath id="clip0">
            <rect width="24" height="24" fill="white" transform="translate(9 7.81055)"/>
        </clipPath>
    </defs>
</svg>
