<svg width="40" height="40" viewBox="0 0 40 40" fill="none" xmlns="http://www.w3.org/2000/svg">
    <rect y="0.810547" width="40" height="40" fill="#F31919"/>
    <path d="M30.7747 15.187C30.5154 14.2231 29.7554 13.4632 28.7916 13.2037C27.0309 12.7219 19.988 12.7219 19.988 12.7219C19.988 12.7219 12.9454 12.7219 11.1847 13.1854C10.2394 13.4447 9.46091 14.2232 9.20163 15.187C8.73828 16.9475 8.73828 20.5987 8.73828 20.5987C8.73828 20.5987 8.73828 24.2683 9.20163 26.0104C9.46118 26.9742 10.2209 27.7341 11.1848 27.9936C12.9639 28.4755 19.9883 28.4755 19.9883 28.4755C19.9883 28.4755 27.0309 28.4755 28.7916 28.012C29.7555 27.7526 30.5154 26.9928 30.7749 26.029C31.2381 24.2683 31.2381 20.6172 31.2381 20.6172C31.2381 20.6172 31.2567 16.9475 30.7747 15.187ZM17.7457 23.9718V17.2256L23.6022 20.5987L17.7457 23.9718Z" fill="white"/>
</svg>
