<svg width="22" height="20" viewBox="0 0 22 20" fill="none" xmlns="http://www.w3.org/2000/svg">
    <path d="M20.9415 18.5714H20.2264V0.714286C20.2264 0.32 19.9061 0 19.5114 0H16.6513C16.2566 0 15.9362 0.32 15.9362 0.714286V18.5714H13.0761V6.42857C13.0761 6.03429 12.7558 5.71429 12.3611 5.71429H9.50097C9.10627 5.71429 8.78594 6.03429 8.78594 6.42857V18.5714H5.92581V12.1429C5.92581 11.7486 5.60548 11.4286 5.21078 11.4286H2.35066C1.95596 11.4286 1.63563 11.7486 1.63563 12.1429V18.5714H0.920597C0.5259 18.5714 0.205566 18.8914 0.205566 19.2857C0.205566 19.68 0.5259 20 0.920597 20H20.9415C21.3362 20 21.6565 19.68 21.6565 19.2857C21.6565 18.8914 21.3362 18.5714 20.9415 18.5714Z" fill="#07689A"/>
</svg>
