<svg width="50" height="36" viewBox="0 0 50 36" fill="none" xmlns="http://www.w3.org/2000/svg">
    <path d="M43.3146 0H6.68535C2.99902 0 0 2.99902 0 6.68545V28.6512C0 32.3375 2.99902 35.3365 6.68535 35.3365H43.3146C47.001 35.3365 50 32.3375 50 28.6512V6.68545C50 2.99902 47.001 0 43.3146 0ZM46.7392 28.6511C46.7392 30.5395 45.2029 32.0757 43.3147 32.0757H6.68535C4.79707 32.0757 3.26094 30.5395 3.26094 28.6511V11.7051H46.7392V28.6511ZM46.7392 8.44424H3.26084V6.68535C3.26084 4.79707 4.79707 3.26094 6.68525 3.26094H43.3145C45.2028 3.26094 46.739 4.79717 46.739 6.68535V8.44424H46.7392Z" fill="url(#paint0_linear)"/>
    <path d="M38.7174 16.0381C37.7815 16.0381 36.8741 16.2444 36.0447 16.6412C35.2154 16.2444 34.308 16.0381 33.3723 16.0381C29.9459 16.0381 27.1582 18.8257 27.1582 22.252C27.1582 25.6782 29.9458 28.466 33.3723 28.466C34.3081 28.466 35.2154 28.2597 36.0447 27.8629C36.8741 28.2597 37.7814 28.466 38.7174 28.466C42.1438 28.466 44.9314 25.6784 44.9314 22.252C44.9314 18.8255 42.1438 16.0381 38.7174 16.0381ZM38.7174 25.2052C38.0958 25.2052 37.5009 25.0136 36.9967 24.6511L36.0447 23.9664L35.0928 24.6511C34.5888 25.0136 33.9938 25.2052 33.3723 25.2052C31.7439 25.2052 30.4191 23.8804 30.4191 22.2521C30.4191 20.6237 31.7439 19.299 33.3723 19.299C33.9938 19.299 34.5888 19.4906 35.0928 19.8531L36.0447 20.5378L36.9967 19.8531C37.5007 19.4906 38.0957 19.299 38.7173 19.299C40.3456 19.299 41.6704 20.6238 41.6704 22.2521C41.6704 23.8803 40.3458 25.2052 38.7174 25.2052Z" fill="url(#paint1_linear)"/>
    <path d="M18.2244 17.6279H6.69727V20.8888H18.2244V17.6279Z" fill="url(#paint2_linear)"/>
    <path d="M21.9146 23.6152H6.69727V26.8761H21.9146V23.6152Z" fill="url(#paint3_linear)"/>
    <defs>
        <linearGradient id="paint0_linear" x1="0" y1="17.6683" x2="50" y2="17.6683" gradientUnits="userSpaceOnUse">
            <stop stop-color="#289FDD"/>
            <stop offset="1" stop-color="#07689A"/>
        </linearGradient>
        <linearGradient id="paint1_linear" x1="27.1582" y1="22.2521" x2="44.9314" y2="22.2521" gradientUnits="userSpaceOnUse">
            <stop stop-color="#289FDD"/>
            <stop offset="1" stop-color="#07689A"/>
        </linearGradient>
        <linearGradient id="paint2_linear" x1="6.69727" y1="19.2583" x2="18.2244" y2="19.2583" gradientUnits="userSpaceOnUse">
            <stop stop-color="#289FDD"/>
            <stop offset="1" stop-color="#07689A"/>
        </linearGradient>
        <linearGradient id="paint3_linear" x1="6.69727" y1="25.2457" x2="21.9146" y2="25.2457" gradientUnits="userSpaceOnUse">
            <stop stop-color="#289FDD"/>
            <stop offset="1" stop-color="#07689A"/>
        </linearGradient>
    </defs>
</svg>
