<svg width="20" height="21" viewBox="0 0 20 21" fill="none" xmlns="http://www.w3.org/2000/svg">
    <path d="M19.8268 9.23954C19.7593 8.81369 19.3616 8.52358 18.9385 8.59152C18.5154 8.65946 18.2272 9.05978 18.2947 9.48564C18.2954 9.49031 18.2962 9.49493 18.297 9.49955C19.087 14.1804 15.9575 18.6196 11.307 19.4148C6.65646 20.21 2.2461 17.06 1.4561 12.3791C0.666099 7.69817 3.79569 3.25898 8.44615 2.46382C11.3061 1.97482 14.2171 2.98035 16.1761 5.13393L12.7395 6.28641C12.333 6.42257 12.1131 6.86462 12.2483 7.27382C12.2484 7.27392 12.2484 7.27405 12.2485 7.27414C12.3837 7.68335 12.8229 7.90465 13.2295 7.76854C13.2296 7.76849 13.2297 7.76844 13.2298 7.76844L17.8843 6.2068C18.2012 6.10057 18.415 5.80204 18.415 5.46581V0.780843C18.415 0.349588 18.0676 0 17.6392 0C17.2107 0 16.8634 0.349588 16.8634 0.780843V3.63318C12.8683 -0.191471 6.54928 -0.0321176 2.74946 3.98908C-1.05036 8.01029 -0.892082 14.3706 3.10305 18.1953C7.09819 22.02 13.4172 21.8607 17.2171 17.8394C19.3838 15.5464 20.3508 12.3599 19.8268 9.23954Z" fill="#002538"/>
</svg>
