<svg width="50" height="50" viewBox="0 0 50 50" fill="none" xmlns="http://www.w3.org/2000/svg">
    <path d="M45.6055 20.7031H44.043V19.2383C44.043 14.1439 42.0649 9.32998 38.4732 5.68311C34.8639 2.01826 30.079 0 25 0C19.921 0 15.1361 2.01826 11.5268 5.68311C7.93506 9.32998 5.95703 14.1439 5.95703 19.2383V20.7031H4.39453C1.97139 20.7031 0 22.6745 0 25.0977V33.8867C0 36.3099 1.97139 38.2812 4.39453 38.2812H6.20898C6.81367 39.9861 8.44189 41.2109 10.3516 41.2109C12.7747 41.2109 14.7461 39.2396 14.7461 36.8164V22.168C14.7461 19.7448 12.7747 17.7734 10.3516 17.7734C9.85498 17.7734 9.37783 17.8574 8.93223 18.01C9.55479 9.58896 16.5233 2.92969 25 2.92969C33.4767 2.92969 40.4452 9.58896 41.0678 18.01C40.6222 17.8574 40.145 17.7734 39.6484 17.7734C37.2253 17.7734 35.2539 19.7448 35.2539 22.168V36.8164C35.2539 38.7261 36.4786 40.3543 38.1836 40.959V42.6758C38.1836 43.4835 37.5265 44.1406 36.7188 44.1406H29.1426C28.5379 42.4357 26.9097 41.2109 25 41.2109C22.5769 41.2109 20.6055 43.1823 20.6055 45.6055C20.6055 48.0286 22.5769 50 25 50C26.9097 50 28.5379 48.7752 29.1426 47.0703H36.7188C39.1419 47.0703 41.1133 45.0989 41.1133 42.6758V40.959C42.3598 40.5169 43.3489 39.5277 43.791 38.2812H45.6055C48.0286 38.2812 50 36.3099 50 33.8867V25.0977C50 22.6745 48.0286 20.7031 45.6055 20.7031ZM5.95703 35.3516H4.39453C3.58682 35.3516 2.92969 34.6944 2.92969 33.8867V25.0977C2.92969 24.2899 3.58682 23.6328 4.39453 23.6328H5.95703V35.3516ZM10.3516 20.7031C11.1593 20.7031 11.8164 21.3603 11.8164 22.168V36.8164C11.8164 37.6241 11.1593 38.2812 10.3516 38.2812C9.54385 38.2812 8.88672 37.6241 8.88672 36.8164V22.168C8.88672 21.3603 9.54385 20.7031 10.3516 20.7031ZM25 47.0703C24.1923 47.0703 23.5352 46.4132 23.5352 45.6055C23.5352 44.7978 24.1923 44.1406 25 44.1406C25.8077 44.1406 26.4648 44.7978 26.4648 45.6055C26.4648 46.4132 25.8077 47.0703 25 47.0703ZM41.1133 36.8164C41.1133 37.6241 40.4562 38.2812 39.6484 38.2812C38.8407 38.2812 38.1836 37.6241 38.1836 36.8164V22.168C38.1836 21.3603 38.8407 20.7031 39.6484 20.7031C40.4562 20.7031 41.1133 21.3603 41.1133 22.168V36.8164ZM47.0703 33.8867C47.0703 34.6944 46.4132 35.3516 45.6055 35.3516H44.043V23.6328H45.6055C46.4132 23.6328 47.0703 24.2899 47.0703 25.0977V33.8867Z" fill="url(#paint0_linear)"/>
    <defs>
        <linearGradient id="paint0_linear" x1="0" y1="25" x2="50" y2="25" gradientUnits="userSpaceOnUse">
            <stop stop-color="#289FDD"/>
            <stop offset="1" stop-color="#07689A"/>
        </linearGradient>
    </defs>
</svg>
