<svg width="50" height="44" viewBox="0 0 50 44" fill="none" xmlns="http://www.w3.org/2000/svg">
    <path d="M48.5352 0H13.2812C12.4723 0 11.8164 0.655859 11.8164 1.46484V20.6038C9.85615 20.9397 8.04854 21.9396 6.72412 23.4375H5.95703V21.9727C5.95703 21.1637 5.30117 20.5078 4.49219 20.5078H1.46484C0.655859 20.5078 0 21.1637 0 21.9727C0 22.7816 0.655859 23.4375 1.46484 23.4375H3.02734V41.0156H1.46484C0.655859 41.0156 0 41.6715 0 42.4805C0 43.2895 0.655859 43.9453 1.46484 43.9453H4.49219C5.30117 43.9453 5.95703 43.2895 5.95703 42.4805V41.0156H7.19385C16.5359 43.9724 16.1829 43.9453 16.6016 43.9453H36.7188C39.7492 43.9453 41.8721 40.9357 40.8613 38.0859H48.5352C49.3441 38.0859 50 37.4301 50 36.6211V1.46484C50 0.655859 49.3441 0 48.5352 0ZM27.9297 2.92969H33.7891V10.2539H27.9297V2.92969ZM38.1836 39.5508C38.1836 40.3585 37.5265 41.0156 36.7188 41.0156H16.8296C7.4876 38.0589 7.84062 38.0859 7.42188 38.0859H5.95703V26.3672H7.42188C7.88711 26.3672 8.32471 26.1462 8.60078 25.7718C10.9208 22.6261 15.6398 22.6235 17.9616 25.7718C18.2378 26.1462 18.6754 26.3672 19.1406 26.3672H26.4648C27.2726 26.3672 27.9297 27.0243 27.9297 27.832C27.9297 28.6397 27.2726 29.2969 26.4648 29.2969H17.6758C16.8668 29.2969 16.2109 29.9527 16.2109 30.7617C16.2109 34.8003 19.4966 38.0859 23.5352 38.0859H36.7188C37.5265 38.0859 38.1836 38.7431 38.1836 39.5508ZM47.0703 35.1562C46.1822 35.1562 24.7417 35.1562 23.5352 35.1562C21.6254 35.1562 19.9962 33.9317 19.3916 32.2266H26.4648C28.888 32.2266 30.8594 30.2552 30.8594 27.832C30.8594 25.4089 28.888 23.4375 26.4648 23.4375H19.8384C18.5141 21.9396 16.7063 20.9397 14.7461 20.6038V2.92969H25V11.7188C25 12.5277 25.6559 13.1836 26.4648 13.1836H35.2539C36.0629 13.1836 36.7188 12.5277 36.7188 11.7188V2.92969H47.0703V35.1562Z" fill="url(#paint0_linear)"/>
    <defs>
        <linearGradient id="paint0_linear" x1="0" y1="21.9727" x2="50" y2="21.9727" gradientUnits="userSpaceOnUse">
            <stop stop-color="#289FDD"/>
            <stop offset="1" stop-color="#07689A"/>
        </linearGradient>
    </defs>
</svg>
