<svg width="50" height="50" viewBox="0 0 50 50" fill="none" xmlns="http://www.w3.org/2000/svg">
    <path d="M42.6758 36.8164V7.25176C42.6758 3.25313 39.4227 0 35.4241 0H5.07812V0.00126953C2.27363 0.0276367 0 2.31631 0 5.12695V13.1836H7.32422V16.4313C3.17275 17.1309 0 20.7504 0 25.0977C0 27.6949 1.13271 30.0321 2.92969 31.6426V43.948L7.32422 41.0184V42.7483C7.32422 46.747 10.5773 50 14.5759 50H44.9219V49.9987C47.7264 49.9723 50 47.6837 50 44.873V36.8164H42.6758ZM2.92969 5.12695C2.92969 3.91543 3.91533 2.92969 5.12695 2.92969C6.33857 2.92969 7.32422 3.91543 7.32422 5.12695V10.2539H2.92969V5.12695ZM8.78906 19.2383C12.0199 19.2383 14.6484 21.8668 14.6484 25.0977C14.6484 28.3285 12.0199 30.957 8.78906 30.957C5.5582 30.957 2.92969 28.3285 2.92969 25.0977C2.92969 21.8668 5.5582 19.2383 8.78906 19.2383ZM5.85938 33.384C7.70068 34.0371 9.77979 34.0718 11.7188 33.384V38.4739L8.78906 36.5208L5.85938 38.4739V33.384ZM10.2539 42.7482V41.0183L14.6484 43.9479V31.6426C16.4454 30.0322 17.5781 27.6949 17.5781 25.0977C17.5781 20.7504 14.4054 17.1309 10.2539 16.4313C10.2539 15.209 10.2539 6.52344 10.2539 5.12695C10.2539 4.34102 10.0757 3.59609 9.7582 2.92969H35.4241C37.8072 2.92969 39.7461 4.86856 39.7461 7.25176V44.873C39.7461 45.659 39.9243 46.4039 40.2418 47.0703H14.5759C12.1928 47.0703 10.2539 45.1315 10.2539 42.7482ZM47.0703 44.873C47.0703 46.0846 46.0846 47.0703 44.873 47.0703C43.6615 47.0703 42.6758 46.0846 42.6758 44.873V39.7461H47.0703V44.873Z" fill="url(#paint0_linear)"/>
    <path d="M21.9727 8.78906H35.1562V11.7188H21.9727V8.78906Z" fill="url(#paint1_linear)"/>
    <path d="M21.9727 16.3086H35.1562V19.2383H21.9727V16.3086Z" fill="url(#paint2_linear)"/>
    <path d="M21.9727 23.6328H35.1562V26.5625H21.9727V23.6328Z" fill="url(#paint3_linear)"/>
    <path d="M21.9727 30.957H35.1562V33.8867H21.9727V30.957Z" fill="url(#paint4_linear)"/>
    <path d="M21.9727 38.2812H35.1562V41.2109H21.9727V38.2812Z" fill="url(#paint5_linear)"/>
    <defs>
        <linearGradient id="paint0_linear" x1="0" y1="25" x2="50" y2="25" gradientUnits="userSpaceOnUse">
            <stop stop-color="#289FDD"/>
            <stop offset="1" stop-color="#07689A"/>
        </linearGradient>
        <linearGradient id="paint1_linear" x1="21.9727" y1="10.2539" x2="35.1562" y2="10.2539" gradientUnits="userSpaceOnUse">
            <stop stop-color="#289FDD"/>
            <stop offset="1" stop-color="#07689A"/>
        </linearGradient>
        <linearGradient id="paint2_linear" x1="21.9727" y1="17.7734" x2="35.1562" y2="17.7734" gradientUnits="userSpaceOnUse">
            <stop stop-color="#289FDD"/>
            <stop offset="1" stop-color="#07689A"/>
        </linearGradient>
        <linearGradient id="paint3_linear" x1="21.9727" y1="25.0977" x2="35.1562" y2="25.0977" gradientUnits="userSpaceOnUse">
            <stop stop-color="#289FDD"/>
            <stop offset="1" stop-color="#07689A"/>
        </linearGradient>
        <linearGradient id="paint4_linear" x1="21.9727" y1="32.4219" x2="35.1562" y2="32.4219" gradientUnits="userSpaceOnUse">
            <stop stop-color="#289FDD"/>
            <stop offset="1" stop-color="#07689A"/>
        </linearGradient>
        <linearGradient id="paint5_linear" x1="21.9727" y1="39.7461" x2="35.1562" y2="39.7461" gradientUnits="userSpaceOnUse">
            <stop stop-color="#289FDD"/>
            <stop offset="1" stop-color="#07689A"/>
        </linearGradient>
    </defs>
</svg>
