<svg width="24" height="24" viewBox="0 0 24 24" fill="none" xmlns="http://www.w3.org/2000/svg">
    <path d="M21.5516 17.4136L18.4629 14.3879C17.8477 13.7878 16.8289 13.806 16.1923 14.4298L14.6362 15.9537C14.5379 15.9006 14.4361 15.8451 14.3291 15.7863C13.3465 15.253 12.0015 14.5221 10.5863 13.1348C9.16682 11.7446 8.41986 10.4253 7.87372 9.46215C7.81609 9.36012 7.76087 9.26174 7.70634 9.16832L8.75071 8.14689L9.26416 7.64335C9.90178 7.01865 9.91936 6.02103 9.30559 5.41911L6.2169 2.39311C5.60313 1.79204 4.58387 1.81027 3.94626 2.43498L3.07576 3.29252L3.09955 3.31565C2.80766 3.68046 2.56375 4.10121 2.38223 4.55493C2.21491 4.98683 2.11074 5.39897 2.06311 5.81195C1.65527 9.12369 3.20033 12.1504 7.39342 16.2575C13.1896 21.9344 17.8605 21.5055 18.062 21.4846C18.5008 21.4332 18.9214 21.3305 19.3489 21.1679C19.8081 20.9922 20.2374 20.7536 20.6096 20.4683L20.6286 20.4849L21.5105 19.639C22.1468 19.0144 22.1651 18.0165 21.5516 17.4136Z" fill="#07689A"/>
</svg>
