<svg width="17" height="13" viewBox="0 0 17 13" fill="none" xmlns="http://www.w3.org/2000/svg">
    <path d="M1.65956 0C0.742925 0 0 0.742925 0 1.65954C0 2.57615 0.742925 3.3191 1.65956 3.3191C2.57617 3.3191 3.3191 2.57617 3.3191 1.65954C3.3191 0.742898 2.57617 0 1.65956 0ZM1.65956 4.42544C0.742925 4.42544 0 5.16839 0 6.085C0 7.00164 0.742925 7.74456 1.65956 7.74456C2.57617 7.74456 3.3191 7.00164 3.3191 6.085C3.3191 5.16839 2.57617 4.42544 1.65956 4.42544ZM1.65956 8.85093C0.742925 8.85093 0 9.59383 0 10.5104C0 11.4271 0.742925 12.17 1.65956 12.17C2.57617 12.17 3.3191 11.4271 3.3191 10.5104C3.3191 9.59383 2.57617 8.85093 1.65956 8.85093ZM6.085 2.7659H14.9359C15.5472 2.7659 16.0423 2.27079 16.0423 1.65954C16.0423 1.04828 15.5472 0.55317 14.9359 0.55317H6.085C5.47374 0.55317 4.97863 1.04828 4.97863 1.65954C4.97863 2.27079 5.47374 2.7659 6.085 2.7659ZM14.9359 4.97863H6.085C5.47374 4.97863 4.97863 5.47374 4.97863 6.085C4.97863 6.69626 5.47374 7.19137 6.085 7.19137H14.9359C15.5472 7.19137 16.0423 6.69626 16.0423 6.085C16.0423 5.47374 15.5472 4.97863 14.9359 4.97863ZM14.9359 9.4041H6.085C5.47374 9.4041 4.97863 9.89918 4.97863 10.5104C4.97863 11.1217 5.47374 11.6168 6.085 11.6168H14.9359C15.5472 11.6168 16.0423 11.1217 16.0423 10.5104C16.0423 9.89918 15.5472 9.4041 14.9359 9.4041Z" fill="#07689A"/>
</svg>
