<svg width="23" height="20" viewBox="0 0 23 20" fill="none" xmlns="http://www.w3.org/2000/svg">
    <path fill-rule="evenodd" clip-rule="evenodd" d="M21.8245 3.41829C21.4284 2.95136 20.8274 2.69146 20.2036 2.69146H6.66704C6.28002 2.69146 5.91121 2.79718 5.59249 2.9866L4.90041 0.647537C4.78658 0.264301 4.42688 0 4.0171 0H2.96532H0.957376C0.57491 0 0.260742 0.299541 0.260742 0.673967V0.744447C0.260742 1.11447 0.570357 1.41841 0.957376 1.41841H3.5891L4.93228 6.01284L6.78087 12.3517C5.72909 12.6072 4.9505 13.5278 4.9505 14.6202C4.9505 15.8581 5.94764 16.8756 7.20886 16.9549C7.10414 17.2456 7.05406 17.5672 7.08137 17.8976C7.17244 19.0164 8.11494 19.9195 9.27144 19.9944C10.6511 20.0869 11.803 19.0253 11.803 17.7126C11.803 17.4483 11.7575 17.1972 11.671 16.9593H14.4393C14.3254 17.2721 14.2799 17.6201 14.3209 17.9769C14.4484 19.0605 15.3727 19.9151 16.5019 19.9944C17.8815 20.0869 19.038 19.0297 19.038 17.7126C19.038 16.4395 17.9452 15.422 16.6339 15.422H7.38644C6.93567 15.422 6.55321 15.0828 6.535 14.6511C6.51678 14.193 6.89469 13.8185 7.36367 13.8185H8.75238H16.2788H18.396C19.3339 13.8185 20.1535 13.1974 20.3812 12.3164L22.2206 5.15387C22.38 4.53716 22.2343 3.90725 21.8245 3.41829ZM16.674 16.9549C17.1016 16.9549 17.4518 17.2941 17.4518 17.7082C17.4518 18.1222 17.1016 18.4614 16.674 18.4614C16.2465 18.4614 15.8962 18.1222 15.8962 17.7082C15.8962 17.2941 16.2419 16.9549 16.674 16.9549ZM10.2169 17.7082C10.2169 17.2941 9.8667 16.9549 9.43915 16.9549C9.00705 16.9549 8.66138 17.2941 8.66138 17.7082C8.66138 18.1222 9.0116 18.4614 9.43915 18.4614C9.8667 18.4614 10.2169 18.1222 10.2169 17.7082ZM6.58051 6.00406L6.22533 4.79268C6.17069 4.60767 6.2481 4.47111 6.30274 4.40504C6.35283 4.33896 6.47122 4.22884 6.66703 4.22884H8.15149L8.55676 6.00846H6.58051V6.00406ZM8.90284 7.53697H7.02673L7.50487 9.18445H9.27625L8.90284 7.53697ZM8.75244 12.2768C8.54754 12.2768 8.36541 12.1446 8.31077 11.9508L7.95105 10.7174H9.62213L9.97729 12.2724H8.75244V12.2768ZM11.5977 12.2768H12.712V10.7218H11.2429L11.5977 12.2768ZM12.7183 9.18445H10.897L10.5237 7.53697H12.7183V9.18445ZM10.1776 6.00403H12.7181V4.2244H9.77234L10.1776 6.00403ZM15.5579 12.2768H14.3071V10.7218H15.8945L15.5579 12.2768ZM14.3071 9.18445H16.2332L16.5929 7.53697H14.3071V9.18445ZM14.3071 6.00403V4.2244H17.3123L16.9252 6.00403H14.3071ZM18.3999 12.2812C18.6138 12.2812 18.7958 12.1402 18.8459 11.942L19.1599 10.7262H17.5215L17.1802 12.2812H18.3999ZM19.5525 9.18445H17.8541L18.2138 7.53697H19.976L19.5525 9.18445ZM20.3675 5.99963L20.6817 4.77503C20.7318 4.59443 20.6498 4.45787 20.5952 4.3918C20.5451 4.32572 20.4313 4.22 20.2355 4.22H18.9333L18.5463 5.99963H20.3675Z" fill="#07689A"/>
</svg>
