<svg width="18" height="18" viewBox="0 0 18 18" fill="none" xmlns="http://www.w3.org/2000/svg">
<path d="M10.0797 13.0943C10.0595 12.8027 9.80667 12.5827 9.51508 12.603C9.2235 12.6232 9.0035 12.876 9.02375 13.1676L9.05914 13.6776C9.07936 13.9688 9.33171 14.1891 9.62379 14.1689C9.91538 14.1486 10.1354 13.8959 10.1151 13.6042L10.0797 13.0943Z" fill="url(#paint0_linear)"/>
<path d="M12.5881 11.7913C12.4701 11.5239 12.1577 11.4028 11.8903 11.5208C11.6228 11.6387 11.5017 11.9512 11.6197 12.2186L11.8138 12.6585C11.9317 12.9259 12.2441 13.0471 12.5116 12.9291C12.779 12.8111 12.9002 12.4987 12.7822 12.2313L12.5881 11.7913Z" fill="url(#paint1_linear)"/>
<path d="M15.039 10.5137C14.8374 10.3022 14.5023 10.2942 14.2908 10.496C14.0792 10.6977 14.0713 11.0327 14.273 11.2442L14.6258 11.6141C14.8274 11.8256 15.1625 11.8337 15.374 11.6319C15.5856 11.4302 15.5935 11.0951 15.3918 10.8836L15.039 10.5137Z" fill="url(#paint2_linear)"/>
<path d="M9.44759 15.829C9.15565 15.8432 8.93054 16.0915 8.94479 16.3834L8.97059 16.9112C8.98484 17.2031 9.23313 17.4282 9.52504 17.4139C9.81698 17.3997 10.0421 17.1514 10.0278 16.8595L10.002 16.3318C9.98779 16.0398 9.73939 15.8149 9.44759 15.829Z" fill="url(#paint3_linear)"/>
<path d="M12.5225 15.0859C12.4394 14.8056 12.1449 14.6458 11.8646 14.7289C11.5844 14.812 11.4245 15.1065 11.5076 15.3868L11.6489 15.8635C11.7321 16.1441 12.0269 16.3035 12.3068 16.2205C12.5871 16.1374 12.7469 15.8429 12.6638 15.5626L12.5225 15.0859Z" fill="url(#paint4_linear)"/>
<path d="M15.0099 13.8415C14.8589 13.5912 14.5336 13.5107 14.2833 13.6617C14.033 13.8127 13.9525 14.138 14.1035 14.3883L14.3603 14.8141C14.5113 15.0643 14.8366 15.1449 15.0869 14.9939C15.3372 14.8429 15.4177 14.5176 15.2667 14.2673L15.0099 13.8415Z" fill="url(#paint5_linear)"/>
<path d="M17.8462 12.9954L17.4738 12.6206C17.2678 12.4132 16.9327 12.4121 16.7253 12.6182C16.518 12.8242 16.5169 13.1593 16.7229 13.3667L17.0953 13.7414C17.3011 13.9486 17.6362 13.9501 17.8438 13.7438C18.0511 13.5378 18.0522 13.2027 17.8462 12.9954Z" fill="url(#paint6_linear)"/>
<path d="M15.1862 7.03072L15.026 6.67082C14.7612 6.07583 14.1326 5.75421 13.5177 5.8505L13.4189 5.62843C12.8432 4.33541 11.4864 3.62338 10.1311 3.84017L9.78343 3.05019C8.96784 1.19729 7.13262 0 5.10806 0C2.29145 0 0 2.29148 0 5.10806V17.4656C0 17.7579 0.236967 17.9948 0.529259 17.9948H2.6463C2.93859 17.9948 3.17556 17.7579 3.17556 17.4656V5.10806C3.17556 4.04248 4.04248 3.17556 5.10806 3.17556C5.87404 3.17556 6.56836 3.62846 6.87691 4.32952L7.25032 5.1776C6.2798 6.05762 5.96412 7.47297 6.51162 8.70332L6.61056 8.92532C6.13662 9.30974 5.94203 9.98769 6.21209 10.5943L6.37232 10.9542C6.72255 11.741 7.64469 12.1005 8.43805 11.7473L14.3931 9.09642C15.1813 8.74562 15.5371 7.81893 15.1862 7.03072ZM12.4519 6.05896L12.531 6.23651L7.55775 8.45033L7.47865 8.27275C7.02754 7.25897 7.4718 6.06866 8.50149 5.60951L9.78738 5.03672C10.8319 4.57467 12.0047 5.05446 12.4519 6.05896ZM5.10806 2.11704C3.45882 2.11704 2.11704 3.45882 2.11704 5.10806V16.9363H1.05852V5.10806C1.05852 2.87515 2.87515 1.05852 5.10806 1.05852C6.71313 1.05852 8.16806 2.00769 8.81467 3.47663L9.12179 4.17441L8.15483 4.60516L7.84571 3.90308C7.36821 2.81809 6.2936 2.11704 5.10806 2.11704ZM13.9626 8.12943L8.00755 10.7803C7.75196 10.8941 7.4531 10.7794 7.33935 10.5238L7.17912 10.1639C7.09977 9.98568 7.17979 9.77722 7.35805 9.69787C7.81395 9.49491 13.4583 6.98234 13.593 6.92236C13.7708 6.84325 13.9799 6.92349 14.059 7.10128L14.2193 7.46118C14.3327 7.71614 14.2176 8.01595 13.9626 8.12943Z" fill="url(#paint7_linear)"/>
<defs>
<linearGradient id="paint0_linear" x1="9.02246" y1="13.3859" x2="10.1164" y2="13.3859" gradientUnits="userSpaceOnUse">
<stop stop-color="#289FDD"/>
<stop offset="1" stop-color="#07689A"/>
</linearGradient>
<linearGradient id="paint1_linear" x1="11.5745" y1="12.2249" x2="12.8274" y2="12.2249" gradientUnits="userSpaceOnUse">
<stop stop-color="#289FDD"/>
<stop offset="1" stop-color="#07689A"/>
</linearGradient>
<linearGradient id="paint2_linear" x1="14.1268" y1="11.0639" x2="15.538" y2="11.0639" gradientUnits="userSpaceOnUse">
<stop stop-color="#289FDD"/>
<stop offset="1" stop-color="#07689A"/>
</linearGradient>
<linearGradient id="paint3_linear" x1="8.94415" y1="16.6215" x2="10.0285" y2="16.6215" gradientUnits="userSpaceOnUse">
<stop stop-color="#289FDD"/>
<stop offset="1" stop-color="#07689A"/>
</linearGradient>
<linearGradient id="paint4_linear" x1="11.4857" y1="15.4747" x2="12.6858" y2="15.4747" gradientUnits="userSpaceOnUse">
<stop stop-color="#289FDD"/>
<stop offset="1" stop-color="#07689A"/>
</linearGradient>
<linearGradient id="paint5_linear" x1="14.0273" y1="14.3278" x2="15.3429" y2="14.3278" gradientUnits="userSpaceOnUse">
<stop stop-color="#289FDD"/>
<stop offset="1" stop-color="#07689A"/>
</linearGradient>
<linearGradient id="paint6_linear" x1="16.5691" y1="13.181" x2="18" y2="13.181" gradientUnits="userSpaceOnUse">
<stop stop-color="#289FDD"/>
<stop offset="1" stop-color="#07689A"/>
</linearGradient>
<linearGradient id="paint7_linear" x1="0" y1="8.99741" x2="15.3214" y2="8.99741" gradientUnits="userSpaceOnUse">
<stop stop-color="#289FDD"/>
<stop offset="1" stop-color="#07689A"/>
</linearGradient>
</defs>
</svg>
