<svg width="20" height="18" viewBox="0 0 20 18" fill="none" xmlns="http://www.w3.org/2000/svg">
<mask id="path-1-outside-1" maskUnits="userSpaceOnUse" x="0" y="0" width="20" height="18" fill="black">
<rect fill="white" width="20" height="18"/>
<path d="M8.65432 17.789C8.01508 17.789 7.48067 17.3317 7.361 16.7271C7.05239 16.7083 6.75044 16.6529 6.45952 16.5618C6.10342 16.9309 5.60399 17.1607 5.0519 17.1607C3.97302 17.1607 3.09531 16.283 3.09531 15.2041C3.09531 14.4627 3.5098 13.8163 4.1192 13.4845C4.15183 12.2145 4.78893 11.168 6.06109 10.2988C5.67241 10.0828 5.32795 9.80777 5.04733 9.48788C3.80361 9.38958 2.93071 9.11399 2.39482 8.6533C2.18571 8.47352 2.10524 8.19747 2.1848 7.93288C2.26513 7.6658 2.48683 7.47821 2.7634 7.44326C3.58729 7.3392 4.01219 7.06681 4.16441 6.94657C4.19043 5.84309 4.57887 4.76738 5.23914 3.97918C6.00931 3.05977 7.06871 2.57377 8.30276 2.57377C8.83461 2.57377 9.34012 2.66605 9.80523 2.84806C9.9408 2.90111 10.0078 3.05407 9.95468 3.18967C9.90163 3.32527 9.74867 3.39221 9.61307 3.33912C9.20941 3.18116 8.76858 3.10108 8.30276 3.10108C6.94717 3.10108 6.10838 3.76272 5.6434 4.31777C5.03769 5.04079 4.69035 6.04214 4.69035 7.06502C4.69035 7.18993 4.83418 7.40863 5.15547 7.61577C5.47233 7.82003 5.86327 7.94691 6.1757 7.94691C6.72435 7.94691 7.01144 8.34541 7.01144 8.73905C7.01144 8.94573 6.93445 9.1393 6.79459 9.28408C6.6867 9.39577 6.49176 9.52894 6.1757 9.52894C6.06489 9.52894 5.95622 9.52792 5.84977 9.52588C6.10226 9.72666 6.38995 9.89488 6.70203 10.0227C6.79452 10.0606 6.85766 10.1475 6.86505 10.2472C6.87243 10.3469 6.82282 10.4422 6.7369 10.4933C5.42515 11.2738 4.75761 12.1677 4.65829 13.2873C4.78545 13.2612 4.91707 13.2475 5.05186 13.2475C6.13074 13.2475 7.00848 14.1253 7.00848 15.2041C7.00848 15.5295 6.92864 15.8366 6.78753 16.1068C6.97537 16.1544 7.16802 16.1851 7.36409 16.1988C7.4897 15.6019 8.02049 15.1523 8.65425 15.1523C9.2909 15.1523 9.82362 15.606 9.94614 16.207H12.873C13.3731 16.207 13.8537 16.1189 14.305 15.945C14.1065 15.6165 13.9922 15.2317 13.9922 14.8207C13.9922 13.6184 14.9704 12.6402 16.1727 12.6402C16.2736 12.6402 16.3729 12.6471 16.4702 12.6604C16.3993 11.8734 16.0939 11.2353 15.8325 10.8197C15.755 10.6964 15.7921 10.5336 15.9154 10.4561C16.0386 10.3786 16.2014 10.4157 16.2789 10.5389C16.7227 11.2447 16.9731 12.0249 17.0084 12.8067C17.7972 13.1352 18.3532 13.9142 18.3532 14.8207C18.3532 16.023 17.375 17.0012 16.1727 17.0012C15.5786 17.0012 15.0392 16.7624 14.6455 16.3757C14.0901 16.6137 13.4944 16.7343 12.873 16.7343H9.94621C9.82366 17.3353 9.29097 17.789 8.65432 17.789ZM8.65432 15.6796C8.21818 15.6796 7.86331 16.0345 7.86331 16.4706C7.86331 16.9068 8.21818 17.2617 8.65432 17.2617C8.99808 17.2617 9.29132 17.0412 9.40016 16.7343H8.65432C8.50867 16.7343 8.39065 16.6163 8.39065 16.4706C8.39065 16.325 8.50867 16.207 8.65432 16.207H9.40016C9.29132 15.9 8.99808 15.6796 8.65432 15.6796ZM4.16178 14.0866C3.83342 14.3487 3.62266 14.7523 3.62266 15.2041C3.62266 15.9922 4.2638 16.6334 5.0519 16.6334C5.84 16.6334 6.48118 15.9922 6.48118 15.2041C6.48118 14.416 5.84 13.7748 5.0519 13.7748C4.91528 13.7748 4.78309 13.7941 4.6579 13.83C4.72762 14.494 5.08189 15.1136 5.65363 15.558C5.76863 15.6474 5.78937 15.813 5.7 15.928C5.61064 16.0429 5.44495 16.0637 5.33002 15.9743C4.70097 15.4855 4.29098 14.8158 4.16178 14.0866ZM16.1727 13.1676C15.2612 13.1676 14.5196 13.9092 14.5196 14.8207C14.5196 15.7323 15.2612 16.4738 16.1727 16.4738C17.0843 16.4738 17.8259 15.7323 17.8259 14.8207C17.8259 14.2067 17.4894 13.6698 16.9912 13.3847C16.8929 14.2579 16.4622 15.0625 15.7537 15.682C15.6441 15.7778 15.4775 15.7667 15.3816 15.657C15.2857 15.5474 15.297 15.3808 15.4066 15.285C16.0491 14.7232 16.4251 13.9875 16.4788 13.1959C16.3796 13.1773 16.2773 13.1676 16.1727 13.1676ZM4.29277 7.49716C4.01405 7.66781 3.54493 7.87607 2.82953 7.96646C2.73183 7.9788 2.69924 8.05333 2.68979 8.08479C2.68068 8.11506 2.66718 8.19205 2.73858 8.2534C3.31609 8.74988 4.47249 9.0016 6.1757 9.0016C6.28093 9.0016 6.36154 8.97337 6.41529 8.91771C6.4597 8.8718 6.48409 8.80834 6.48409 8.73905C6.48409 8.61101 6.40306 8.47425 6.1757 8.47425C5.76132 8.47425 5.27314 8.319 4.86979 8.05902C4.60805 7.89031 4.41135 7.69688 4.29277 7.49716ZM12.569 15.112C12.0413 15.112 11.6119 14.6827 11.6119 14.1549C11.6119 13.6271 12.0413 13.1978 12.569 13.1978C13.0968 13.1978 13.5261 13.6272 13.5261 14.1549C13.5261 14.6826 13.0968 15.112 12.569 15.112ZM12.569 13.7252C12.3321 13.7252 12.1393 13.918 12.1393 14.1549C12.1393 14.3919 12.3321 14.5847 12.569 14.5847C12.806 14.5847 12.9988 14.3919 12.9988 14.1549C12.9988 13.9179 12.806 13.7252 12.569 13.7252ZM1.79102 13.1881C1.35487 13.1881 1 12.8333 1 12.3971C1 11.9609 1.35487 11.6061 1.79102 11.6061C2.22716 11.6061 2.58203 11.9609 2.58203 12.3971C2.58203 12.8333 2.22716 13.1881 1.79102 13.1881ZM1.79102 12.1334C1.64561 12.1334 1.52734 12.2517 1.52734 12.3971C1.52734 12.5425 1.64561 12.6608 1.79102 12.6608C1.93642 12.6608 2.05469 12.5425 2.05469 12.3971C2.05469 12.2517 1.93642 12.1334 1.79102 12.1334ZM12.5325 10.2637C12.5296 10.2637 12.5267 10.2637 12.5238 10.2637L10.5508 10.2537C10.4329 10.2531 10.3298 10.1743 10.2981 10.0607C10.2665 9.94713 10.3142 9.82633 10.4148 9.76491C11.3823 9.17439 11.9151 8.21557 11.9151 7.06505C11.9151 5.80885 11.4021 4.6238 10.5428 3.89508C10.4317 3.8009 10.418 3.6345 10.5122 3.52345C10.6064 3.41239 10.7727 3.39871 10.8838 3.49286C11.8598 4.32051 12.4425 5.65588 12.4425 7.06502C12.4425 8.11077 12.0426 9.04772 11.3241 9.73021L12.5264 9.73633H12.5323C12.9759 9.73633 13.2477 9.48004 13.5106 9.23215C13.7235 9.03137 13.9247 8.84171 14.1977 8.84171C14.5551 8.84171 15.0908 9.1605 15.5958 9.67371C15.6979 9.77753 15.6966 9.94445 15.5928 10.0466C15.489 10.1487 15.3221 10.1474 15.22 10.0436C14.7621 9.57834 14.3466 9.36902 14.1978 9.36902C14.1341 9.36902 13.9829 9.51165 13.8724 9.61581C13.5822 9.88943 13.1853 10.2637 12.5325 10.2637ZM17.4123 9.32788C16.5369 9.32788 15.8247 8.61565 15.8247 7.74023C15.8247 6.8648 16.5369 6.15257 17.4123 6.15257C18.2878 6.15257 19 6.86477 19 7.74023C19 8.61569 18.2878 9.32788 17.4123 9.32788ZM17.4123 6.67991C16.8277 6.67991 16.352 7.15558 16.352 7.74023C16.352 8.32488 16.8277 8.80054 17.4123 8.80054C17.997 8.80054 18.4727 8.32488 18.4727 7.74023C18.4727 7.15558 17.997 6.67991 17.4123 6.67991ZM6.17612 7.34595C6.03047 7.34595 5.91245 7.22789 5.91245 7.08228V6.41624C5.91245 6.27063 6.03047 6.15257 6.17612 6.15257C6.32178 6.15257 6.4398 6.27063 6.4398 6.41624V7.08228C6.4398 7.22789 6.32178 7.34595 6.17612 7.34595ZM16.0884 5.92637C15.9427 5.92637 15.8247 5.80832 15.8247 5.6627V5.31561C15.8247 5.16999 15.9427 5.05193 16.0884 5.05193C16.234 5.05193 16.352 5.16999 16.352 5.31561V5.6627C16.352 5.80832 16.234 5.92637 16.0884 5.92637ZM17.2417 5.26041C17.1969 5.26041 17.1516 5.24902 17.1101 5.22504L16.8095 5.05148C16.6834 4.97867 16.6402 4.81741 16.713 4.6913C16.7857 4.56516 16.9471 4.52192 17.0732 4.5948L17.3737 4.76836C17.4998 4.84117 17.5431 5.00243 17.4702 5.12854C17.4214 5.21312 17.3328 5.26041 17.2417 5.26041ZM14.935 5.26041C14.8439 5.26041 14.7553 5.21312 14.7064 5.12854C14.6336 5.00243 14.6768 4.84117 14.8029 4.76836L15.1035 4.5948C15.2296 4.52202 15.3908 4.5652 15.4637 4.6913C15.5365 4.81741 15.4933 4.97867 15.3672 5.05148L15.0666 5.22504C15.0251 5.24898 14.9797 5.26041 14.935 5.26041ZM16.9416 4.10191C16.8504 4.10191 16.7618 4.05462 16.713 3.97004C16.6402 3.84393 16.6834 3.68267 16.8095 3.60986L17.1101 3.43633C17.2361 3.36348 17.3974 3.40673 17.4702 3.53283C17.5431 3.65894 17.4998 3.8202 17.3737 3.89301L17.0732 4.06654C17.0317 4.09048 16.9863 4.10191 16.9416 4.10191ZM15.2351 4.10191C15.1904 4.10191 15.145 4.09052 15.1035 4.06654L14.8029 3.89301C14.6768 3.8202 14.6336 3.65894 14.7064 3.53283C14.7792 3.40673 14.9404 3.36345 15.0666 3.43633L15.3672 3.60986C15.4933 3.68267 15.5365 3.84393 15.4637 3.97004C15.4148 4.05459 15.3262 4.10191 15.2351 4.10191ZM16.0884 3.60937C15.9427 3.60937 15.8247 3.49131 15.8247 3.3457V2.99863C15.8247 2.85302 15.9427 2.73496 16.0884 2.73496C16.234 2.73496 16.352 2.85302 16.352 2.99863V3.3457C16.352 3.49131 16.234 3.60937 16.0884 3.60937ZM12.7357 2.58203C12.2996 2.58203 11.9447 2.2272 11.9447 1.79102C11.9447 1.35483 12.2996 1 12.7357 1C13.1719 1 13.5267 1.35483 13.5267 1.79102C13.5267 2.2272 13.1719 2.58203 12.7357 2.58203ZM12.7357 1.52734C12.5903 1.52734 12.472 1.64564 12.472 1.79102C12.472 1.93642 12.5903 2.05469 12.7357 2.05469C12.8811 2.05469 12.9994 1.93642 12.9994 1.79102C12.9994 1.64564 12.8811 1.52734 12.7357 1.52734Z"/>
</mask>
<path d="M8.65432 17.789C8.01508 17.789 7.48067 17.3317 7.361 16.7271C7.05239 16.7083 6.75044 16.6529 6.45952 16.5618C6.10342 16.9309 5.60399 17.1607 5.0519 17.1607C3.97302 17.1607 3.09531 16.283 3.09531 15.2041C3.09531 14.4627 3.5098 13.8163 4.1192 13.4845C4.15183 12.2145 4.78893 11.168 6.06109 10.2988C5.67241 10.0828 5.32795 9.80777 5.04733 9.48788C3.80361 9.38958 2.93071 9.11399 2.39482 8.6533C2.18571 8.47352 2.10524 8.19747 2.1848 7.93288C2.26513 7.6658 2.48683 7.47821 2.7634 7.44326C3.58729 7.3392 4.01219 7.06681 4.16441 6.94657C4.19043 5.84309 4.57887 4.76738 5.23914 3.97918C6.00931 3.05977 7.06871 2.57377 8.30276 2.57377C8.83461 2.57377 9.34012 2.66605 9.80523 2.84806C9.9408 2.90111 10.0078 3.05407 9.95468 3.18967C9.90163 3.32527 9.74867 3.39221 9.61307 3.33912C9.20941 3.18116 8.76858 3.10108 8.30276 3.10108C6.94717 3.10108 6.10838 3.76272 5.6434 4.31777C5.03769 5.04079 4.69035 6.04214 4.69035 7.06502C4.69035 7.18993 4.83418 7.40863 5.15547 7.61577C5.47233 7.82003 5.86327 7.94691 6.1757 7.94691C6.72435 7.94691 7.01144 8.34541 7.01144 8.73905C7.01144 8.94573 6.93445 9.1393 6.79459 9.28408C6.6867 9.39577 6.49176 9.52894 6.1757 9.52894C6.06489 9.52894 5.95622 9.52792 5.84977 9.52588C6.10226 9.72666 6.38995 9.89488 6.70203 10.0227C6.79452 10.0606 6.85766 10.1475 6.86505 10.2472C6.87243 10.3469 6.82282 10.4422 6.7369 10.4933C5.42515 11.2738 4.75761 12.1677 4.65829 13.2873C4.78545 13.2612 4.91707 13.2475 5.05186 13.2475C6.13074 13.2475 7.00848 14.1253 7.00848 15.2041C7.00848 15.5295 6.92864 15.8366 6.78753 16.1068C6.97537 16.1544 7.16802 16.1851 7.36409 16.1988C7.4897 15.6019 8.02049 15.1523 8.65425 15.1523C9.2909 15.1523 9.82362 15.606 9.94614 16.207H12.873C13.3731 16.207 13.8537 16.1189 14.305 15.945C14.1065 15.6165 13.9922 15.2317 13.9922 14.8207C13.9922 13.6184 14.9704 12.6402 16.1727 12.6402C16.2736 12.6402 16.3729 12.6471 16.4702 12.6604C16.3993 11.8734 16.0939 11.2353 15.8325 10.8197C15.755 10.6964 15.7921 10.5336 15.9154 10.4561C16.0386 10.3786 16.2014 10.4157 16.2789 10.5389C16.7227 11.2447 16.9731 12.0249 17.0084 12.8067C17.7972 13.1352 18.3532 13.9142 18.3532 14.8207C18.3532 16.023 17.375 17.0012 16.1727 17.0012C15.5786 17.0012 15.0392 16.7624 14.6455 16.3757C14.0901 16.6137 13.4944 16.7343 12.873 16.7343H9.94621C9.82366 17.3353 9.29097 17.789 8.65432 17.789ZM8.65432 15.6796C8.21818 15.6796 7.86331 16.0345 7.86331 16.4706C7.86331 16.9068 8.21818 17.2617 8.65432 17.2617C8.99808 17.2617 9.29132 17.0412 9.40016 16.7343H8.65432C8.50867 16.7343 8.39065 16.6163 8.39065 16.4706C8.39065 16.325 8.50867 16.207 8.65432 16.207H9.40016C9.29132 15.9 8.99808 15.6796 8.65432 15.6796ZM4.16178 14.0866C3.83342 14.3487 3.62266 14.7523 3.62266 15.2041C3.62266 15.9922 4.2638 16.6334 5.0519 16.6334C5.84 16.6334 6.48118 15.9922 6.48118 15.2041C6.48118 14.416 5.84 13.7748 5.0519 13.7748C4.91528 13.7748 4.78309 13.7941 4.6579 13.83C4.72762 14.494 5.08189 15.1136 5.65363 15.558C5.76863 15.6474 5.78937 15.813 5.7 15.928C5.61064 16.0429 5.44495 16.0637 5.33002 15.9743C4.70097 15.4855 4.29098 14.8158 4.16178 14.0866ZM16.1727 13.1676C15.2612 13.1676 14.5196 13.9092 14.5196 14.8207C14.5196 15.7323 15.2612 16.4738 16.1727 16.4738C17.0843 16.4738 17.8259 15.7323 17.8259 14.8207C17.8259 14.2067 17.4894 13.6698 16.9912 13.3847C16.8929 14.2579 16.4622 15.0625 15.7537 15.682C15.6441 15.7778 15.4775 15.7667 15.3816 15.657C15.2857 15.5474 15.297 15.3808 15.4066 15.285C16.0491 14.7232 16.4251 13.9875 16.4788 13.1959C16.3796 13.1773 16.2773 13.1676 16.1727 13.1676ZM4.29277 7.49716C4.01405 7.66781 3.54493 7.87607 2.82953 7.96646C2.73183 7.9788 2.69924 8.05333 2.68979 8.08479C2.68068 8.11506 2.66718 8.19205 2.73858 8.2534C3.31609 8.74988 4.47249 9.0016 6.1757 9.0016C6.28093 9.0016 6.36154 8.97337 6.41529 8.91771C6.4597 8.8718 6.48409 8.80834 6.48409 8.73905C6.48409 8.61101 6.40306 8.47425 6.1757 8.47425C5.76132 8.47425 5.27314 8.319 4.86979 8.05902C4.60805 7.89031 4.41135 7.69688 4.29277 7.49716ZM12.569 15.112C12.0413 15.112 11.6119 14.6827 11.6119 14.1549C11.6119 13.6271 12.0413 13.1978 12.569 13.1978C13.0968 13.1978 13.5261 13.6272 13.5261 14.1549C13.5261 14.6826 13.0968 15.112 12.569 15.112ZM12.569 13.7252C12.3321 13.7252 12.1393 13.918 12.1393 14.1549C12.1393 14.3919 12.3321 14.5847 12.569 14.5847C12.806 14.5847 12.9988 14.3919 12.9988 14.1549C12.9988 13.9179 12.806 13.7252 12.569 13.7252ZM1.79102 13.1881C1.35487 13.1881 1 12.8333 1 12.3971C1 11.9609 1.35487 11.6061 1.79102 11.6061C2.22716 11.6061 2.58203 11.9609 2.58203 12.3971C2.58203 12.8333 2.22716 13.1881 1.79102 13.1881ZM1.79102 12.1334C1.64561 12.1334 1.52734 12.2517 1.52734 12.3971C1.52734 12.5425 1.64561 12.6608 1.79102 12.6608C1.93642 12.6608 2.05469 12.5425 2.05469 12.3971C2.05469 12.2517 1.93642 12.1334 1.79102 12.1334ZM12.5325 10.2637C12.5296 10.2637 12.5267 10.2637 12.5238 10.2637L10.5508 10.2537C10.4329 10.2531 10.3298 10.1743 10.2981 10.0607C10.2665 9.94713 10.3142 9.82633 10.4148 9.76491C11.3823 9.17439 11.9151 8.21557 11.9151 7.06505C11.9151 5.80885 11.4021 4.6238 10.5428 3.89508C10.4317 3.8009 10.418 3.6345 10.5122 3.52345C10.6064 3.41239 10.7727 3.39871 10.8838 3.49286C11.8598 4.32051 12.4425 5.65588 12.4425 7.06502C12.4425 8.11077 12.0426 9.04772 11.3241 9.73021L12.5264 9.73633H12.5323C12.9759 9.73633 13.2477 9.48004 13.5106 9.23215C13.7235 9.03137 13.9247 8.84171 14.1977 8.84171C14.5551 8.84171 15.0908 9.1605 15.5958 9.67371C15.6979 9.77753 15.6966 9.94445 15.5928 10.0466C15.489 10.1487 15.3221 10.1474 15.22 10.0436C14.7621 9.57834 14.3466 9.36902 14.1978 9.36902C14.1341 9.36902 13.9829 9.51165 13.8724 9.61581C13.5822 9.88943 13.1853 10.2637 12.5325 10.2637ZM17.4123 9.32788C16.5369 9.32788 15.8247 8.61565 15.8247 7.74023C15.8247 6.8648 16.5369 6.15257 17.4123 6.15257C18.2878 6.15257 19 6.86477 19 7.74023C19 8.61569 18.2878 9.32788 17.4123 9.32788ZM17.4123 6.67991C16.8277 6.67991 16.352 7.15558 16.352 7.74023C16.352 8.32488 16.8277 8.80054 17.4123 8.80054C17.997 8.80054 18.4727 8.32488 18.4727 7.74023C18.4727 7.15558 17.997 6.67991 17.4123 6.67991ZM6.17612 7.34595C6.03047 7.34595 5.91245 7.22789 5.91245 7.08228V6.41624C5.91245 6.27063 6.03047 6.15257 6.17612 6.15257C6.32178 6.15257 6.4398 6.27063 6.4398 6.41624V7.08228C6.4398 7.22789 6.32178 7.34595 6.17612 7.34595ZM16.0884 5.92637C15.9427 5.92637 15.8247 5.80832 15.8247 5.6627V5.31561C15.8247 5.16999 15.9427 5.05193 16.0884 5.05193C16.234 5.05193 16.352 5.16999 16.352 5.31561V5.6627C16.352 5.80832 16.234 5.92637 16.0884 5.92637ZM17.2417 5.26041C17.1969 5.26041 17.1516 5.24902 17.1101 5.22504L16.8095 5.05148C16.6834 4.97867 16.6402 4.81741 16.713 4.6913C16.7857 4.56516 16.9471 4.52192 17.0732 4.5948L17.3737 4.76836C17.4998 4.84117 17.5431 5.00243 17.4702 5.12854C17.4214 5.21312 17.3328 5.26041 17.2417 5.26041ZM14.935 5.26041C14.8439 5.26041 14.7553 5.21312 14.7064 5.12854C14.6336 5.00243 14.6768 4.84117 14.8029 4.76836L15.1035 4.5948C15.2296 4.52202 15.3908 4.5652 15.4637 4.6913C15.5365 4.81741 15.4933 4.97867 15.3672 5.05148L15.0666 5.22504C15.0251 5.24898 14.9797 5.26041 14.935 5.26041ZM16.9416 4.10191C16.8504 4.10191 16.7618 4.05462 16.713 3.97004C16.6402 3.84393 16.6834 3.68267 16.8095 3.60986L17.1101 3.43633C17.2361 3.36348 17.3974 3.40673 17.4702 3.53283C17.5431 3.65894 17.4998 3.8202 17.3737 3.89301L17.0732 4.06654C17.0317 4.09048 16.9863 4.10191 16.9416 4.10191ZM15.2351 4.10191C15.1904 4.10191 15.145 4.09052 15.1035 4.06654L14.8029 3.89301C14.6768 3.8202 14.6336 3.65894 14.7064 3.53283C14.7792 3.40673 14.9404 3.36345 15.0666 3.43633L15.3672 3.60986C15.4933 3.68267 15.5365 3.84393 15.4637 3.97004C15.4148 4.05459 15.3262 4.10191 15.2351 4.10191ZM16.0884 3.60937C15.9427 3.60937 15.8247 3.49131 15.8247 3.3457V2.99863C15.8247 2.85302 15.9427 2.73496 16.0884 2.73496C16.234 2.73496 16.352 2.85302 16.352 2.99863V3.3457C16.352 3.49131 16.234 3.60937 16.0884 3.60937ZM12.7357 2.58203C12.2996 2.58203 11.9447 2.2272 11.9447 1.79102C11.9447 1.35483 12.2996 1 12.7357 1C13.1719 1 13.5267 1.35483 13.5267 1.79102C13.5267 2.2272 13.1719 2.58203 12.7357 2.58203ZM12.7357 1.52734C12.5903 1.52734 12.472 1.64564 12.472 1.79102C12.472 1.93642 12.5903 2.05469 12.7357 2.05469C12.8811 2.05469 12.9994 1.93642 12.9994 1.79102C12.9994 1.64564 12.8811 1.52734 12.7357 1.52734Z" fill="url(#paint0_linear)"/>
<path d="M8.65432 17.789C8.01508 17.789 7.48067 17.3317 7.361 16.7271C7.05239 16.7083 6.75044 16.6529 6.45952 16.5618C6.10342 16.9309 5.60399 17.1607 5.0519 17.1607C3.97302 17.1607 3.09531 16.283 3.09531 15.2041C3.09531 14.4627 3.5098 13.8163 4.1192 13.4845C4.15183 12.2145 4.78893 11.168 6.06109 10.2988C5.67241 10.0828 5.32795 9.80777 5.04733 9.48788C3.80361 9.38958 2.93071 9.11399 2.39482 8.6533C2.18571 8.47352 2.10524 8.19747 2.1848 7.93288C2.26513 7.6658 2.48683 7.47821 2.7634 7.44326C3.58729 7.3392 4.01219 7.06681 4.16441 6.94657C4.19043 5.84309 4.57887 4.76738 5.23914 3.97918C6.00931 3.05977 7.06871 2.57377 8.30276 2.57377C8.83461 2.57377 9.34012 2.66605 9.80523 2.84806C9.9408 2.90111 10.0078 3.05407 9.95468 3.18967C9.90163 3.32527 9.74867 3.39221 9.61307 3.33912C9.20941 3.18116 8.76858 3.10108 8.30276 3.10108C6.94717 3.10108 6.10838 3.76272 5.6434 4.31777C5.03769 5.04079 4.69035 6.04214 4.69035 7.06502C4.69035 7.18993 4.83418 7.40863 5.15547 7.61577C5.47233 7.82003 5.86327 7.94691 6.1757 7.94691C6.72435 7.94691 7.01144 8.34541 7.01144 8.73905C7.01144 8.94573 6.93445 9.1393 6.79459 9.28408C6.6867 9.39577 6.49176 9.52894 6.1757 9.52894C6.06489 9.52894 5.95622 9.52792 5.84977 9.52588C6.10226 9.72666 6.38995 9.89488 6.70203 10.0227C6.79452 10.0606 6.85766 10.1475 6.86505 10.2472C6.87243 10.3469 6.82282 10.4422 6.7369 10.4933C5.42515 11.2738 4.75761 12.1677 4.65829 13.2873C4.78545 13.2612 4.91707 13.2475 5.05186 13.2475C6.13074 13.2475 7.00848 14.1253 7.00848 15.2041C7.00848 15.5295 6.92864 15.8366 6.78753 16.1068C6.97537 16.1544 7.16802 16.1851 7.36409 16.1988C7.4897 15.6019 8.02049 15.1523 8.65425 15.1523C9.2909 15.1523 9.82362 15.606 9.94614 16.207H12.873C13.3731 16.207 13.8537 16.1189 14.305 15.945C14.1065 15.6165 13.9922 15.2317 13.9922 14.8207C13.9922 13.6184 14.9704 12.6402 16.1727 12.6402C16.2736 12.6402 16.3729 12.6471 16.4702 12.6604C16.3993 11.8734 16.0939 11.2353 15.8325 10.8197C15.755 10.6964 15.7921 10.5336 15.9154 10.4561C16.0386 10.3786 16.2014 10.4157 16.2789 10.5389C16.7227 11.2447 16.9731 12.0249 17.0084 12.8067C17.7972 13.1352 18.3532 13.9142 18.3532 14.8207C18.3532 16.023 17.375 17.0012 16.1727 17.0012C15.5786 17.0012 15.0392 16.7624 14.6455 16.3757C14.0901 16.6137 13.4944 16.7343 12.873 16.7343H9.94621C9.82366 17.3353 9.29097 17.789 8.65432 17.789ZM8.65432 15.6796C8.21818 15.6796 7.86331 16.0345 7.86331 16.4706C7.86331 16.9068 8.21818 17.2617 8.65432 17.2617C8.99808 17.2617 9.29132 17.0412 9.40016 16.7343H8.65432C8.50867 16.7343 8.39065 16.6163 8.39065 16.4706C8.39065 16.325 8.50867 16.207 8.65432 16.207H9.40016C9.29132 15.9 8.99808 15.6796 8.65432 15.6796ZM4.16178 14.0866C3.83342 14.3487 3.62266 14.7523 3.62266 15.2041C3.62266 15.9922 4.2638 16.6334 5.0519 16.6334C5.84 16.6334 6.48118 15.9922 6.48118 15.2041C6.48118 14.416 5.84 13.7748 5.0519 13.7748C4.91528 13.7748 4.78309 13.7941 4.6579 13.83C4.72762 14.494 5.08189 15.1136 5.65363 15.558C5.76863 15.6474 5.78937 15.813 5.7 15.928C5.61064 16.0429 5.44495 16.0637 5.33002 15.9743C4.70097 15.4855 4.29098 14.8158 4.16178 14.0866ZM16.1727 13.1676C15.2612 13.1676 14.5196 13.9092 14.5196 14.8207C14.5196 15.7323 15.2612 16.4738 16.1727 16.4738C17.0843 16.4738 17.8259 15.7323 17.8259 14.8207C17.8259 14.2067 17.4894 13.6698 16.9912 13.3847C16.8929 14.2579 16.4622 15.0625 15.7537 15.682C15.6441 15.7778 15.4775 15.7667 15.3816 15.657C15.2857 15.5474 15.297 15.3808 15.4066 15.285C16.0491 14.7232 16.4251 13.9875 16.4788 13.1959C16.3796 13.1773 16.2773 13.1676 16.1727 13.1676ZM4.29277 7.49716C4.01405 7.66781 3.54493 7.87607 2.82953 7.96646C2.73183 7.9788 2.69924 8.05333 2.68979 8.08479C2.68068 8.11506 2.66718 8.19205 2.73858 8.2534C3.31609 8.74988 4.47249 9.0016 6.1757 9.0016C6.28093 9.0016 6.36154 8.97337 6.41529 8.91771C6.4597 8.8718 6.48409 8.80834 6.48409 8.73905C6.48409 8.61101 6.40306 8.47425 6.1757 8.47425C5.76132 8.47425 5.27314 8.319 4.86979 8.05902C4.60805 7.89031 4.41135 7.69688 4.29277 7.49716ZM12.569 15.112C12.0413 15.112 11.6119 14.6827 11.6119 14.1549C11.6119 13.6271 12.0413 13.1978 12.569 13.1978C13.0968 13.1978 13.5261 13.6272 13.5261 14.1549C13.5261 14.6826 13.0968 15.112 12.569 15.112ZM12.569 13.7252C12.3321 13.7252 12.1393 13.918 12.1393 14.1549C12.1393 14.3919 12.3321 14.5847 12.569 14.5847C12.806 14.5847 12.9988 14.3919 12.9988 14.1549C12.9988 13.9179 12.806 13.7252 12.569 13.7252ZM1.79102 13.1881C1.35487 13.1881 1 12.8333 1 12.3971C1 11.9609 1.35487 11.6061 1.79102 11.6061C2.22716 11.6061 2.58203 11.9609 2.58203 12.3971C2.58203 12.8333 2.22716 13.1881 1.79102 13.1881ZM1.79102 12.1334C1.64561 12.1334 1.52734 12.2517 1.52734 12.3971C1.52734 12.5425 1.64561 12.6608 1.79102 12.6608C1.93642 12.6608 2.05469 12.5425 2.05469 12.3971C2.05469 12.2517 1.93642 12.1334 1.79102 12.1334ZM12.5325 10.2637C12.5296 10.2637 12.5267 10.2637 12.5238 10.2637L10.5508 10.2537C10.4329 10.2531 10.3298 10.1743 10.2981 10.0607C10.2665 9.94713 10.3142 9.82633 10.4148 9.76491C11.3823 9.17439 11.9151 8.21557 11.9151 7.06505C11.9151 5.80885 11.4021 4.6238 10.5428 3.89508C10.4317 3.8009 10.418 3.6345 10.5122 3.52345C10.6064 3.41239 10.7727 3.39871 10.8838 3.49286C11.8598 4.32051 12.4425 5.65588 12.4425 7.06502C12.4425 8.11077 12.0426 9.04772 11.3241 9.73021L12.5264 9.73633H12.5323C12.9759 9.73633 13.2477 9.48004 13.5106 9.23215C13.7235 9.03137 13.9247 8.84171 14.1977 8.84171C14.5551 8.84171 15.0908 9.1605 15.5958 9.67371C15.6979 9.77753 15.6966 9.94445 15.5928 10.0466C15.489 10.1487 15.3221 10.1474 15.22 10.0436C14.7621 9.57834 14.3466 9.36902 14.1978 9.36902C14.1341 9.36902 13.9829 9.51165 13.8724 9.61581C13.5822 9.88943 13.1853 10.2637 12.5325 10.2637ZM17.4123 9.32788C16.5369 9.32788 15.8247 8.61565 15.8247 7.74023C15.8247 6.8648 16.5369 6.15257 17.4123 6.15257C18.2878 6.15257 19 6.86477 19 7.74023C19 8.61569 18.2878 9.32788 17.4123 9.32788ZM17.4123 6.67991C16.8277 6.67991 16.352 7.15558 16.352 7.74023C16.352 8.32488 16.8277 8.80054 17.4123 8.80054C17.997 8.80054 18.4727 8.32488 18.4727 7.74023C18.4727 7.15558 17.997 6.67991 17.4123 6.67991ZM6.17612 7.34595C6.03047 7.34595 5.91245 7.22789 5.91245 7.08228V6.41624C5.91245 6.27063 6.03047 6.15257 6.17612 6.15257C6.32178 6.15257 6.4398 6.27063 6.4398 6.41624V7.08228C6.4398 7.22789 6.32178 7.34595 6.17612 7.34595ZM16.0884 5.92637C15.9427 5.92637 15.8247 5.80832 15.8247 5.6627V5.31561C15.8247 5.16999 15.9427 5.05193 16.0884 5.05193C16.234 5.05193 16.352 5.16999 16.352 5.31561V5.6627C16.352 5.80832 16.234 5.92637 16.0884 5.92637ZM17.2417 5.26041C17.1969 5.26041 17.1516 5.24902 17.1101 5.22504L16.8095 5.05148C16.6834 4.97867 16.6402 4.81741 16.713 4.6913C16.7857 4.56516 16.9471 4.52192 17.0732 4.5948L17.3737 4.76836C17.4998 4.84117 17.5431 5.00243 17.4702 5.12854C17.4214 5.21312 17.3328 5.26041 17.2417 5.26041ZM14.935 5.26041C14.8439 5.26041 14.7553 5.21312 14.7064 5.12854C14.6336 5.00243 14.6768 4.84117 14.8029 4.76836L15.1035 4.5948C15.2296 4.52202 15.3908 4.5652 15.4637 4.6913C15.5365 4.81741 15.4933 4.97867 15.3672 5.05148L15.0666 5.22504C15.0251 5.24898 14.9797 5.26041 14.935 5.26041ZM16.9416 4.10191C16.8504 4.10191 16.7618 4.05462 16.713 3.97004C16.6402 3.84393 16.6834 3.68267 16.8095 3.60986L17.1101 3.43633C17.2361 3.36348 17.3974 3.40673 17.4702 3.53283C17.5431 3.65894 17.4998 3.8202 17.3737 3.89301L17.0732 4.06654C17.0317 4.09048 16.9863 4.10191 16.9416 4.10191ZM15.2351 4.10191C15.1904 4.10191 15.145 4.09052 15.1035 4.06654L14.8029 3.89301C14.6768 3.8202 14.6336 3.65894 14.7064 3.53283C14.7792 3.40673 14.9404 3.36345 15.0666 3.43633L15.3672 3.60986C15.4933 3.68267 15.5365 3.84393 15.4637 3.97004C15.4148 4.05459 15.3262 4.10191 15.2351 4.10191ZM16.0884 3.60937C15.9427 3.60937 15.8247 3.49131 15.8247 3.3457V2.99863C15.8247 2.85302 15.9427 2.73496 16.0884 2.73496C16.234 2.73496 16.352 2.85302 16.352 2.99863V3.3457C16.352 3.49131 16.234 3.60937 16.0884 3.60937ZM12.7357 2.58203C12.2996 2.58203 11.9447 2.2272 11.9447 1.79102C11.9447 1.35483 12.2996 1 12.7357 1C13.1719 1 13.5267 1.35483 13.5267 1.79102C13.5267 2.2272 13.1719 2.58203 12.7357 2.58203ZM12.7357 1.52734C12.5903 1.52734 12.472 1.64564 12.472 1.79102C12.472 1.93642 12.5903 2.05469 12.7357 2.05469C12.8811 2.05469 12.9994 1.93642 12.9994 1.79102C12.9994 1.64564 12.8811 1.52734 12.7357 1.52734Z" stroke="url(#paint1_linear)" stroke-width="0.4" mask="url(#path-1-outside-1)"/>
<defs>
<linearGradient id="paint0_linear" x1="1" y1="9.3945" x2="19" y2="9.3945" gradientUnits="userSpaceOnUse">
<stop stop-color="#289FDD"/>
<stop offset="1" stop-color="#07689A"/>
</linearGradient>
<linearGradient id="paint1_linear" x1="1" y1="9.3945" x2="19" y2="9.3945" gradientUnits="userSpaceOnUse">
<stop stop-color="#289FDD"/>
<stop offset="1" stop-color="#07689A"/>
</linearGradient>
</defs>
</svg>
