<svg width="16" height="18" viewBox="0 0 16 18" fill="none" xmlns="http://www.w3.org/2000/svg">
<path d="M13.5352 0H1.58203C0.709699 0 0 0.709699 0 1.58203V5.44922C0 5.74045 0.236109 5.97656 0.527344 5.97656H2.46094V8.09592C1.67105 8.18371 1.05469 8.85505 1.05469 9.66797C1.05469 10.3554 1.49558 10.9416 2.10938 11.1593V12.1289C2.10938 13.7109 3.215 15.0395 4.6941 15.3827L4.04297 16.9453H1.58203C1.2908 16.9453 1.05469 17.1814 1.05469 17.4727C1.05469 17.7639 1.2908 18 1.58203 18H13.5352C13.8264 18 14.0625 17.7639 14.0625 17.4727C14.0625 17.1814 13.8264 16.9453 13.5352 16.9453H11.0742L10.4231 15.3827C11.9022 15.0395 13.0078 13.7109 13.0078 12.1289V11.1593C13.6216 10.9416 14.0625 10.3554 14.0625 9.66797C14.0625 8.85505 13.4461 8.18371 12.6562 8.09592V5.97656H14.5898C14.8811 5.97656 15.1172 5.74045 15.1172 5.44922V1.58203C15.1172 0.709699 14.4075 0 13.5352 0ZM3.51562 2.63672C3.51562 1.76439 4.22532 1.05469 5.09766 1.05469H10.0195C10.8919 1.05469 11.6016 1.76439 11.6016 2.63672V8.08594H3.51562V2.63672ZM1.05469 4.92188V1.58203C1.05469 1.29125 1.29125 1.05469 1.58203 1.05469H2.98972C2.65792 1.49569 2.46094 2.0436 2.46094 2.63672V4.92188H1.05469ZM5.18555 16.9453L5.80078 15.4688H9.31641L9.93164 16.9453H5.18555ZM11.9531 12.1289C11.9531 13.3889 10.928 14.4141 9.66797 14.4141H5.44922C4.18918 14.4141 3.16406 13.3889 3.16406 12.1289V11.25H11.9531V12.1289ZM13.0078 9.66797C13.0078 9.95875 12.7712 10.1953 12.4805 10.1953H2.63672C2.34594 10.1953 2.10938 9.95875 2.10938 9.66797C2.10938 9.37719 2.34594 9.14062 2.63672 9.14062H12.4805C12.7712 9.14062 13.0078 9.37719 13.0078 9.66797ZM14.0625 4.92188H12.6562V2.63672C12.6562 2.0436 12.4593 1.49569 12.1275 1.05469H13.5352C13.8259 1.05469 14.0625 1.29125 14.0625 1.58203V4.92188Z" fill="url(#paint0_linear)"/>
<path d="M8.96484 2.10938H6.15234C5.86111 2.10938 5.625 2.34548 5.625 2.63672C5.625 2.92795 5.86111 3.16406 6.15234 3.16406H8.96484C9.25608 3.16406 9.49219 2.92795 9.49219 2.63672C9.49219 2.34548 9.25608 2.10938 8.96484 2.10938Z" fill="url(#paint1_linear)"/>
<defs>
<linearGradient id="paint0_linear" x1="0" y1="9" x2="15.1172" y2="9" gradientUnits="userSpaceOnUse">
<stop stop-color="#289FDD"/>
<stop offset="1" stop-color="#07689A"/>
</linearGradient>
<linearGradient id="paint1_linear" x1="5.625" y1="2.63672" x2="9.49219" y2="2.63672" gradientUnits="userSpaceOnUse">
<stop stop-color="#289FDD"/>
<stop offset="1" stop-color="#07689A"/>
</linearGradient>
</defs>
</svg>
