<svg width="18" height="17" viewBox="0 0 18 17" fill="none" xmlns="http://www.w3.org/2000/svg">
<path d="M18 8.42843C18 7.61364 17.3371 6.9507 16.5222 6.9507H2.47996V2.14767C2.47996 1.59476 2.92977 1.14496 3.48268 1.14496H3.74519C4.01684 1.14496 4.27313 1.25538 4.45924 1.44386L4.41474 1.48836C3.66737 2.23572 3.66737 3.45172 4.41474 4.19917L4.66827 4.4527C4.78004 4.56447 4.92653 4.62039 5.07311 4.62039C5.21968 4.62039 5.3661 4.56455 5.47794 4.4527L7.98114 1.94951C8.20467 1.72598 8.20467 1.36344 7.98114 1.13992L7.72761 0.886382C7.36562 0.524315 6.88423 0.32497 6.37228 0.32497C5.98091 0.32497 5.60766 0.441773 5.29175 0.658367C4.89188 0.243767 4.33574 0 3.74527 0H3.48276C2.2985 0 1.33501 0.963411 1.33501 2.14775V6.95803C0.586931 7.0301 0 7.662 0 8.42851C0 9.05537 0.39302 9.59103 0.945138 9.80534V11.6921C0.945138 13.3563 2.12963 14.749 3.69982 15.0718L3.20867 15.563C2.98514 15.7865 2.98514 16.1489 3.20867 16.3725C3.32043 16.4842 3.46692 16.5402 3.6135 16.5402C3.76008 16.5402 3.90649 16.4843 4.01833 16.3725L5.24922 15.1422H12.7505L13.9817 16.3725C14.0934 16.4842 14.2399 16.5402 14.3866 16.5402C14.5331 16.5402 14.6796 16.4843 14.7914 16.3725C15.0149 16.1489 15.0149 15.7865 14.7914 15.563L14.3003 15.0718C15.8706 14.749 17.055 13.3564 17.055 11.6921V9.80534C17.6069 9.59087 18 9.05537 18 8.42843ZM6.37228 1.46985C6.50507 1.46985 6.63267 1.50308 6.74561 1.5657L5.09453 3.21678C4.93268 2.92339 4.976 2.54628 5.22449 2.29787L5.82654 1.69581C5.97233 1.55011 6.16616 1.46985 6.37228 1.46985ZM1.4778 8.09574H16.5222C16.7057 8.09574 16.855 8.24499 16.855 8.42859C16.855 8.61202 16.7057 8.76135 16.5222 8.76135H1.4778C1.29429 8.76135 1.14503 8.61202 1.14503 8.42859C1.14503 8.24499 1.29429 8.09574 1.4778 8.09574ZM15.9098 11.6921C15.9098 12.9631 14.8756 13.9973 13.6044 13.9973H4.39552C3.12431 13.9973 2.09009 12.9632 2.09009 11.6921V9.92269H15.9098V11.6921Z" fill="url(#paint0_linear)"/>
<path d="M7.25072 5.78355C7.3049 5.83774 7.37587 5.86483 7.44691 5.86483C7.51795 5.86483 7.58892 5.83774 7.64311 5.78355C7.75148 5.67517 7.75148 5.49953 7.64311 5.39116L7.3635 5.11156C7.25513 5.00318 7.07949 5.00318 6.97111 5.11156C6.86274 5.21993 6.86274 5.39557 6.97111 5.50395L7.25072 5.78355Z" fill="url(#paint1_linear)"/>
<path d="M8.08946 5.50387L8.36906 5.78348C8.42325 5.83766 8.49422 5.86476 8.56526 5.86476C8.6363 5.86476 8.70734 5.83766 8.76153 5.78348C8.86983 5.6751 8.86983 5.49938 8.76153 5.39101L8.48193 5.1114C8.37355 5.00303 8.19784 5.00311 8.08946 5.1114C7.98108 5.21986 7.98108 5.3955 8.08946 5.50387Z" fill="url(#paint2_linear)"/>
<path d="M7.0839 4.27263L6.8043 3.99303C6.69592 3.88465 6.52029 3.88465 6.41191 3.99303C6.30353 4.1014 6.30353 4.27696 6.41191 4.38541L6.69151 4.66502C6.7457 4.71921 6.81666 4.7463 6.88771 4.7463C6.95875 4.7463 7.02972 4.71921 7.0839 4.66502C7.19228 4.55672 7.19228 4.381 7.0839 4.27263Z" fill="url(#paint3_linear)"/>
<path d="M7.92271 3.99303C7.81433 3.88465 7.63869 3.88465 7.53032 3.99303C7.42194 4.1014 7.42194 4.27696 7.53032 4.38541L7.80992 4.66502C7.86411 4.71921 7.93507 4.7463 8.00612 4.7463C8.07716 4.7463 8.14812 4.71921 8.20231 4.66502C8.31069 4.55664 8.31069 4.381 8.20231 4.27263L7.92271 3.99303Z" fill="url(#paint4_linear)"/>
<path d="M7.51347 2.85789C7.40518 2.96627 7.40518 3.14199 7.51347 3.25036L7.79308 3.52997C7.84727 3.58415 7.91823 3.61125 7.98927 3.61125C8.06032 3.61125 8.13136 3.58415 8.18555 3.52997C8.29384 3.42159 8.29384 3.24587 8.18555 3.1375L7.90594 2.85789C7.79757 2.74952 7.62185 2.74952 7.51347 2.85789Z" fill="url(#paint5_linear)"/>
<path d="M8.87413 4.33059C8.92832 4.38478 8.99928 4.41188 9.07033 4.41188C9.14137 4.41188 9.21241 4.38478 9.2666 4.33059C9.3749 4.22222 9.3749 4.0465 9.2666 3.93813L8.987 3.65852C8.87862 3.55015 8.7029 3.55023 8.59453 3.65852C8.48623 3.7669 8.48623 3.94262 8.59453 4.05099L8.87413 4.33059Z" fill="url(#paint6_linear)"/>
<defs>
<linearGradient id="paint0_linear" x1="0" y1="8.27008" x2="18" y2="8.27008" gradientUnits="userSpaceOnUse">
<stop stop-color="#289FDD"/>
<stop offset="1" stop-color="#07689A"/>
</linearGradient>
<linearGradient id="paint1_linear" x1="6.88983" y1="5.44755" x2="7.72439" y2="5.44755" gradientUnits="userSpaceOnUse">
<stop stop-color="#289FDD"/>
<stop offset="1" stop-color="#07689A"/>
</linearGradient>
<linearGradient id="paint2_linear" x1="8.00818" y1="5.44745" x2="8.84276" y2="5.44745" gradientUnits="userSpaceOnUse">
<stop stop-color="#289FDD"/>
<stop offset="1" stop-color="#07689A"/>
</linearGradient>
<linearGradient id="paint3_linear" x1="6.33063" y1="4.32902" x2="7.16518" y2="4.32902" gradientUnits="userSpaceOnUse">
<stop stop-color="#289FDD"/>
<stop offset="1" stop-color="#07689A"/>
</linearGradient>
<linearGradient id="paint4_linear" x1="7.44904" y1="4.32902" x2="8.28359" y2="4.32902" gradientUnits="userSpaceOnUse">
<stop stop-color="#289FDD"/>
<stop offset="1" stop-color="#07689A"/>
</linearGradient>
<linearGradient id="paint5_linear" x1="7.43225" y1="3.19393" x2="8.26677" y2="3.19393" gradientUnits="userSpaceOnUse">
<stop stop-color="#289FDD"/>
<stop offset="1" stop-color="#07689A"/>
</linearGradient>
<linearGradient id="paint6_linear" x1="8.51331" y1="3.99457" x2="9.34782" y2="3.99457" gradientUnits="userSpaceOnUse">
<stop stop-color="#289FDD"/>
<stop offset="1" stop-color="#07689A"/>
</linearGradient>
</defs>
</svg>
