<svg width="18" height="18" viewBox="0 0 18 18" fill="none" xmlns="http://www.w3.org/2000/svg">
<path d="M0 9C0 9.31064 0.251824 9.5625 0.5625 9.5625H0.84375V10.4062C0.84375 13.663 3.49327 16.3125 6.75 16.3125H7.03125V17.4375C7.03125 17.7481 7.28307 18 7.59375 18C7.90443 18 8.15625 17.7481 8.15625 17.4375V16.3125H9.84375V17.4375C9.84375 17.7481 10.0956 18 10.4062 18C10.7169 18 10.9688 17.7481 10.9688 17.4375V16.3125H11.25C14.5067 16.3125 17.1562 13.663 17.1562 10.4062V9.5625H17.4375C17.7482 9.5625 18 9.31064 18 9C18 8.68936 17.7482 8.4375 17.4375 8.4375C16.6532 8.4375 15.072 8.4375 14.625 8.4375V7.21093L15.8355 7.02471C16.1426 6.97746 16.3532 6.69027 16.306 6.38321C16.2587 6.0762 15.9717 5.86543 15.6645 5.91279C11.6863 6.52482 11.9837 6.47466 11.9108 6.49979C11.7741 6.54669 11.6583 6.64629 11.5915 6.77904C11.5108 6.93939 11.5312 6.90096 11.5312 8.4375H10.6875V3.9375C10.6875 1.76636 8.92114 0 6.75 0C4.57886 0 2.8125 1.76636 2.8125 3.9375V4.21875C2.8125 4.52939 3.06432 4.78125 3.375 4.78125H5.625C5.93568 4.78125 6.1875 4.52939 6.1875 4.21875V3.9375C6.1875 3.62735 6.43985 3.375 6.75 3.375C7.06015 3.375 7.3125 3.62735 7.3125 3.9375V8.4375H6.46875C6.46875 6.90578 6.47399 6.99321 6.45434 6.90623C6.40385 6.68559 6.22635 6.51674 6.00374 6.47775C5.95835 6.46977 6.41918 6.54103 2.33554 5.91279C2.02841 5.86547 1.74132 6.07616 1.69407 6.38321C1.64682 6.69027 1.85741 6.97746 2.1645 7.02471L3.375 7.21093V8.4375C2.67659 8.4375 0.810106 8.4375 0.5625 8.4375C0.251824 8.4375 0 8.68936 0 9H0ZM5.34375 8.4375H4.5V7.38401L5.34375 7.5138V8.4375ZM9.5625 8.4375H8.4375V3.9375C8.4375 3.00702 7.68052 2.25 6.75 2.25C5.91532 2.25 5.22021 2.85915 5.08595 3.65625H3.95142C4.09303 2.23703 5.29407 1.125 6.75 1.125C8.30081 1.125 9.5625 2.38669 9.5625 3.9375V8.4375ZM13.5 8.4375H12.6562V7.51384L13.5 7.38404V8.4375ZM1.96875 9.5625H16.0312V10.4062C16.0312 13.0427 13.8864 15.1875 11.25 15.1875C10.7489 15.1875 7.34948 15.1875 6.75 15.1875C4.11363 15.1875 1.96875 13.0427 1.96875 10.4062V9.5625Z" fill="url(#paint0_linear)"/>
<defs>
<linearGradient id="paint0_linear" x1="0" y1="9" x2="18" y2="9" gradientUnits="userSpaceOnUse">
<stop stop-color="#289FDD"/>
<stop offset="1" stop-color="#07689A"/>
</linearGradient>
</defs>
</svg>
