<svg width="18" height="18" viewBox="0 0 18 18" fill="none" xmlns="http://www.w3.org/2000/svg">
<path d="M16.9453 14.9266V12.1641C16.9453 8.96551 14.3431 6.36328 11.1445 6.36328H10.4913C10.2736 5.74952 9.68748 5.30859 9 5.30859C8.31252 5.30859 7.72636 5.74952 7.50867 6.36328H6.85547C6.56469 6.36328 6.32812 6.12671 6.32812 5.83594V3.07336C6.94192 2.85567 7.38281 2.26951 7.38281 1.58203C7.38281 0.709699 6.67311 0 5.80078 0H1.58203C0.709699 0 0 0.709699 0 1.58203C0 2.26951 0.440895 2.85567 1.05469 3.07336V5.83594C1.05469 9.03449 3.65692 11.6367 6.85547 11.6367H7.50867C7.72636 12.2505 8.31252 12.6914 9 12.6914C9.68748 12.6914 10.2736 12.2505 10.4913 11.6367H11.1445C11.4353 11.6367 11.6719 11.8733 11.6719 12.1641V14.9266C11.0581 15.1443 10.6172 15.7305 10.6172 16.418C10.6172 17.2903 11.3269 18 12.1992 18H16.418C17.2903 18 18 17.2903 18 16.418C18 15.7305 17.5591 15.1443 16.9453 14.9266ZM1.05469 1.58203C1.05469 1.29125 1.29125 1.05469 1.58203 1.05469H5.80078C6.09156 1.05469 6.32812 1.29125 6.32812 1.58203C6.32812 1.87281 6.09156 2.10938 5.80078 2.10938H1.58203C1.29125 2.10938 1.05469 1.87281 1.05469 1.58203ZM7.41797 10.582H6.85547C4.23847 10.582 2.10938 8.45293 2.10938 5.83594V3.16406H5.27344V5.83594C5.27344 6.70827 5.98314 7.41797 6.85547 7.41797H7.41797V10.582ZM9.52734 11.1094C9.52734 11.4002 9.29078 11.6367 9 11.6367C8.70922 11.6367 8.47266 11.4002 8.47266 11.1094V6.89062C8.47266 6.59985 8.70922 6.36328 9 6.36328C9.29078 6.36328 9.52734 6.59985 9.52734 6.89062V11.1094ZM11.1445 10.582H10.582V7.41797H11.1445C13.7615 7.41797 15.8906 9.54707 15.8906 12.1641V14.8359H12.7266V12.1641C12.7266 11.2917 12.0169 10.582 11.1445 10.582ZM16.418 16.9453H12.1992C11.9084 16.9453 11.6719 16.7087 11.6719 16.418C11.6719 16.1272 11.9084 15.8906 12.1992 15.8906H16.418C16.7087 15.8906 16.9453 16.1272 16.9453 16.418C16.9453 16.7087 16.7087 16.9453 16.418 16.9453Z" fill="url(#paint0_linear)"/>
<defs>
<linearGradient id="paint0_linear" x1="0" y1="9" x2="18" y2="9" gradientUnits="userSpaceOnUse">
<stop stop-color="#289FDD"/>
<stop offset="1" stop-color="#07689A"/>
</linearGradient>
</defs>
</svg>
