<svg width="18" height="20" viewBox="0 0 18 20" fill="none" xmlns="http://www.w3.org/2000/svg">
    <path d="M16.75 16.2984H15.8305V3.21159H15.9414C16.1908 3.21159 16.393 3.00943 16.393 2.76003V1.35156C16.393 1.10216 16.1908 0.9 15.9414 0.9H2.16016C1.9108 0.9 1.70859 1.10216 1.70859 1.35156V2.76003C1.70859 3.00943 1.9108 3.21159 2.16016 3.21159H2.27109V16.2984H1.35156C1.1022 16.2984 0.9 16.5006 0.9 16.75V18.6484C0.9 18.8978 1.1022 19.1 1.35156 19.1H16.75C16.9994 19.1 17.2016 18.8978 17.2016 18.6484V16.75C17.2016 16.5006 16.9994 16.2984 16.75 16.2984ZM2.61172 1.80313H15.4898V2.30846H2.61172V1.80313ZM14.9273 3.21159V16.2984H10.9734C10.977 16.2754 10.9789 16.2519 10.9789 16.2279V3.21159H14.9273ZM3.17422 3.21159H10.0758V16.2279C10.0758 16.2519 10.0777 16.2755 10.0813 16.2985H4.58047V6.15626C4.58047 5.53945 5.08245 5.0375 5.69923 5.0375H5.97067C6.48384 5.0375 6.91757 5.38517 7.04864 5.85743C6.37025 5.8744 5.82381 6.43137 5.82381 7.11374V7.92578C5.82381 8.17518 6.02602 8.37734 6.27537 8.37734H8.80662C9.05597 8.37734 9.25818 8.17518 9.25818 7.92578V7.11374C9.25818 6.42067 8.6945 5.85703 8.00147 5.85703H7.97041C7.82536 4.8835 6.98408 4.13438 5.97067 4.13438H5.69923C4.58425 4.13438 3.67734 5.04128 3.67734 6.15626V16.2984H3.17422V3.21159ZM8.00144 6.76016C8.19631 6.76016 8.35502 6.91887 8.35502 7.11374V7.47422H6.7269V7.11374C6.7269 6.91887 6.88561 6.76016 7.08048 6.76016H8.00144ZM16.2984 18.1969H1.80313V17.2016H16.2984V18.1969Z" fill="url(#paint0_linear)" stroke="url(#paint1_linear)" stroke-width="0.2"/>
    <path d="M9.30177 9.11615C9.16449 8.97887 8.94195 8.97887 8.80459 9.11612L6.67511 11.2456C6.53782 11.3829 6.53782 11.6055 6.67511 11.7428C6.74377 11.8114 6.83373 11.8458 6.9237 11.8458C7.01366 11.8458 7.10363 11.8114 7.17229 11.7428L9.30177 9.61333C9.43906 9.47605 9.43906 9.25344 9.30177 9.11615Z" fill="url(#paint2_linear)"/>
    <path d="M6.25829 12.1596C6.19293 12.0943 6.10223 12.0566 6.00977 12.0566C5.91692 12.0566 5.8266 12.0942 5.76121 12.1596C5.69547 12.225 5.6582 12.3157 5.6582 12.4082C5.6582 12.5007 5.69547 12.5914 5.76121 12.6567C5.8266 12.7221 5.9173 12.7598 6.00977 12.7598C6.10223 12.7598 6.19293 12.7221 6.25829 12.6567C6.32368 12.5914 6.36133 12.5007 6.36133 12.4082C6.36133 12.3157 6.32371 12.225 6.25829 12.1596Z" fill="url(#paint3_linear)"/>
    <path d="M9.09727 11.5883C8.95995 11.451 8.73741 11.451 8.60009 11.5883L5.56903 14.6194C5.43174 14.7567 5.43174 14.9793 5.56903 15.1166C5.63769 15.1852 5.72765 15.2196 5.81762 15.2196C5.90758 15.2196 5.99755 15.1852 6.06621 15.1166L9.09727 12.0855C9.23456 11.9482 9.23456 11.7256 9.09727 11.5883Z" fill="url(#paint4_linear)"/>
    <path d="M11.9336 9.43726C11.7395 9.43726 11.582 9.59465 11.582 9.78882V11.1251C11.582 11.3192 11.7395 11.4766 11.9336 11.4766C12.1277 11.4766 12.2852 11.3192 12.2852 11.1251V9.78882C12.2852 9.59465 12.1277 9.43726 11.9336 9.43726Z" fill="url(#paint5_linear)"/>
    <path d="M12.1821 8.22215C12.1168 8.15676 12.0261 8.11914 11.9336 8.11914C11.8411 8.11914 11.7504 8.15676 11.685 8.22215C11.6196 8.28754 11.582 8.37824 11.582 8.4707C11.582 8.56316 11.6196 8.65387 11.685 8.71926C11.7505 8.78465 11.8411 8.82227 11.9336 8.82227C12.0261 8.82227 12.1168 8.78465 12.1821 8.71926C12.2475 8.65387 12.2852 8.56352 12.2852 8.4707C12.2852 8.37824 12.2475 8.28754 12.1821 8.22215Z" fill="url(#paint6_linear)"/>
    <defs>
        <linearGradient id="paint0_linear" x1="1" y1="10" x2="17.1016" y2="10" gradientUnits="userSpaceOnUse">
            <stop stop-color="#289FDD"/>
            <stop offset="1" stop-color="#07689A"/>
        </linearGradient>
        <linearGradient id="paint1_linear" x1="1" y1="10" x2="17.1016" y2="10" gradientUnits="userSpaceOnUse">
            <stop stop-color="#289FDD"/>
            <stop offset="1" stop-color="#07689A"/>
        </linearGradient>
        <linearGradient id="paint2_linear" x1="6.57214" y1="10.4295" x2="9.40473" y2="10.4295" gradientUnits="userSpaceOnUse">
            <stop stop-color="#289FDD"/>
            <stop offset="1" stop-color="#07689A"/>
        </linearGradient>
        <linearGradient id="paint3_linear" x1="5.6582" y1="12.4082" x2="6.36133" y2="12.4082" gradientUnits="userSpaceOnUse">
            <stop stop-color="#289FDD"/>
            <stop offset="1" stop-color="#07689A"/>
        </linearGradient>
        <linearGradient id="paint4_linear" x1="5.46606" y1="13.3525" x2="9.20024" y2="13.3525" gradientUnits="userSpaceOnUse">
            <stop stop-color="#289FDD"/>
            <stop offset="1" stop-color="#07689A"/>
        </linearGradient>
        <linearGradient id="paint5_linear" x1="11.582" y1="10.4569" x2="12.2852" y2="10.4569" gradientUnits="userSpaceOnUse">
            <stop stop-color="#289FDD"/>
            <stop offset="1" stop-color="#07689A"/>
        </linearGradient>
        <linearGradient id="paint6_linear" x1="11.582" y1="8.4707" x2="12.2852" y2="8.4707" gradientUnits="userSpaceOnUse">
            <stop stop-color="#289FDD"/>
            <stop offset="1" stop-color="#07689A"/>
        </linearGradient>
    </defs>
</svg>
