<svg width="18" height="14" viewBox="0 0 18 14" fill="none" xmlns="http://www.w3.org/2000/svg">
<path d="M4.35872 3.16674V1.05472H8.33374V0H3.30396V1.05557H1.19282V3.16674H0V6.3666H1.19282V13.4329H15.4415V9.26773C16.1716 8.77133 16.7847 8.11193 17.2256 7.34588C17.7322 6.46567 18 5.46073 18 4.43968V3.16674H4.35872ZM2.24754 2.11036H3.30396V3.16678H2.24754V2.11036ZM16.9453 4.43968C16.9453 5.2763 16.7261 6.0993 16.3115 6.81969C15.9088 7.5192 15.3311 8.11028 14.6407 8.52903L14.6376 8.53089C13.8946 8.98075 13.0402 9.21855 12.1664 9.21855H9.00002V10.2733H12.1664C12.9324 10.2733 13.6862 10.1226 14.3867 9.83442V12.3782H2.24754V5.31187H1.05472V4.2215H16.9453V4.43968H16.9453Z" fill="url(#paint0_linear)"/>
<defs>
<linearGradient id="paint0_linear" x1="0" y1="6.71646" x2="18" y2="6.71646" gradientUnits="userSpaceOnUse">
<stop stop-color="#289FDD"/>
<stop offset="1" stop-color="#07689A"/>
</linearGradient>
</defs>
</svg>
