<svg width="18" height="18" viewBox="0 0 18 18" fill="none" xmlns="http://www.w3.org/2000/svg">
<path d="M16.6045 15.9961C16.6045 16.3845 16.2898 16.6992 15.9014 16.6992H3.56837C3.27146 16.6992 3.01823 16.5151 2.91496 16.2548C2.85041 16.1485 2.81251 16.0241 2.81251 15.8906C2.81251 15.5029 2.49706 15.1875 2.10938 15.1875C1.7217 15.1875 1.40625 15.5029 1.40625 15.8906C1.40625 16.2783 1.7217 16.5937 2.10938 16.5937C2.49775 16.5937 2.81251 16.9085 2.81251 17.2969C2.81251 17.6852 2.49775 18 2.10938 18C0.946338 18 0 17.0538 0 15.8906C0 14.7276 0.946338 13.7812 2.10938 13.7812C3.06492 13.7812 3.87365 14.4201 4.13197 15.293H15.9014C16.2898 15.293 16.6045 15.6077 16.6045 15.9961ZM15.9014 6.85543H5.71978C5.338 6.85543 5.02736 6.54479 5.02736 6.16302V6.14159C5.02736 5.75982 5.338 5.44918 5.71978 5.44918H15.8907C17.0537 5.44918 18.0001 4.50298 18.0001 3.3398C18.0001 2.17675 17.0537 1.23042 15.8907 1.23042H4.02911C3.67521 0.457799 2.86923 -0.0518304 1.97562 0.00420002C0.925464 0.0695689 0.0784152 0.910163 0.00521854 1.9595C-0.035431 2.54287 0.16919 3.12172 0.566622 3.54785C0.964191 3.97426 1.52656 4.21871 2.10938 4.21871C2.49775 4.21871 2.81251 3.90395 2.81251 3.51558C2.81251 3.12735 2.49775 2.81245 2.10938 2.81245C1.91231 2.81245 1.72953 2.73308 1.59495 2.58874C1.46064 2.44468 1.39417 2.25599 1.40804 2.05741C1.43207 1.7145 1.71964 1.42913 2.0631 1.40771C2.43595 1.38422 2.76293 1.6527 2.80729 2.01841C2.85014 2.37135 3.14979 2.63667 3.50534 2.63667H15.8907C16.2784 2.63667 16.5938 2.95212 16.5938 3.3398C16.5938 3.72748 16.2784 4.04292 15.8907 4.04292H5.71978C4.56264 4.04292 3.62111 4.98446 3.62111 6.14159V6.16302C3.62111 7.32029 4.56264 8.26169 5.71978 8.26169H15.9014C16.2832 8.26169 16.5938 8.57233 16.5938 8.9541V8.97553C16.5938 9.3573 16.2832 9.66794 15.9014 9.66794H5.71978C4.56264 9.66794 3.62111 10.6093 3.62111 11.7666V11.788C3.62111 12.9453 4.56264 13.8867 5.71978 13.8867H15.9014C16.2832 13.8867 16.5938 14.1973 16.5938 14.5791V14.6005C16.5938 14.9889 16.9086 15.3037 17.2969 15.3037C17.6853 15.3037 18.0001 14.9889 18.0001 14.6005V14.5791C18.0001 13.4218 17.0587 12.4805 15.9014 12.4805H5.71978C5.338 12.4805 5.02736 12.1698 5.02736 11.788V11.7666C5.02736 11.3848 5.338 11.0742 5.71978 11.0742H15.9014C17.0587 11.0742 18.0001 10.1328 18.0001 8.97553V8.9541C18.0001 7.79696 17.0587 6.85543 15.9014 6.85543Z" fill="url(#paint0_linear)"/>
<defs>
<linearGradient id="paint0_linear" x1="0" y1="9" x2="18.0001" y2="9" gradientUnits="userSpaceOnUse">
<stop stop-color="#289FDD"/>
<stop offset="1" stop-color="#07689A"/>
</linearGradient>
</defs>
</svg>
