<svg width="13" height="18" viewBox="0 0 13 18" fill="none" xmlns="http://www.w3.org/2000/svg">
<path d="M0 17.3896C0 17.7267 0.273394 18 0.610485 18C0.947576 18 1.22091 17.7267 1.22091 17.3896V15.828H6.98909C9.91764 15.828 12.3004 13.7461 12.3004 11.1872V10.1795C12.3004 10.0037 12.224 9.83655 12.0918 9.72055C11.9595 9.60461 11.7835 9.55139 11.6088 9.57455C11.6061 9.57491 11.3398 9.60946 10.9136 9.60946C9.05182 9.60952 4.64146 8.97048 3.90158 3.05061C3.86339 2.74509 3.6037 2.51588 3.29594 2.51588H1.22097V0.610485C1.22097 0.273394 0.947576 0 0.610546 0C0.273394 0 6.05728e-05 0.273394 6.05728e-05 0.610485V17.3896H0ZM11.0795 11.1872C11.0795 13.073 9.24467 14.6072 6.98915 14.6072H1.22097V3.73679H2.76776C3.21564 6.43527 4.42418 8.40982 6.36473 9.61061C8.08006 10.6718 9.95103 10.8303 10.9138 10.8302C10.9713 10.8302 11.0267 10.8297 11.0795 10.8287V11.1872H11.0795Z" fill="url(#paint0_linear)"/>
<defs>
<linearGradient id="paint0_linear" x1="0" y1="9" x2="12.3004" y2="9" gradientUnits="userSpaceOnUse">
<stop stop-color="#289FDD"/>
<stop offset="1" stop-color="#07689A"/>
</linearGradient>
</defs>
</svg>
