<svg width="18" height="18" viewBox="0 0 18 18" fill="none" xmlns="http://www.w3.org/2000/svg">
<path d="M14.903 5.05646H7.66303L7.66752 3.77416C7.66752 3.44187 7.84839 3.08323 8.14061 3.08323H14.7745C15.067 3.08323 15.3041 2.84612 15.3041 2.55365C15.3041 1.14556 14.1585 0 12.7505 0H4.80953C2.96295 0 1.58931 1.60446 1.58931 3.43544C1.57576 6.18768 1.62776 4.03613 1.29826 14.3996C0.549319 14.6166 0 15.3082 0 16.1261V17.4001C0 17.6926 0.237112 17.9297 0.529583 17.9297H8.97294C9.26541 17.9297 9.50252 17.6926 9.50252 17.4001V16.1262C9.50252 15.307 8.95151 14.6145 8.20074 14.3986L8.05266 10.1677C8.04038 9.81882 8.31919 9.53006 8.66875 9.53006H12.8927V11.0242C12.8927 11.3167 13.1298 11.5538 13.4223 11.5538H16.3233C16.6158 11.5538 16.8529 11.3167 16.8529 11.0242V9.53006H17.4704C17.7629 9.53006 18 9.29295 18 9.00048V8.1535C18 6.44577 16.6107 5.05646 14.903 5.05646ZM4.80953 1.0592H12.7505C13.3881 1.0592 13.9338 1.4607 14.148 2.0241H8.14061C7.18147 2.0241 6.60835 2.91394 6.60835 3.77233L6.60387 5.05649H2.6405L2.64848 3.43809C2.64848 2.12635 3.61794 1.0592 4.80953 1.0592ZM8.44336 16.1261V16.8705H1.05917V16.1262C1.05917 15.719 1.39047 15.3877 1.79765 15.3877H7.70487C8.11208 15.3877 8.44336 15.7189 8.44336 16.1261ZM15.7938 10.4946H13.9519V9.53006H15.7938V10.4946ZM16.9409 8.47089H8.66878C7.71938 8.47089 6.96063 9.25595 6.99417 10.2049L7.13846 14.3285H2.36018L2.6213 6.11563H14.903C16.0267 6.11563 16.9409 7.02979 16.9409 8.15346V8.47089Z" fill="url(#paint0_linear)"/>
<path d="M15.2957 13.1382C15.0839 12.8572 14.6615 12.8576 14.45 13.1382C13.9711 13.7739 12.9604 15.2422 12.9604 16.0552C12.9604 17.1098 13.8183 17.9677 14.8729 17.9677C15.9274 17.9677 16.7854 17.1098 16.7854 16.0552C16.7854 15.2434 15.7693 13.7663 15.2957 13.1382ZM14.8729 16.9085C14.4024 16.9085 14.0196 16.5257 14.0196 16.0552C14.0196 15.7855 14.4113 15.064 14.873 14.3728C15.3346 15.0635 15.7262 15.7849 15.7262 16.0552C15.7262 16.5258 15.3434 16.9085 14.8729 16.9085Z" fill="url(#paint1_linear)"/>
<defs>
<linearGradient id="paint0_linear" x1="0" y1="8.96483" x2="18" y2="8.96483" gradientUnits="userSpaceOnUse">
<stop stop-color="#289FDD"/>
<stop offset="1" stop-color="#07689A"/>
</linearGradient>
<linearGradient id="paint1_linear" x1="12.9604" y1="15.4477" x2="16.7854" y2="15.4477" gradientUnits="userSpaceOnUse">
<stop stop-color="#289FDD"/>
<stop offset="1" stop-color="#07689A"/>
</linearGradient>
</defs>
</svg>
