<svg width="47" height="50" viewBox="0 0 47 50" fill="none" xmlns="http://www.w3.org/2000/svg">
    <path fill-rule="evenodd" clip-rule="evenodd" d="M42.2096 19.7819H42.21C44.4427 20.5158 46.0732 22.7848 46.0732 25.4627V28.4C46.0732 30.843 44.7159 32.9453 42.7841 33.8524V34.6081C42.7841 41.5302 37.1532 47.1619 30.2311 47.1619H29.763C29.1695 48.8148 27.5875 50 25.7339 50H21.6549C19.2955 50 17.3771 48.0808 17.3771 45.7222V45.451C17.3771 43.0927 19.2955 41.1732 21.6549 41.1732H25.7339C27.6623 41.1732 29.2973 42.4568 29.829 44.2139H30.2311C35.5267 44.2139 39.8357 39.9048 39.8357 34.6081V34.3296H37.8742C37.1235 35.8521 35.5541 36.9015 33.7452 36.9015H31.636C30.8216 36.9015 30.162 36.2423 30.162 35.4275V18.4357C30.162 17.622 30.8216 16.9613 31.636 16.9613H33.7452C35.5541 16.9613 37.1227 18.0111 37.8742 19.5324H39.2616V19.1742C39.2616 10.2272 31.9832 2.948 23.0366 2.948C14.0675 2.948 6.81152 10.2074 6.81152 19.1742V19.5324H8.19855C8.95042 18.0111 10.519 16.9613 12.328 16.9613H14.4367C15.2515 16.9613 15.9111 17.622 15.9111 18.4357V35.4275C15.9111 36.2423 15.2515 36.9015 14.4367 36.9015H12.328C10.519 36.9015 8.94966 35.8521 8.19855 34.3296H5.41954C2.43111 34.3296 0 31.6696 0 28.4V25.4627C0 22.7848 1.6304 20.5158 3.86314 19.7819V19.1742C3.86314 8.57544 12.4409 0 23.0366 0C33.6086 0 42.2096 8.60138 42.2096 19.1742V19.7819ZM2.9481 25.4626V28.3999C2.9481 30.0441 4.05665 31.3815 5.41964 31.3815H7.72601V22.4803H5.41964C4.05665 22.4803 2.9481 23.8188 2.9481 25.4626ZM12.3278 19.9094H12.9626V33.9532H12.3278C11.4306 33.9532 10.6974 33.2338 10.6749 32.3415V21.5211C10.6974 20.6289 11.4306 19.9094 12.3278 19.9094ZM20.325 45.7222C20.325 46.4554 20.9216 47.052 21.6548 47.052H25.7338C26.467 47.052 27.0636 46.4554 27.0636 45.7222V45.451C27.0636 44.7148 26.4632 44.1216 25.7338 44.1216H21.6548C20.9216 44.1216 20.325 44.7178 20.325 45.451V45.7222ZM33.7452 33.9532H33.1105V19.9094H33.7452C34.6425 19.9094 35.3753 20.6289 35.3981 21.5211V32.3415C35.3753 33.2338 34.6425 33.9532 33.7452 33.9532ZM40.6536 31.3815C42.0166 31.3815 43.1251 30.0441 43.1251 28.3999V25.4626C43.1251 23.8188 42.0166 22.4803 40.6536 22.4803H38.3472V31.3815H40.6536Z" fill="url(#paint0_linear)"/>
    <defs>
        <linearGradient id="paint0_linear" x1="0" y1="25" x2="46.0732" y2="25" gradientUnits="userSpaceOnUse">
            <stop stop-color="#289FDD"/>
            <stop offset="1" stop-color="#07689A"/>
        </linearGradient>
    </defs>
</svg>
