<svg width="50" height="42" viewBox="0 0 50 42" fill="none" xmlns="http://www.w3.org/2000/svg">
    <path fill-rule="evenodd" clip-rule="evenodd" d="M29.4922 8.79183V23.4449H26.3672V0H0V35.1673H5.85938C5.85938 38.3994 8.4877 41.0285 11.7188 41.0285C14.9498 41.0285 17.5781 38.3994 17.5781 35.1673H32.4219C32.4219 38.3994 35.0502 41.0285 38.2812 41.0285C41.5123 41.0285 44.1406 38.3994 44.1406 35.1673H50V15.7726L46.5107 8.79183H29.4922ZM35.3516 11.7224V17.5836H32.4219V11.7224H35.3516ZM23.4375 4.27917L16.539 11.7225H23.4375V4.27917ZM20.6924 14.6533L14.6484 21.1747V14.6533H20.6924ZM4.82025 11.7225H11.7188V4.27917L4.82025 11.7225ZM2.92969 14.6533H8.97369L2.92969 21.1747V14.6533ZM11.7188 23.4449V16.0016L4.82025 23.4449H11.7188ZM23.4375 16.0016V23.4449H16.539L23.4375 16.0016ZM14.6484 9.45228L20.6924 2.93091H14.6484V9.45228ZM8.97369 2.93091L2.92969 9.45228V2.93091H8.97369ZM8.78906 35.1675C8.78906 36.7836 10.1032 38.0982 11.7188 38.0982C13.3343 38.0982 14.6484 36.7836 14.6484 35.1675C14.6484 33.5515 13.3343 32.2369 11.7188 32.2369C10.1032 32.2369 8.78906 33.5515 8.78906 35.1675ZM16.79 32.2369C15.7749 30.487 13.8828 29.3063 11.7188 29.3063C9.55467 29.3063 7.66258 30.487 6.64749 32.2369H2.92969V26.3757H29.4922V32.2369H16.79ZM35.3516 35.1675C35.3516 36.7836 36.6657 38.0982 38.2812 38.0982C39.8968 38.0982 41.2109 36.7836 41.2109 35.1675C41.2109 33.5515 39.8968 32.2369 38.2812 32.2369C36.6657 32.2369 35.3516 33.5515 35.3516 35.1675ZM43.3525 32.237C42.3374 30.487 40.4453 29.3064 38.2812 29.3064C36.1172 29.3064 34.2251 30.487 33.21 32.237H32.4219V20.5145H36.2095L39.1392 23.4451H47.0703V26.3757H44.1406V29.3064H47.0703V32.237H43.3525ZM40.353 20.5142H47.0703V16.464L44.7002 11.7224H38.2812V18.4418L40.353 20.5142Z" fill="url(#paint0_linear)"/>
    <defs>
        <linearGradient id="paint0_linear" x1="0" y1="20.5143" x2="50" y2="20.5143" gradientUnits="userSpaceOnUse">
            <stop stop-color="#289FDD"/>
            <stop offset="1" stop-color="#07689A"/>
        </linearGradient>
    </defs>
</svg>
