<svg width="50" height="43" viewBox="0 0 50 43" fill="none" xmlns="http://www.w3.org/2000/svg">
    <path fill-rule="evenodd" clip-rule="evenodd" d="M23.0633 25.5756H25.6189C26.1104 25.5904 26.5012 25.9928 26.501 26.484V31.1075C26.501 31.6091 26.0938 32.0158 25.5916 32.0158H23.0361C22.8753 32.5025 22.6777 32.9762 22.4449 33.4328L24.2638 35.2495C24.6164 35.6038 24.6164 36.1761 24.2638 36.5303L20.9898 39.8004C20.6351 40.1526 20.0622 40.1526 19.7075 39.8004L17.8886 37.9837C17.4394 38.2055 16.9743 38.3937 16.4972 38.5469V41.1447C16.4972 41.6464 16.09 42.0531 15.5878 42.0531H10.9587C10.4565 42.0531 10.0493 41.6464 10.0493 41.1447V38.4924C9.59093 38.3365 9.14417 38.1482 8.71241 37.9292L6.82988 39.8095C6.4752 40.1617 5.90225 40.1617 5.54757 39.8095L2.27359 36.5394C1.92096 36.1851 1.92096 35.6129 2.27359 35.2586L4.17432 33.3329C3.96481 32.907 3.78554 32.4668 3.63775 32.0158H0.909438C0.407201 32.0158 0 31.6091 0 31.1075V26.484C0 25.9823 0.407201 25.5756 0.909438 25.5756H3.63775C3.7894 25.1305 3.97174 24.6965 4.18341 24.2767L2.27359 22.3691C1.92096 22.0149 1.92096 21.4426 2.27359 21.0883L5.53848 17.8275C5.89316 17.4753 6.4661 17.4753 6.82078 17.8275L8.71241 19.7077C9.14406 19.4884 9.59082 19.3003 10.0493 19.1445V16.4921C10.0493 15.9905 10.4565 15.5837 10.9587 15.5837H15.615C16.1173 15.5837 16.5245 15.9905 16.5245 16.4921V19.0446C17.0016 19.1975 17.4668 19.3858 17.9159 19.6077L19.7348 17.791C20.0895 17.4388 20.6624 17.4388 21.0171 17.791L24.2911 21.0611C24.6437 21.4154 24.6437 21.9876 24.2911 22.3419L22.4722 24.1586C22.7047 24.6154 22.9023 25.0891 23.0633 25.5756ZM22.3812 30.1987H24.7094V27.4373H22.3812C21.9559 27.4507 21.578 27.1678 21.4718 26.7561C21.2788 25.9711 20.9724 25.2183 20.5624 24.5215C20.3483 24.1645 20.4046 23.7079 20.6988 23.4133L22.354 21.7601L20.3623 19.7799L18.698 21.4513C18.4068 21.7437 17.9549 21.8033 17.5976 21.5966C16.9025 21.1884 16.1521 20.8824 15.3695 20.6883C14.9538 20.5858 14.6658 20.2075 14.6783 19.7799V17.4001H11.8681V19.7981C11.8826 20.2204 11.6037 20.5969 11.1952 20.7065C10.4316 20.9057 9.69982 21.2116 9.0216 21.6148C8.6642 21.8286 8.20697 21.7724 7.91209 21.4786L6.18416 19.7527L4.19249 21.7329L5.91133 23.4769C6.22292 23.7445 6.31614 24.1876 6.13869 24.5579C5.73671 25.2297 5.43069 25.9543 5.22925 26.7107C5.12307 27.1224 4.7452 27.4053 4.31981 27.3919H1.83705V30.226H4.23796C4.66335 30.2126 5.04122 30.4955 5.1474 30.9072C5.34827 31.6638 5.65441 32.3884 6.05684 33.06C6.26373 33.4169 6.20405 33.8682 5.91133 34.1591L4.19249 35.9032L6.17506 37.8652L7.903 36.1393C8.19788 35.8455 8.6551 35.7893 9.01251 36.0031C9.69027 36.4072 10.4221 36.7131 11.1861 36.9114C11.5983 37.0175 11.8816 37.3949 11.8681 37.8198V40.236H14.6692V37.8561C14.6567 37.4285 14.9447 37.0503 15.3604 36.9478C16.143 36.7535 16.8934 36.4475 17.5885 36.0394C17.9458 35.8328 18.3977 35.8924 18.6889 36.1848L20.3532 37.847L22.3449 35.8668L20.6988 34.2227C20.4046 33.9282 20.3483 33.4715 20.5624 33.1145C20.972 32.4175 21.2783 31.6648 21.4718 30.88C21.578 30.4683 21.9559 30.1853 22.3812 30.1987Z" fill="url(#paint0_linear)"/>
    <path fill-rule="evenodd" clip-rule="evenodd" d="M8.18555 28.8458C8.18555 26.0365 10.4657 23.759 13.2784 23.759C16.089 23.764 18.3662 26.0384 18.3713 28.8458C18.3713 31.6551 16.0911 33.9326 13.2784 33.9326C10.4657 33.9326 8.18555 31.6551 8.18555 28.8458ZM13.2784 32.1155V32.0883C15.076 32.0884 16.5374 30.6408 16.5524 28.8454C16.5524 27.0394 15.0866 25.5754 13.2784 25.5754C11.4702 25.5754 10.0044 27.0394 10.0044 28.8454C10.0044 30.6515 11.4702 32.1155 13.2784 32.1155Z" fill="url(#paint1_linear)"/>
    <path fill-rule="evenodd" clip-rule="evenodd" d="M49.9745 12.8587C49.978 12.8729 49.9811 12.8872 49.9839 12.9016C50.08 13.394 49.7581 13.8709 49.2651 13.9669L46.7732 14.5119C46.7206 15.0207 46.6294 15.5247 46.5004 16.0197L48.6558 17.4004C48.6667 17.4071 48.6775 17.414 48.6881 17.4211C49.1054 17.7002 49.2171 18.2644 48.9377 18.6812L46.4368 22.578C46.1651 22.9988 45.6038 23.1207 45.1817 22.8505L42.9718 21.4335C42.5805 21.7446 42.1672 22.027 41.735 22.2783L42.2897 24.8217C42.4148 25.2892 42.1508 25.7726 41.6895 25.9208L37.1423 26.9018H36.9513C36.515 26.9114 36.1334 26.6103 36.0419 26.1842L35.478 23.5954C34.9964 23.5418 34.5193 23.4538 34.0502 23.332L32.6133 25.5756C32.3416 25.9964 31.7804 26.1182 31.3583 25.8481L27.4659 23.3501C27.0446 23.0788 26.9226 22.5182 27.1931 22.0966L28.6482 19.8257C28.3338 19.4648 28.0451 19.0824 27.7842 18.6812L25.1377 19.2535C24.6482 19.3605 24.1642 19.0518 24.0555 18.5631L23.0642 14.0214C22.957 13.5325 23.2661 13.049 23.7554 12.9404L26.4018 12.3591C26.451 11.8877 26.533 11.4202 26.6474 10.9602L24.3738 9.50687C23.9525 9.2355 23.8305 8.67493 24.101 8.25334L26.6292 4.3564C26.9009 3.93561 27.4621 3.81378 27.8842 4.0839L30.1305 5.5192C30.5074 5.21286 30.9055 4.93366 31.3219 4.68352L30.6853 2.1038C30.5781 1.61488 30.8873 1.13141 31.3765 1.02287L35.9237 0.0327632C35.9362 0.0293568 35.9487 0.0261776 35.9613 0.023339C36.4507 -0.089183 36.9388 0.216023 37.0514 0.704943L37.6061 3.24833C38.1059 3.29602 38.6014 3.38106 39.0885 3.50266L40.489 1.32262C40.7607 0.901828 41.322 0.779996 41.7441 1.05012L45.6546 3.56625C46.0759 3.83762 46.1979 4.39819 45.9275 4.81977L44.5087 6.98165C44.8435 7.37565 45.1475 7.79474 45.4182 8.23518L47.91 7.69016C48.3996 7.58309 48.8836 7.89182 48.9923 8.38051L49.9745 12.8587ZM45.018 13.7672C45.0378 13.3554 45.3328 13.0085 45.7365 12.9224L47.9919 12.3865L47.3917 9.66146L45.1181 10.152C44.7109 10.2417 44.2948 10.0432 44.1086 9.67054C43.7588 8.94579 43.3054 8.27566 42.7626 7.68125C42.4726 7.37855 42.4275 6.91699 42.6535 6.56398L43.9176 4.60194L41.5531 3.085L40.2799 5.0652C40.0564 5.41219 39.6269 5.56514 39.234 5.43763C38.4697 5.18783 37.6733 5.05021 36.8695 5.02887C36.4332 5.03852 36.0515 4.7374 35.96 4.31127L35.4507 1.98589L32.7224 2.5854L33.2408 4.94712C33.3275 5.34872 33.1336 5.75839 32.7679 5.9463C32.064 6.30726 31.4149 6.76598 30.8399 7.30883C30.5347 7.59553 30.0727 7.63686 29.7213 7.40875L27.7205 6.11889L26.2018 8.4806L28.2753 9.8068C28.6227 10.03 28.7758 10.459 28.6481 10.8514C28.3738 11.5932 28.2055 12.3699 28.148 13.1586C28.1322 13.5738 27.8364 13.9255 27.4295 14.0125L25.0104 14.5393L25.6106 17.2644L28.0297 16.7375C28.4369 16.6479 28.853 16.8463 29.0392 17.2189C29.3904 17.9164 29.8373 18.5615 30.367 19.1356C30.6495 19.439 30.6906 19.8948 30.467 20.2438L29.1938 22.333L31.5583 23.8499L32.877 21.797C33.044 21.5371 33.3318 21.3798 33.641 21.3792C33.7397 21.3784 33.8381 21.3937 33.932 21.4246C34.6804 21.6789 35.4612 21.8258 36.251 21.8606C36.6634 21.8804 37.0107 22.175 37.0968 22.5782L37.6152 24.9399L40.3435 24.3404L39.8342 22.015C39.7459 21.6061 39.9487 21.1898 40.3253 21.0068C41.0479 20.6531 41.7155 20.1972 42.3079 19.6533C42.6117 19.3712 43.0681 19.3301 43.4174 19.5534L45.4 20.8251L46.9188 18.4634L44.9544 17.2099C44.6029 16.9856 44.4492 16.5512 44.5815 16.1562C44.843 15.3854 44.9901 14.5805 45.018 13.7672Z" fill="url(#paint2_linear)"/>
    <path fill-rule="evenodd" clip-rule="evenodd" d="M36.5421 8.37135C38.9394 8.36534 41.014 10.0359 41.5167 12.3772C41.5941 12.7329 41.6331 13.0959 41.633 13.4601C41.6318 16.2694 39.3508 18.5459 36.5382 18.5449C33.7255 18.5438 31.4461 16.2655 31.4473 13.4562C31.4484 10.6469 33.7294 8.37033 36.5421 8.37135ZM37.2332 16.6555H37.2241C38.7353 16.3318 39.814 14.9969 39.8117 13.4533C39.8091 11.6473 38.3412 10.1854 36.533 10.188C36.2976 10.1876 36.0629 10.2119 35.8327 10.2607C34.0668 10.6501 32.9486 12.3923 33.3317 14.1575C33.743 15.9062 35.4706 17.0123 37.2332 16.6555Z" fill="url(#paint3_linear)"/>
    <defs>
        <linearGradient id="paint0_linear" x1="0" y1="28.8184" x2="26.501" y2="28.8184" gradientUnits="userSpaceOnUse">
            <stop stop-color="#289FDD"/>
            <stop offset="1" stop-color="#07689A"/>
        </linearGradient>
        <linearGradient id="paint1_linear" x1="8.18555" y1="28.8458" x2="18.3713" y2="28.8458" gradientUnits="userSpaceOnUse">
            <stop stop-color="#289FDD"/>
            <stop offset="1" stop-color="#07689A"/>
        </linearGradient>
        <linearGradient id="paint2_linear" x1="23.043" y1="13.451" x2="50.0009" y2="13.451" gradientUnits="userSpaceOnUse">
            <stop stop-color="#289FDD"/>
            <stop offset="1" stop-color="#07689A"/>
        </linearGradient>
        <linearGradient id="paint3_linear" x1="31.4473" y1="13.4581" x2="41.633" y2="13.4581" gradientUnits="userSpaceOnUse">
            <stop stop-color="#289FDD"/>
            <stop offset="1" stop-color="#07689A"/>
        </linearGradient>
    </defs>
</svg>
