<svg width="50" height="42" viewBox="0 0 50 42" fill="none" xmlns="http://www.w3.org/2000/svg">
    <path fill-rule="evenodd" clip-rule="evenodd" d="M16.5 12.0039C18.9812 12.0039 21 14.0233 21 16.5053C21 18.9874 18.9812 21.0067 16.5 21.0067C14.0187 21.0067 12 18.9874 12 16.5053C12 14.0233 14.0187 12.0039 16.5 12.0039ZM14.9999 16.5054C14.9999 17.3326 15.673 18.0059 16.4999 18.0059C17.3269 18.0059 17.9999 17.3326 17.9999 16.5054C17.9999 15.6782 17.3269 15.005 16.4999 15.005C15.673 15.005 14.9999 15.6782 14.9999 16.5054Z" fill="url(#paint0_linear)"/>
    <path fill-rule="evenodd" clip-rule="evenodd" d="M9 27.5085C9 23.3716 12.3645 20.0061 16.5 20.0061C20.6355 20.0061 24 23.3716 24 27.5085C24 28.3372 23.3285 29.0089 22.5 29.0089H10.5C9.67148 29.0089 9 28.3372 9 27.5085ZM16.5 23.007C14.5445 23.007 12.8761 24.2613 12.257 26.008H20.7429C20.1238 24.2613 18.4554 23.007 16.5 23.007Z" fill="url(#paint1_linear)"/>
    <path d="M32 10.5034C32 11.3322 31.3281 12.0039 30.5 12.0039C29.6715 12.0039 29 11.3322 29 10.5034C29 9.67463 29.6715 9.00293 30.5 9.00293C31.3281 9.00293 32 9.67463 32 10.5034Z" fill="url(#paint2_linear)"/>
    <path d="M38 10.5034C38 11.3322 37.3281 12.0039 36.5 12.0039C35.6715 12.0039 35 11.3322 35 10.5034C35 9.67463 35.6715 9.00293 36.5 9.00293C37.3281 9.00293 38 9.67463 38 10.5034Z" fill="url(#paint3_linear)"/>
    <path d="M44 10.5034C44 11.3322 43.3281 12.0039 42.5 12.0039C41.6715 12.0039 41 11.3322 41 10.5034C41 9.67463 41.6715 9.00293 42.5 9.00293C43.3281 9.00293 44 9.67463 44 10.5034Z" fill="url(#paint4_linear)"/>
    <path fill-rule="evenodd" clip-rule="evenodd" d="M25 0H48.5352C49.3443 0 50 0.655703 50 1.46475V19.0417C50 19.8507 49.3443 20.5064 48.5352 20.5064H47.0703V32.2244H48.5352C49.3443 32.2244 50 32.8801 50 33.6892C50 35.646 49.2165 37.4891 47.794 38.8795C46.3867 40.2553 44.5343 41.0129 42.5781 41.0129H7.32422C3.2856 41.0129 0 37.7275 0 33.6892C0 32.8801 0.655746 32.2244 1.46484 32.2244H2.92969V7.32373C2.92969 6.51469 3.58543 5.85898 4.39453 5.85898H23.5352V1.46475C23.5352 0.655703 24.1909 0 25 0ZM7.32423 38.0832H42.5781C44.4912 38.0832 46.1708 36.8404 46.8033 35.1525H3.1807C3.78533 36.8576 5.41459 38.0832 7.32423 38.0832ZM44.1408 32.2245H5.85956V8.78854H23.5353V19.0418C23.5353 19.8508 24.1911 20.5065 25.0002 20.5065H29.3947V24.9007C29.3947 25.4931 29.7518 26.0271 30.2992 26.2541C30.8466 26.4807 31.4764 26.3552 31.8952 25.9364L37.3259 20.5065H44.1408V32.2245ZM36.7188 17.5772H47.0704V2.92978H26.4649V17.5772H30.8595C31.6686 17.5772 32.3243 18.2329 32.3243 19.042V21.3646L35.6831 18.0064C35.9578 17.7317 36.3305 17.5772 36.7188 17.5772Z" fill="url(#paint5_linear)"/>
    <defs>
        <linearGradient id="paint0_linear" x1="12" y1="16.5053" x2="21" y2="16.5053" gradientUnits="userSpaceOnUse">
            <stop stop-color="#289FDD"/>
            <stop offset="1" stop-color="#07689A"/>
        </linearGradient>
        <linearGradient id="paint1_linear" x1="9" y1="24.5075" x2="24" y2="24.5075" gradientUnits="userSpaceOnUse">
            <stop stop-color="#289FDD"/>
            <stop offset="1" stop-color="#07689A"/>
        </linearGradient>
        <linearGradient id="paint2_linear" x1="29" y1="10.5034" x2="32" y2="10.5034" gradientUnits="userSpaceOnUse">
            <stop stop-color="#289FDD"/>
            <stop offset="1" stop-color="#07689A"/>
        </linearGradient>
        <linearGradient id="paint3_linear" x1="35" y1="10.5034" x2="38" y2="10.5034" gradientUnits="userSpaceOnUse">
            <stop stop-color="#289FDD"/>
            <stop offset="1" stop-color="#07689A"/>
        </linearGradient>
        <linearGradient id="paint4_linear" x1="41" y1="10.5034" x2="44" y2="10.5034" gradientUnits="userSpaceOnUse">
            <stop stop-color="#289FDD"/>
            <stop offset="1" stop-color="#07689A"/>
        </linearGradient>
        <linearGradient id="paint5_linear" x1="0" y1="20.5064" x2="50" y2="20.5064" gradientUnits="userSpaceOnUse">
            <stop stop-color="#289FDD"/>
            <stop offset="1" stop-color="#07689A"/>
        </linearGradient>
    </defs>
</svg>
