<svg width="50" height="44" viewBox="0 0 50 44" fill="none" xmlns="http://www.w3.org/2000/svg">
    <path d="M48.4375 21.8774H46.875V14.0649C46.875 13.2024 46.175 12.5024 45.3125 12.5024H43.75V7.81494C43.75 6.95244 43.05 6.25244 42.1875 6.25244H36.9031L34.2094 0.864939C33.8219 0.0899388 32.8844 -0.219437 32.1125 0.164938L28.5125 1.96806L27.9594 0.864939C27.5719 0.0930639 26.6344 -0.219436 25.8625 0.168064L13.6938 6.25244H4.6875C2.10312 6.25244 0 8.35556 0 10.9399V39.0649C0 41.6493 2.10312 43.7524 4.6875 43.7524H45.3125C46.175 43.7524 46.875 43.0524 46.875 42.1899V34.3774H48.4375C49.3 34.3774 50 33.6774 50 32.8149V23.4399C50 22.5774 49.3 21.8774 48.4375 21.8774ZM40.625 9.37744V12.5024H40.0281L38.4656 9.37744H40.625ZM32.1125 3.66181L36.5344 12.5024H33.7781L29.9094 4.76181L32.1125 3.66181ZM25.8625 3.66181L30.2844 12.5024H8.18125L25.8625 3.66181ZM4.6875 9.37744H7.44375L3.25 11.4743C3.1875 11.3024 3.125 11.1274 3.125 10.9399C3.125 10.0774 3.825 9.37744 4.6875 9.37744ZM43.75 40.6274H4.6875C3.825 40.6274 3.125 39.9274 3.125 39.0649V15.3274C3.6375 15.5118 4.1625 15.6274 4.6875 15.6274H43.75V21.8774H37.5C34.0531 21.8774 31.25 24.6806 31.25 28.1274C31.25 31.5743 34.0531 34.3774 37.5 34.3774H43.75V40.6274ZM46.875 31.2524H37.5C35.7781 31.2524 34.375 29.8493 34.375 28.1274C34.375 26.4056 35.7781 25.0024 37.5 25.0024H46.875V31.2524Z" fill="url(#paint0_linear)"/>
    <defs>
        <linearGradient id="paint0_linear" x1="0" y1="21.8762" x2="50" y2="21.8762" gradientUnits="userSpaceOnUse">
            <stop stop-color="#289FDD"/>
            <stop offset="1" stop-color="#07689A"/>
        </linearGradient>
    </defs>
</svg>
